%
T1C.01575F095S3
X0105Y012
X01085Y0127
X01225Y0105
X0135Y0125
X0135Y0115
X0145Y0115
X0145Y0125
X016Y01255
X0165Y012
X017Y0115
X0178Y01255
X018324Y012176
X01835Y0114
X0186Y0103
X0198Y01225
X0202Y01175
X02035Y0122
X0221Y0111
X0222Y01065
X023Y01105
X0236Y01215
X024Y01175
X0242Y01065
X024524Y012124
X0258Y0114
X0264Y01065
X02805Y01145
X028953Y011242
X030301Y011193
X031495Y01124
X0316Y0121
X0321Y0124
X03245Y01155
X033Y01035
X03335Y01065
X034393Y012793
X036117Y0105
X03655Y0103
X03692Y01137
X037176Y012426
X04125Y0105
X04195Y01245
X0425Y0105
X04425Y0125
X04425Y01375
X04425Y015
X0433Y01415
X042349Y013401
X04135Y0151
X040804Y012927
X038706Y014625
X03775Y01508
X0369Y0131
X03625Y01415
X0359Y015084
X035428Y01345
X03465Y01315
X03395Y01445
X0321Y014
X031874Y014826
X03125Y0151
X031Y01375
X03Y01375
X029Y01375
X02805Y0152
X0277Y01485
X02675Y0144
X02645Y015
X024969Y014731
X023781Y014817
X0233Y015233
X022866Y0152
X0221Y01295
X02095Y0145
X02075Y015167
X02075Y0135
X02015Y01315
X01935Y0146
X01885Y0132
X01885Y0139
X01745Y0129
X0173Y0147
X017274Y013974
X01685Y0135
X0148Y01305
X0146Y01365
X0125Y0135
X0105Y0174
X01245Y0174
X012616Y016951
X012731Y015766
X013Y01535
X013151Y016266
X01325Y0171
X017143Y015757
X0174Y0154
X01985Y0159
X019914Y01545
X02515Y015766
X025721Y015757
X02757Y01755
X02795Y017316
X028666Y015721
X03105Y01655
X03125Y0159
X031884Y01625
X03245Y01595
X032732Y016282
X032749Y017549
X03385Y017316
X0339Y01775
X03456Y017178
X035166Y017772
X03535Y01645
X035394Y016975
X037029Y01685
X0385Y01625
X0385Y0175
X03975Y0175
X04Y01575
X04075Y0155
X04075Y01625
X04425Y01775
X04425Y0165
X04425Y02
X04425Y019
X04025Y01875
X039465Y019655
X0389Y01845
X038831Y019635
X038637Y020031
X038507Y01909
X03618Y01923
X035243Y019318
X03515Y01995
X034825Y019513
X034344Y019202
X03428Y019866
X033887Y019613
X033655Y019231
X033266Y017929
X03195Y018
X031276Y019
X031Y01995
X030716Y018831
X030677Y018397
X0296Y018621
X02845Y01875
X02835Y02005
X0276Y019917
X027146Y017882
X02675Y020199
X026194Y020035
X026165Y018364
X02555Y018082
X025196Y01957
X02355Y01915
X0235Y01975
X02235Y018682
X02075Y02015
X020484Y018417
X02005Y018482
X0198Y019922
X019661Y018708
X01965Y018273
X01885Y0187
X0162Y0194
X015896Y018487
X0158Y0199
X015666Y019266
X015418Y020132
X015335Y017868
X014963Y01811
X0148Y01955
X014427Y019791
X014426Y01931
X014129Y01814
X013832Y018487
X01316Y020243
X01295Y01925
X01265Y01885
X0123Y0183
X01155Y0198
X011193Y020057
X010483Y022
X013795Y02044
X01425Y022301
X014336Y020796
X01493Y02183
X014971Y020996
X015564Y022
X016016Y021166
X01625Y0218
X016323Y020666
X0167Y02125
X017015Y020416
X017184Y021316
X01725Y02175
X017979Y020641
X018234Y022134
X0184Y0214
X019043Y0219
X019051Y020431
X0191Y021266
X019534Y021184
X01965Y02075
X020157Y0219
X0216Y0219
X023495Y021717
X02525Y02275
X025872Y022137
X0265Y021667
X0267Y020833
X027134Y020718
X0278Y021
X02835Y02135
X029116Y0208
X02935Y02195
X029746Y022696
X02995Y0205
X03025Y0209
X030509Y021255
X030702Y020317
X030887Y02228
X03095Y021035
X0323Y022296
X032357Y02037
X032366Y022784
X032463Y021004
X032703Y022506
X033338Y022724
X0334Y02165
X033766Y0206
X034239Y022161
X0343Y0203
X034682Y020532
X03625Y02115
X036252Y022665
X03635Y02185
X037Y02195
X0373Y022568
X03735Y0208
X03735Y021552
X03905Y0215
X03905Y0227
X039083Y020483
X039684Y0228
X039717Y0205
X039784Y02215
X040177Y020827
X0414Y02135
X041519Y0228
X04425Y02175
X04425Y0245
X04425Y02325
X04275Y02325
X04275Y0245
X04185Y02525
X0405Y02525
X039356Y024273
X03865Y023627
X035866Y023705
X035519Y024071
X03485Y02425
X034787Y02345
X0347Y02285
X033953Y023288
X033784Y023741
X033569Y02414
X03305Y023358
X032663Y024007
X032591Y023173
X032138Y025118
X030982Y024017
X030784Y023213
X0305Y023797
X0305Y024431
X03047Y025266
X030302Y023343
X029433Y023883
X02895Y024083
X028467Y023303
X028071Y02423
X027516Y024301
X02626Y0236
X02626Y0231
X025814Y024475
X025Y02515
X02427Y025163
X02415Y02355
X02375Y02325
X02285Y0245
X02245Y02325
X0217Y02475
X0212Y024
X02085Y0251
X0208Y02305
X0205Y0248
X02015Y0245
X0197Y0241
X019684Y023624
X01955Y0248
X01905Y0234
X0186Y0234
X01855Y0248
X01825Y0242
X0176Y0234
X01725Y02375
X0167Y0229
X0165Y0236
X01585Y02335
X0154Y024
X0114Y02605
X014366Y027
X0152Y027634
X0152Y027
X0154Y0254
X0159Y0275
X0162Y02585
X01625Y026926
X016358Y026292
X01725Y02545
X018Y026833
X0187Y0265
X018999Y025499
X019434Y026716
X020837Y026065
X02085Y02563
X021166Y026633
X02325Y02743
X023489Y025561
X02378Y02708
X024415Y0271
X02514Y02666
X026009Y026237
X027124Y025987
X028136Y0278
X0287Y026567
X02936Y02581
X02975Y0266
X0308Y0265
X031004Y025666
X031077Y027195
X031609Y026772
X031838Y025433
X032123Y025762
X032223Y026206
X03305Y02595
X033058Y026485
X033161Y025528
X033692Y026662
X033795Y025516
X0342Y0264
X03441Y02555
X03485Y02725
X035802Y025552
X035827Y026275
X036282Y02555
X037969Y025819
X038201Y026201
X0387Y0274
X039556Y02655
X040436Y025684
X04159Y02705
X0443Y02775
X0443Y02575
X0443Y02675
X0443Y02975
X0443Y02875
X042149Y027816
X042133Y02825
X042107Y029093
X04185Y02945
X04085Y0279
X040819Y02845
X0387Y02785
X0385Y03015
X03835Y029716
X036933Y029233
X0369Y028598
X036484Y028084
X035826Y028024
X035516Y029166
X03465Y028417
X0343Y03
X0337Y0288
X032546Y028934
X0317Y0293
X0316Y027852
X0306Y02863
X030087Y029187
X0292Y028665
X02905Y02803
X0279Y0282
X0265Y028
X0264Y03015
X0245Y0279
X02165Y028067
X021168Y028267
X0197Y02798
X019256Y028844
X0183Y02935
X01745Y02975
X01715Y0279
X0171Y02895
X0146Y02825
X01425Y0293
X0142Y02845
X010618Y032332
X01065Y031534
X010657Y03105
X011Y0321
X014292Y03081
X014503Y03175
X01555Y0318
X01675Y031217
X01764Y03179
X01785Y03135
X01925Y03165
X0193Y031216
X019384Y032541
X0199Y031159
X0212Y03275
X022295Y032755
X023266Y03275
X0239Y032798
X0271Y03095
X028202Y03225
X02845Y031
X03085Y0323
X03215Y03125
X03215Y03175
X03215Y03075
X0343Y032
X035965Y0323
X036599Y0323
X0369Y03125
X037313Y03175
X0383Y0316
X03975Y03235
X04Y03195
X04215Y0305
X042153Y03125
X0443Y03275
X0443Y03175
X04425Y034
X04425Y035
X0396Y03305
X03825Y0335
X036609Y033359
X0366Y033794
X03455Y03475
X034Y034
X0335Y034
X03215Y03355
X031257Y034557
X03105Y03415
X030782Y033032
X0303Y03355
X0303Y034508
X0283Y0328
X028275Y034525
X027274Y03375
X02665Y03455
X0243Y03455
X0226Y03315
X021207Y0336
X0209Y0346
X02055Y032918
X020466Y03455
X0201Y03525
X01685Y03345
X016578Y03495
X015791Y032909
X01555Y03395
X0141Y035
X0116Y03285
X014935Y0375
X01545Y0353
X015569Y0377
X0158Y0367
X016Y0375
X0168Y035834
X016858Y0354
X01795Y0372
X01855Y0367
X019184Y03645
X01945Y0361
X02035Y0365
X020382Y035582
X0212Y03755
X022Y036
X022Y03535
X0235Y036
X025Y036
X026Y036
X02815Y0365
X0292Y03585
X0294Y0376
X0305Y03575
X031029Y035664
X03485Y037
X034955Y036151
X0369Y03605
X03775Y03605
X03805Y03645
X0385Y0375
X03905Y0357
X04Y0375
X0408Y0355
X04425Y036
X04425Y037
X04425Y038
X04425Y039
X04425Y04
X041883Y038038
X0371Y03795
X03095Y03825
X02655Y0383
X0254Y03835
X0243Y03885
X0176Y0385
X014949Y038599
X0146Y03805
X0145Y0389
X0104Y0378
X0114Y0417
X011626Y042374
X012601Y042551
X01485Y04225
X0161Y0419
X0177Y04155
X01925Y0419
X0205Y0425
X021807Y041014
X0222Y04275
X0229Y04035
X0255Y0426
X027655Y041079
X0305Y0409
X0315Y0425
X0325Y0415
X0335Y0425
X0335Y0415
X03645Y04035
X038257Y041242
X041482Y041242
X04425Y04275
X04425Y04375
X04425Y04475
X043Y045
X04285Y0444
X0424Y04475
X04207Y045109
X038674Y043291
X0364Y04465
X035775Y043795
X0335Y0435
X033Y045
X0325Y0435
X0313Y0448
X0295Y044
X0285Y044
X0275Y044
X0262Y04415
X025Y043
X0243Y0428
X0189Y0435
X01835Y0433
X017955Y043846
X01065Y0465
X012864Y047091
X01355Y0467
X01605Y0467
X01821Y047152
X01935Y0468
X022346Y046228
X02565Y04655
X02656Y04638
X03045Y0454
X030792Y046172
X03435Y04655
X03525Y0468
X03635Y046897
X037Y0455
X037Y0475
X044326Y046756
X044139Y048416
X043953Y050068
X0435Y04975
X043Y048
X043Y0485
X042202Y048462
X0389Y050087
X037Y0485
X03287Y048014
X0328Y04925
X03005Y0491
X028572Y047948
X0262Y0502
X0247Y0482
X024367Y047919
X0226Y04995
X0189Y04805
X0132Y0492
X0135Y0525
X0135Y0515
X0205Y0505
X022Y0515
X0235Y0515
X0235Y0525
X025Y0515
X025Y0525
X029Y051
X03Y051
X03Y052
X0304Y0507
X032Y052
X03416Y05053
X034173Y052253
X03545Y0518
X038Y0525
X038656Y051536
X043686Y051682
X044Y055
X0425Y0535
X042Y055
X04045Y0543
X0395Y0535
X0385Y054
X0385Y055
X0375Y055
X0365Y055
X035631Y053611
X033Y0545
X032693Y053668
X022Y0545
X0205Y0545
X0205Y0535
X0195Y0545
X0195Y0535
X0185Y0545
X0185Y0535
X0155Y0535
X0145Y0535
X0145Y0545
X0135Y0545
X0135Y0535
X0135Y0555
X0135Y0565
X0145Y0565
X0145Y0555
X0155Y0565
X0165Y0555
X0175Y0555
X0185Y0565
X0185Y0555
X0195Y0555
X0195Y0565
X0205Y0555
X0205Y0565
X022Y0555
X022Y0565
X0235Y0555
X0235Y0565
X025Y0565
X025Y0555
X0265Y0565
X029Y0565
X03Y0565
X031Y0555
X031Y0565
X033Y0555
X033Y0565
X0345Y0565
X0355Y0565
X0365Y0565
X0375Y0565
X0385Y0565
X0395Y0565
X0405Y0565
X042Y0565
X044Y0565
T2C.03F197S55
X011482Y01445
X011482Y01345
X011482Y01645
X011482Y01545
X011482Y01745
X011482Y01845
T3C.035F197S55
X016958Y056329G85X01771Y056329
X016958Y054049G85X01771Y054049
X015444Y055585G85X015444Y054832
T4C.03622F197S55
X036816Y053468
X036818Y054252
X037791Y054252
X037792Y053468
T5C.03937F197S55
X013Y0106
X014Y0106
X015Y0106
X016Y0106
X017Y0106
X018Y0106
X01069Y01962
X01069Y02062
X04398Y05383
X04398Y05289
T6C.03937F197S55
X01085Y05135
X01085Y05312
T7C.04724F139S55
X012469Y0225
X012469Y0245
X012469Y0235
X013531Y0225
X013531Y0235
X013531Y0245
X013531Y0255
X013531Y0265
X013531Y0275
X013531Y0285
X013531Y0295
X012469Y0255
X012469Y0295
X012469Y0285
X012469Y0275
X012469Y0265
X012469Y0325
X012469Y0315
X012469Y0305
X012469Y0335
X012469Y0345
X013531Y0325
X013531Y0305
X013531Y0315
X013531Y0335
X013531Y0345
X013531Y0355
X013531Y0365
X013531Y0375
X013531Y0385
X013531Y0395
X012469Y0375
X012469Y0385
X012469Y0395
X012469Y0355
X012469Y0365
X012469Y0415
X012469Y0405
X013531Y0405
X013531Y0415
T8C.04724F139S55
X01183Y05086
X01183Y05361
T9C.09055F066S55
X03493Y055323
X03967Y055323
M30
