*
*
G04 PADS 9.5 Build Number: 522968 generated Gerber (RS-274-X) file*
G04 PC Version=2.1*
*
%IN "Eswriter_MasterV2.05-Fi"*%
*
%MOIN*%
*
%FSLAX35Y35*%
*
*
*
*
G04 PC Standard Apertures*
*
*
G04 Thermal Relief Aperture macro.*
%AMTER*
1,1,$1,0,0*
1,0,$1-$2,0,0*
21,0,$3,$4,0,0,45*
21,0,$3,$4,0,0,135*
%
*
*
G04 Annular Aperture macro.*
%AMANN*
1,1,$1,0,0*
1,0,$2,0,0*
%
*
*
G04 Odd Aperture macro.*
%AMODD*
1,1,$1,0,0*
1,0,$1-0.005,0,0*
%
*
*
G04 PC Custom Aperture Macros*
*
*
*
*
*
*
G04 PC Aperture Table*
*
%ADD010C,0.001*%
%ADD011R,0.06063X0.02756*%
%ADD012R,0.05X0.06*%
%ADD013R,0.06X0.05*%
%ADD014R,0.07087X0.02362*%
%ADD015R,0.09055X0.07874*%
%ADD020R,0.045X0.065*%
%ADD021R,0.118X0.065*%
%ADD022R,0.03543X0.03937*%
%ADD024R,0.04724X0.02165*%
%ADD033R,0.06299X0.14173*%
%ADD036C,0.01*%
%ADD070R,0.02638X0.06102*%
%ADD071R,0.03543X0.0315*%
%ADD072R,0.0315X0.03543*%
%ADD073R,0.07874X0.08661*%
%ADD074R,0.08661X0.07874*%
%ADD079R,0.18898X0.07874*%
%ADD080R,0.0748X0.20866*%
%ADD081R,0.03937X0.03543*%
%ADD082R,0.05512X0.05512*%
%ADD084R,0.09843X0.03071*%
%ADD085R,0.085X0.10799*%
%ADD086R,0.07874X0.21654*%
%ADD088R,0.07087X0.01181*%
%ADD089R,0.01181X0.07087*%
%ADD090R,0.11811X0.07874*%
%ADD115R,0.05X0.08*%
%ADD116R,0.08X0.08*%
%ADD117R,0.05906X0.07087*%
%ADD118O,0.07087X0.02362*%
*
*
*
*
G04 PC Circuitry*
G04 Layer Name Eswriter_MasterV2.05-Fi - circuitry*
%LPD*%
*
*
G04 PC Custom Flashes*
G04 Layer Name Eswriter_MasterV2.05-Fi - flashes*
%LPD*%
*
*
G04 PC Circuitry*
G04 Layer Name Eswriter_MasterV2.05-Fi - circuitry*
%LPD*%
*
G54D10*
G54D11*
G01X268936Y405091D03*
Y400092D03*
Y395095D03*
Y390097D03*
X289251Y390101D03*
X289250Y395095D03*
X289255Y400096D03*
X289254Y405097D03*
X342753Y123943D03*
Y118944D03*
Y113947D03*
Y108949D03*
X363068Y108953D03*
X363067Y113947D03*
X363072Y118948D03*
X363071Y123949D03*
X268936Y434391D03*
Y429392D03*
Y424395D03*
Y419397D03*
X289251Y419401D03*
X289250Y424395D03*
X289255Y429396D03*
X289254Y434397D03*
X373836Y435091D03*
Y430092D03*
Y425095D03*
Y420097D03*
X394151Y420101D03*
X394150Y425095D03*
X394155Y430096D03*
X394154Y435097D03*
X374336Y405191D03*
Y400192D03*
Y395195D03*
Y390197D03*
X394651Y390201D03*
X394650Y395195D03*
X394655Y400196D03*
X394654Y405197D03*
G54D12*
X142200Y516700D03*
Y525700D03*
X327248Y511365D03*
Y520365D03*
X405400Y388700D03*
Y397700D03*
X414400D03*
Y388700D03*
X425200Y397800D03*
Y388800D03*
X302000D03*
Y397800D03*
X237700Y397600D03*
Y388600D03*
X337900Y397900D03*
Y388900D03*
X249000Y397600D03*
Y388600D03*
X325600Y388800D03*
Y397800D03*
X361500Y397900D03*
Y388900D03*
X258100Y388600D03*
Y397600D03*
X228800Y388600D03*
Y397600D03*
X434200Y388800D03*
Y397800D03*
X309048Y511365D03*
Y520365D03*
G54D13*
X405900Y421000D03*
X414900D03*
X424700D03*
X433700D03*
X424700Y409300D03*
X433700D03*
X272083Y508848D03*
X281083D03*
X249500Y420900D03*
X258500D03*
X249500Y436300D03*
X258500D03*
X229300Y420900D03*
X238300D03*
X229300Y409200D03*
X238300D03*
X414900Y436900D03*
X405900D03*
G54D14*
X314892Y297264D03*
Y302264D03*
Y307264D03*
Y312264D03*
Y317264D03*
Y322264D03*
Y327264D03*
Y332264D03*
X292057D03*
Y327264D03*
Y322264D03*
Y317264D03*
Y312264D03*
Y307264D03*
Y302264D03*
Y297264D03*
G54D15*
X392200Y508961D03*
Y491639D03*
X154400Y508639D03*
Y525961D03*
X205035Y398364D03*
Y381042D03*
G54D20*
X319600Y473400D03*
X328700D03*
X337800D03*
X235200Y473000D03*
X244300D03*
X253400D03*
X276500Y473200D03*
X285600D03*
X294700D03*
X192700Y462100D03*
X201800D03*
X210900D03*
X138700Y460700D03*
X147800D03*
X156900D03*
G54D21*
X328700Y498400D03*
X244300Y498000D03*
X285600Y498200D03*
X201800Y487100D03*
X147800Y485700D03*
G54D22*
X370175Y373061D03*
X373915Y365211D03*
X366435D03*
X299572Y373424D03*
X303312Y365574D03*
X295832D03*
X272456Y147006D03*
X276196Y139156D03*
X268716D03*
X258056Y147006D03*
X261796Y139156D03*
X254316D03*
X243556Y147006D03*
X247296Y139156D03*
X239816D03*
X229156Y147006D03*
X232896Y139156D03*
X225416D03*
X163124Y312899D03*
X166864Y305049D03*
X159384D03*
X183524Y312899D03*
X187264Y305049D03*
X179784D03*
X203424Y312899D03*
X207164Y305049D03*
X199684D03*
X223791Y313129D03*
X227531Y305279D03*
X220051D03*
X244191Y313129D03*
X247931Y305279D03*
X240451D03*
X264091Y313129D03*
X267831Y305279D03*
X260351D03*
X174335Y400703D03*
X178075Y392853D03*
X170595D03*
X190335Y400703D03*
X194075Y392853D03*
X186595D03*
X363248Y312522D03*
X366988Y304672D03*
X359508D03*
G54D24*
X202594Y230320D03*
Y226580D03*
Y222840D03*
X213224D03*
Y226580D03*
Y230320D03*
X177194D03*
Y226580D03*
Y222840D03*
X187824D03*
Y226580D03*
Y230320D03*
X203416Y259350D03*
Y255610D03*
Y251870D03*
X214046D03*
Y255610D03*
Y259350D03*
X192685Y197766D03*
Y194026D03*
Y190286D03*
X203315D03*
Y194026D03*
Y197766D03*
X184916Y259350D03*
Y255610D03*
Y251870D03*
X195546D03*
Y255610D03*
Y259350D03*
X360470Y336786D03*
Y333046D03*
Y329306D03*
X371100D03*
Y333046D03*
Y336786D03*
G54D33*
X320900Y536111D03*
Y562489D03*
X212600Y534111D03*
Y560489D03*
X361200Y483689D03*
Y457311D03*
X313800Y437889D03*
Y411511D03*
X350600Y437989D03*
Y411611D03*
G54D36*
X115748Y100000D02*
X430709D01*
G75*
G03X446457Y115748I-0J15748D01*
G01Y556693*
G03X430709Y572441I-15748J-0*
G01X115748*
G03X100000Y556693I0J-15748*
G01Y115748*
G03X115748Y100000I15748J0*
G01X123622Y556693D02*
G03X123622I-7874J0D01*
G01X438583D02*
G03X438583I-7874J0D01*
G01X123622Y115748D02*
G03X123622I-7874J0D01*
G01X438583D02*
G03X438583I-7874J0D01*
G01X415945D02*
G03X415945I-4921J0D01*
G01Y560000D02*
G03X415945I-4921J0D01*
G54D70*
G01X414700Y473870D03*
X419700D03*
X424700D03*
X429700D03*
Y495130D03*
X424700D03*
X419700D03*
X414700D03*
G54D71*
X146543Y442200D03*
X139457D03*
X146543Y449800D03*
X139457D03*
X200543Y443600D03*
X193457D03*
X284343Y454700D03*
X277257D03*
X359543Y522500D03*
X352457D03*
X108457Y492900D03*
X115543D03*
X243043Y462100D03*
X235957D03*
X186767Y321599D03*
X179681D03*
X206667D03*
X199581D03*
X166367Y289299D03*
X159281D03*
X393543Y522500D03*
X386457D03*
X429657Y510100D03*
X436743D03*
X327443Y454900D03*
X320357D03*
X327443Y462500D03*
X320357D03*
X243043Y454500D03*
X235957D03*
X200543Y451200D03*
X193457D03*
X403557Y522500D03*
X410643D03*
X302915Y352024D03*
X295829D03*
X373518Y351661D03*
X366432D03*
X275999Y131206D03*
X268913D03*
X261599D03*
X254513D03*
X247099D03*
X240013D03*
X232699D03*
X225613D03*
X418457Y522500D03*
X425543D03*
X360043Y159900D03*
X352957D03*
X227034Y321829D03*
X219948D03*
X240348D03*
X247434D03*
X260248D03*
X267334D03*
X219948Y289529D03*
X227034D03*
X247434D03*
X240348D03*
X267334D03*
X260248D03*
X219948Y297629D03*
X227034D03*
X240348D03*
X247434D03*
X260248D03*
X267334D03*
X373874Y106452D03*
X380960D03*
X284343Y462300D03*
X277257D03*
X186767Y289299D03*
X179681D03*
X166367Y321599D03*
X159281D03*
X206667Y289299D03*
X199581D03*
X159281Y297399D03*
X166367D03*
X179681D03*
X186767D03*
X199581D03*
X206667D03*
X233648Y350029D03*
X240734D03*
X172981Y349799D03*
X180067D03*
X436343Y226200D03*
X429257D03*
X436343Y153500D03*
X429257D03*
X321557Y269000D03*
X328643D03*
X370557D03*
X377643D03*
X374343Y159900D03*
X367257D03*
X108457Y500300D03*
X115543D03*
X269557Y231200D03*
X276643D03*
X269557Y215700D03*
X276643D03*
X269557Y238800D03*
X276643D03*
X269557Y223700D03*
X276643D03*
X205957Y114200D03*
X213043D03*
X226557D03*
X233643D03*
X246457D03*
X253543D03*
X268657Y114300D03*
X275743D03*
X268657Y106700D03*
X275743D03*
X246457Y106600D03*
X253543D03*
X226557D03*
X233643D03*
X205957D03*
X213043D03*
X194278Y379903D03*
X187192D03*
X171192D03*
X178278D03*
X387274Y106452D03*
X394360D03*
X366791Y318822D03*
X359705D03*
X366791Y296922D03*
X359705D03*
X218943Y186626D03*
X211857D03*
Y201526D03*
X218943D03*
X177057D03*
X184143D03*
Y186626D03*
X177057D03*
Y194026D03*
X184143D03*
X218943D03*
X211857D03*
G54D72*
X253400Y461043D03*
Y453957D03*
X156900Y448743D03*
Y441657D03*
X404500Y538543D03*
Y531457D03*
X210900Y450143D03*
Y443057D03*
X164894Y415357D03*
Y422443D03*
X172493Y415357D03*
Y422443D03*
X205924Y333756D03*
Y340842D03*
X157000Y415357D03*
Y422443D03*
X414500Y457257D03*
Y464343D03*
X422700D03*
Y457257D03*
X438800D03*
Y464343D03*
X439400Y496143D03*
Y489057D03*
Y472657D03*
Y479743D03*
X358075Y351118D03*
Y358204D03*
X287472Y351481D03*
Y358567D03*
X220491Y333986D03*
Y341072D03*
X266591Y333986D03*
Y341072D03*
X194308Y150614D03*
Y157700D03*
X177608Y150614D03*
Y157700D03*
X159824Y333756D03*
Y340842D03*
X197424Y333756D03*
Y340842D03*
X258091Y333986D03*
Y341072D03*
X417784Y350547D03*
Y343461D03*
X409984D03*
Y350547D03*
Y331747D03*
Y324661D03*
X417784D03*
Y331747D03*
X188724Y333756D03*
Y340842D03*
X249391Y333986D03*
Y341072D03*
X409400Y180943D03*
Y173857D03*
X294400Y192557D03*
Y199643D03*
X186008Y157700D03*
Y150614D03*
X405200Y488957D03*
Y496043D03*
X430700Y464343D03*
Y457257D03*
X364300Y503557D03*
Y510643D03*
X294700Y461243D03*
Y454157D03*
X161835Y392960D03*
Y400046D03*
Y386446D03*
Y379360D03*
X358075Y365318D03*
Y372404D03*
X287472Y365681D03*
Y372767D03*
X409500Y256143D03*
Y249057D03*
X402284Y343461D03*
Y350547D03*
Y324661D03*
Y331747D03*
X176731Y257953D03*
Y250867D03*
X402000Y220343D03*
Y213257D03*
Y234843D03*
Y227757D03*
X220609Y228923D03*
Y221837D03*
X195209D03*
Y228923D03*
X374848Y303465D03*
Y296379D03*
X221331Y257953D03*
Y250867D03*
X337600Y461443D03*
Y454357D03*
X229531Y257953D03*
Y250867D03*
X409500Y234843D03*
Y227757D03*
X409400Y220343D03*
Y213257D03*
X168431Y257953D03*
Y250867D03*
G54D73*
X192400Y512107D03*
Y525493D03*
X264800Y473807D03*
Y487193D03*
X223500Y473607D03*
Y486993D03*
X307900Y474007D03*
Y487393D03*
X376800Y495307D03*
Y508693D03*
G54D74*
X127993Y482000D03*
X114607D03*
X272190Y520448D03*
X285576D03*
X181993Y483400D03*
X168607D03*
X419893Y507500D03*
X406507D03*
G54D79*
X173000Y525788D03*
Y511812D03*
G54D80*
X386200Y468500D03*
X399586D03*
G54D81*
X420300Y535000D03*
X412450Y531260D03*
Y538740D03*
X180924Y337599D03*
X173074Y333859D03*
Y341339D03*
X241591Y337229D03*
X233741Y333489D03*
Y340969D03*
G54D82*
X166661Y450240D03*
Y442366D03*
X113145Y449491D03*
Y441617D03*
G54D84*
X138216Y154157D03*
Y149157D03*
Y144157D03*
Y139157D03*
X164200D03*
Y144157D03*
Y149157D03*
Y154157D03*
G54D85*
X242300Y556950D03*
Y537250D03*
G54D86*
X432000Y172499D03*
Y209901D03*
G54D88*
X380000Y193700D03*
Y195669D03*
Y197637D03*
Y199606D03*
Y201574D03*
Y203543D03*
Y205511D03*
Y207480D03*
Y209448D03*
Y211417D03*
Y213385D03*
Y215354D03*
Y217322D03*
Y219291D03*
Y221259D03*
Y223228D03*
Y225196D03*
Y227165D03*
Y229133D03*
Y231102D03*
Y233070D03*
Y235039D03*
Y237007D03*
Y238976D03*
Y240944D03*
X316614D03*
Y238976D03*
Y237007D03*
Y235039D03*
Y233070D03*
Y231102D03*
Y229133D03*
Y227165D03*
Y225196D03*
Y223228D03*
Y221259D03*
Y219291D03*
Y217322D03*
Y215354D03*
Y213385D03*
Y211417D03*
Y209448D03*
Y207480D03*
Y205511D03*
Y203543D03*
Y201574D03*
Y199606D03*
Y197637D03*
Y195669D03*
Y193700D03*
G54D89*
X371929Y249015D03*
X369961D03*
X367992D03*
X366024D03*
X364055D03*
X362087D03*
X360118D03*
X358150D03*
X356181D03*
X354213D03*
X352244D03*
X350276D03*
X348307D03*
X346339D03*
X344370D03*
X342402D03*
X340433D03*
X338465D03*
X336496D03*
X334528D03*
X332559D03*
X330591D03*
X328622D03*
X326654D03*
X324685D03*
Y185629D03*
X326654D03*
X328622D03*
X330591D03*
X332559D03*
X334528D03*
X336496D03*
X338465D03*
X340433D03*
X342402D03*
X344370D03*
X346339D03*
X348307D03*
X350276D03*
X352244D03*
X354213D03*
X356181D03*
X358150D03*
X360118D03*
X362087D03*
X364055D03*
X366024D03*
X367992D03*
X369961D03*
X371929D03*
G54D90*
X269173Y553306D03*
X290827D03*
Y541494D03*
X269173D03*
G54D115*
X124100Y459300D03*
X114100D03*
X178100Y460700D03*
X168100D03*
X388517Y116452D03*
X378517D03*
G54D116*
X119100Y470700D03*
X173100Y472100D03*
X383517Y127852D03*
G54D117*
X179448Y446303D03*
X125932Y445554D03*
G54D118*
X330012Y330022D03*
Y325022D03*
Y320022D03*
Y315022D03*
Y310022D03*
Y305022D03*
Y300022D03*
Y295022D03*
X350484D03*
Y300022D03*
Y305022D03*
Y310022D03*
Y315022D03*
Y320022D03*
Y325022D03*
Y330022D03*
G74*
X0Y0D02*
M02*
