*
*
G04 PADS 9.5 Build Number: 522968 generated Gerber (RS-274-X) file*
G04 PC Version=2.1*
*
%IN "Eswriter_MasterV2.05-Fi"*%
*
%MOIN*%
*
%FSLAX35Y35*%
*
*
*
*
G04 PC Standard Apertures*
*
*
G04 Thermal Relief Aperture macro.*
%AMTER*
1,1,$1,0,0*
1,0,$1-$2,0,0*
21,0,$3,$4,0,0,45*
21,0,$3,$4,0,0,135*
%
*
*
G04 Annular Aperture macro.*
%AMANN*
1,1,$1,0,0*
1,0,$2,0,0*
%
*
*
G04 Odd Aperture macro.*
%AMODD*
1,1,$1,0,0*
1,0,$1-0.005,0,0*
%
*
*
G04 PC Custom Aperture Macros*
*
*
*
*
*
*
G04 PC Aperture Table*
*
%ADD010C,0.001*%
%ADD036C,0.01*%
%ADD040C,0.00787*%
*
*
*
*
G04 PC Circuitry*
G04 Layer Name Eswriter_MasterV2.05-Fi - circuitry*
%LPD*%
*
*
G04 PC Custom Flashes*
G04 Layer Name Eswriter_MasterV2.05-Fi - flashes*
%LPD*%
*
*
G04 PC Circuitry*
G04 Layer Name Eswriter_MasterV2.05-Fi - circuitry*
%LPD*%
*
G54D10*
G54D36*
G01X423000Y258781D02*
Y255500D01*
Y258781D02*
X421977D01*
X421636Y258625*
X421523Y258469*
X421409Y258156*
Y257844*
X421523Y257531*
X421636Y257375*
X421977Y257219*
X423000*
X422205D02*
X421409Y255500D01*
X419818Y258781D02*
X420159Y258625D01*
X420273Y258313*
X420273D02*
Y258000D01*
X420159Y257688*
X420159D02*
X419932Y257531D01*
X419477Y257375*
X419136Y257219*
X418909Y256906*
X418795Y256594*
Y256125*
X418909Y255813*
X418909D02*
X419023Y255656D01*
X419364Y255500*
X419818*
X420159Y255656*
X420273Y255813*
X420273D02*
X420386Y256125D01*
Y256594*
X420273Y256906*
X420045Y257219*
X419705Y257375*
X419250Y257531*
X419023Y257688*
X419023D02*
X418909Y258000D01*
Y258313*
X418909D02*
X419023Y258625D01*
X419364Y258781*
X419818*
X416409Y258313D02*
X416523Y258625D01*
X416864Y258781*
X417091*
X417432Y258625*
X417659Y258156*
X417773Y257375*
Y256594*
X417659Y255969*
X417432Y255656*
X417091Y255500*
X416977*
X416636Y255656*
X416409Y255969*
X416295Y256438*
X416295D02*
Y256594D01*
X416409Y257063*
X416409D02*
X416636Y257375D01*
X416977Y257531*
X417091*
X417432Y257375*
X417659Y257063*
X417659D02*
X417773Y256594D01*
X423000Y269281D02*
Y266000D01*
Y269281D02*
X421977D01*
X421636Y269125*
X421523Y268969*
X421409Y268656*
Y268344*
X421523Y268031*
X421636Y267875*
X421977Y267719*
X423000*
X422205D02*
X421409Y266000D01*
X419818Y269281D02*
X420159Y269125D01*
X420273Y268813*
X420273D02*
Y268500D01*
X420159Y268188*
X420159D02*
X419932Y268031D01*
X419477Y267875*
X419136Y267719*
X418909Y267406*
X418795Y267094*
Y266625*
X418909Y266313*
X418909D02*
X419023Y266156D01*
X419364Y266000*
X419818*
X420159Y266156*
X420273Y266313*
X420273D02*
X420386Y266625D01*
Y267094*
X420273Y267406*
X420045Y267719*
X419705Y267875*
X419250Y268031*
X419023Y268188*
X419023D02*
X418909Y268500D01*
Y268813*
X418909D02*
X419023Y269125D01*
X419364Y269281*
X419818*
X416295D02*
X417432D01*
X417545Y267875*
X417432Y268031*
X417091Y268188*
X417091D02*
X416750D01*
X416750D02*
X416409Y268031D01*
X416182Y267719*
X416068Y267250*
X416182Y266938*
X416182D02*
X416295Y266469D01*
X416523Y266156*
X416864Y266000*
X417205*
X417545Y266156*
X417659Y266313*
X417659D02*
X417773Y266625D01*
X423000Y278781D02*
Y275500D01*
Y278781D02*
X421977D01*
X421636Y278625*
X421523Y278469*
X421409Y278156*
Y277844*
X421523Y277531*
X421636Y277375*
X421977Y277219*
X423000*
X422205D02*
X421409Y275500D01*
X419818Y278781D02*
X420159Y278625D01*
X420273Y278313*
X420273D02*
Y278000D01*
X420159Y277688*
X420159D02*
X419932Y277531D01*
X419477Y277375*
X419136Y277219*
X418909Y276906*
X418795Y276594*
Y276125*
X418909Y275813*
X418909D02*
X419023Y275656D01*
X419364Y275500*
X419818*
X420159Y275656*
X420273Y275813*
X420273D02*
X420386Y276125D01*
Y276594*
X420273Y276906*
X420045Y277219*
X419705Y277375*
X419250Y277531*
X419023Y277688*
X419023D02*
X418909Y278000D01*
Y278313*
X418909D02*
X419023Y278625D01*
X419364Y278781*
X419818*
X417545D02*
X416295D01*
X416977Y277531*
X416636*
X416409Y277375*
X416295Y277219*
X416182Y276750*
Y276438*
X416182D02*
X416295Y275969D01*
X416523Y275656*
X416864Y275500*
X417205*
X417545Y275656*
X417659Y275813*
X417659D02*
X417773Y276125D01*
X423000Y289281D02*
Y286000D01*
Y289281D02*
X421977D01*
X421636Y289125*
X421523Y288969*
X421409Y288656*
Y288344*
X421523Y288031*
X421636Y287875*
X421977Y287719*
X423000*
X422205D02*
X421409Y286000D01*
X419818Y289281D02*
X420159Y289125D01*
X420273Y288813*
X420273D02*
Y288500D01*
X420159Y288188*
X420159D02*
X419932Y288031D01*
X419477Y287875*
X419136Y287719*
X418909Y287406*
X418795Y287094*
Y286625*
X418909Y286313*
X418909D02*
X419023Y286156D01*
X419364Y286000*
X419818*
X420159Y286156*
X420273Y286313*
X420273D02*
X420386Y286625D01*
Y287094*
X420273Y287406*
X420045Y287719*
X419705Y287875*
X419250Y288031*
X419023Y288188*
X419023D02*
X418909Y288500D01*
Y288813*
X418909D02*
X419023Y289125D01*
X419364Y289281*
X419818*
X416636D02*
X417773Y287094D01*
X416068*
X416636Y289281D02*
Y286000D01*
X423000Y309281D02*
Y306000D01*
Y309281D02*
X421977D01*
X421636Y309125*
X421523Y308969*
X421409Y308656*
Y308344*
X421523Y308031*
X421636Y307875*
X421977Y307719*
X423000*
X422205D02*
X421409Y306000D01*
X419818Y309281D02*
X420159Y309125D01*
X420273Y308813*
X420273D02*
Y308500D01*
X420159Y308188*
X420159D02*
X419932Y308031D01*
X419477Y307875*
X419136Y307719*
X418909Y307406*
X418795Y307094*
Y306625*
X418909Y306313*
X418909D02*
X419023Y306156D01*
X419364Y306000*
X419818*
X420159Y306156*
X420273Y306313*
X420273D02*
X420386Y306625D01*
Y307094*
X420273Y307406*
X420045Y307719*
X419705Y307875*
X419250Y308031*
X419023Y308188*
X419023D02*
X418909Y308500D01*
Y308813*
X418909D02*
X419023Y309125D01*
X419364Y309281*
X419818*
X417659Y308500D02*
Y308656D01*
X417545Y308969*
X417432Y309125*
X417205Y309281*
X416750*
X416523Y309125*
X416409Y308969*
X416295Y308656*
Y308344*
X416409Y308031*
X416636Y307563*
X416636D02*
X417773Y306000D01*
X416182*
X423000Y318781D02*
Y315500D01*
Y318781D02*
X421977D01*
X421636Y318625*
X421523Y318469*
X421409Y318156*
Y317844*
X421523Y317531*
X421636Y317375*
X421977Y317219*
X423000*
X422205D02*
X421409Y315500D01*
X419818Y318781D02*
X420159Y318625D01*
X420273Y318313*
X420273D02*
Y318000D01*
X420159Y317688*
X420159D02*
X419932Y317531D01*
X419477Y317375*
X419136Y317219*
X418909Y316906*
X418795Y316594*
Y316125*
X418909Y315813*
X418909D02*
X419023Y315656D01*
X419364Y315500*
X419818*
X420159Y315656*
X420273Y315813*
X420273D02*
X420386Y316125D01*
Y316594*
X420273Y316906*
X420045Y317219*
X419705Y317375*
X419250Y317531*
X419023Y317688*
X419023D02*
X418909Y318000D01*
Y318313*
X418909D02*
X419023Y318625D01*
X419364Y318781*
X419818*
X417091D02*
X417432Y318625D01*
X417659Y318156*
X417773Y317375*
Y316906*
X417659Y316125*
X417432Y315656*
X417091Y315500*
X416864*
X416523Y315656*
X416295Y316125*
X416182Y316906*
Y317375*
X416295Y318156*
X416523Y318625*
X416864Y318781*
X417091*
X423000Y328781D02*
Y325500D01*
Y328781D02*
X421977D01*
X421636Y328625*
X421523Y328469*
X421409Y328156*
Y327844*
X421523Y327531*
X421636Y327375*
X421977Y327219*
X423000*
X422205D02*
X421409Y325500D01*
X418795Y328781D02*
X419932Y325500D01*
X420386Y328781D02*
X418795D01*
X416295Y327688D02*
X416409Y327219D01*
X416636Y326906*
X416977Y326750*
X417091*
X417432Y326906*
X417659Y327219*
X417773Y327688*
X417773D02*
Y327844D01*
X417659Y328313*
X417659D02*
X417432Y328625D01*
X417091Y328781*
X416977*
X416636Y328625*
X416409Y328313*
X416409D02*
X416295Y327688D01*
X416295D02*
Y326906D01*
X416409Y326125*
X416636Y325656*
X416977Y325500*
X417205*
X417545Y325656*
X417659Y325969*
X423000Y299281D02*
Y296000D01*
Y299281D02*
X421977D01*
X421636Y299125*
X421523Y298969*
X421409Y298656*
Y298344*
X421523Y298031*
X421636Y297875*
X421977Y297719*
X423000*
X422205D02*
X421409Y296000D01*
X419818Y299281D02*
X420159Y299125D01*
X420273Y298813*
X420273D02*
Y298500D01*
X420159Y298188*
X420159D02*
X419932Y298031D01*
X419477Y297875*
X419136Y297719*
X418909Y297406*
X418795Y297094*
Y296625*
X418909Y296313*
X418909D02*
X419023Y296156D01*
X419364Y296000*
X419818*
X420159Y296156*
X420273Y296313*
X420273D02*
X420386Y296625D01*
Y297094*
X420273Y297406*
X420045Y297719*
X419705Y297875*
X419250Y298031*
X419023Y298188*
X419023D02*
X418909Y298500D01*
Y298813*
X418909D02*
X419023Y299125D01*
X419364Y299281*
X419818*
X417773Y298656D02*
X417545Y298813D01*
X417545D02*
X417205Y299281D01*
Y296000*
X414500Y258781D02*
Y255500D01*
Y258781D02*
X413477D01*
X413136Y258625*
X413023Y258469*
X412909Y258156*
Y257688*
X412909D02*
X413023Y257375D01*
X413136Y257219*
X413477Y257063*
X413477D02*
X414500D01*
X411886Y258781D02*
Y255500D01*
Y258781D02*
X410409D01*
X411886Y257219D02*
X410977D01*
X411886Y255500D02*
X410409D01*
X409273Y258000D02*
Y258156D01*
X409159Y258469*
X409045Y258625*
X408818Y258781*
X408364*
X408136Y258625*
X408023Y258469*
X407909Y258156*
Y257844*
X408023Y257531*
X408250Y257063*
X408250D02*
X409386Y255500D01*
X407795*
X414500Y269281D02*
Y266000D01*
Y269281D02*
X413477D01*
X413136Y269125*
X413023Y268969*
X412909Y268656*
Y268188*
X412909D02*
X413023Y267875D01*
X413136Y267719*
X413477Y267563*
X413477D02*
X414500D01*
X411886Y269281D02*
Y266000D01*
Y269281D02*
X410409D01*
X411886Y267719D02*
X410977D01*
X411886Y266000D02*
X410409D01*
X409159Y269281D02*
X407909D01*
X408591Y268031*
X408250*
X408023Y267875*
X407909Y267719*
X407795Y267250*
Y266938*
X407795D02*
X407909Y266469D01*
X408136Y266156*
X408477Y266000*
X408818*
X409159Y266156*
X409273Y266313*
X409273D02*
X409386Y266625D01*
X414500Y278781D02*
Y275500D01*
Y278781D02*
X413477D01*
X413136Y278625*
X413023Y278469*
X412909Y278156*
Y277688*
X412909D02*
X413023Y277375D01*
X413136Y277219*
X413477Y277063*
X413477D02*
X414500D01*
X411886Y278781D02*
Y275500D01*
Y278781D02*
X410409D01*
X411886Y277219D02*
X410977D01*
X411886Y275500D02*
X410409D01*
X408250Y278781D02*
X409386Y276594D01*
X407682*
X408250Y278781D02*
Y275500D01*
X414500Y289281D02*
Y286000D01*
Y289281D02*
X413477D01*
X413136Y289125*
X413023Y288969*
X412909Y288656*
Y288188*
X412909D02*
X413023Y287875D01*
X413136Y287719*
X413477Y287563*
X413477D02*
X414500D01*
X411886Y289281D02*
Y286000D01*
Y289281D02*
X410409D01*
X411886Y287719D02*
X410977D01*
X411886Y286000D02*
X410409D01*
X407909Y289281D02*
X409045D01*
X409159Y287875*
X409045Y288031*
X408705Y288188*
X408705D02*
X408364D01*
X408364D02*
X408023Y288031D01*
X407795Y287719*
X407682Y287250*
X407795Y286938*
X407795D02*
X407909Y286469D01*
X408136Y286156*
X408477Y286000*
X408818*
X409159Y286156*
X409273Y286313*
X409273D02*
X409386Y286625D01*
X414500Y299281D02*
Y296000D01*
Y299281D02*
X413477D01*
X413136Y299125*
X413023Y298969*
X412909Y298656*
Y298188*
X412909D02*
X413023Y297875D01*
X413136Y297719*
X413477Y297563*
X413477D02*
X414500D01*
X411886Y299281D02*
Y296000D01*
Y299281D02*
X410409D01*
X411886Y297719D02*
X410977D01*
X411886Y296000D02*
X410409D01*
X408023Y298813D02*
X408136Y299125D01*
X408477Y299281*
X408705*
X409045Y299125*
X409273Y298656*
X409386Y297875*
Y297094*
X409273Y296469*
X409045Y296156*
X408705Y296000*
X408591*
X408250Y296156*
X408023Y296469*
X407909Y296938*
X407909D02*
Y297094D01*
X408023Y297563*
X408023D02*
X408250Y297875D01*
X408591Y298031*
X408705*
X409045Y297875*
X409273Y297563*
X409273D02*
X409386Y297094D01*
X414500Y309281D02*
Y306000D01*
Y309281D02*
X413477D01*
X413136Y309125*
X413023Y308969*
X412909Y308656*
Y308188*
X412909D02*
X413023Y307875D01*
X413136Y307719*
X413477Y307563*
X413477D02*
X414500D01*
X410182Y308500D02*
X410295Y308813D01*
X410295D02*
X410523Y309125D01*
X410750Y309281*
X411205*
X411432Y309125*
X411659Y308813*
X411659D02*
X411773Y308500D01*
X411886Y308031*
Y307250*
X411773Y306781*
X411659Y306469*
X411432Y306156*
X411205Y306000*
X410750*
X410523Y306156*
X410295Y306469*
X410182Y306781*
X409159Y308656D02*
X408932Y308813D01*
X408932D02*
X408591Y309281D01*
Y306000*
X407341Y309281D02*
X406091D01*
X406773Y308031*
X406432*
X406205Y307875*
X406091Y307719*
X405977Y307250*
Y306938*
X405977D02*
X406091Y306469D01*
X406318Y306156*
X406659Y306000*
X407000*
X407341Y306156*
X407455Y306313*
X407455D02*
X407568Y306625D01*
X414500Y318781D02*
Y315500D01*
Y318781D02*
X413477D01*
X413136Y318625*
X413023Y318469*
X412909Y318156*
Y317688*
X412909D02*
X413023Y317375D01*
X413136Y317219*
X413477Y317063*
X413477D02*
X414500D01*
X410182Y318000D02*
X410295Y318313D01*
X410295D02*
X410523Y318625D01*
X410750Y318781*
X411205*
X411432Y318625*
X411659Y318313*
X411659D02*
X411773Y318000D01*
X411886Y317531*
Y316750*
X411773Y316281*
X411659Y315969*
X411432Y315656*
X411205Y315500*
X410750*
X410523Y315656*
X410295Y315969*
X410182Y316281*
X409159Y318156D02*
X408932Y318313D01*
X408932D02*
X408591Y318781D01*
Y315500*
X406432Y318781D02*
X407568Y316594D01*
X405864*
X406432Y318781D02*
Y315500D01*
X414500Y328781D02*
Y325500D01*
Y328781D02*
X413477D01*
X413136Y328625*
X413023Y328469*
X412909Y328156*
Y327688*
X412909D02*
X413023Y327375D01*
X413136Y327219*
X413477Y327063*
X413477D02*
X414500D01*
X410182Y328000D02*
X410295Y328313D01*
X410295D02*
X410523Y328625D01*
X410750Y328781*
X411205*
X411432Y328625*
X411659Y328313*
X411659D02*
X411773Y328000D01*
X411886Y327531*
Y326750*
X411773Y326281*
X411659Y325969*
X411432Y325656*
X411205Y325500*
X410750*
X410523Y325656*
X410295Y325969*
X410182Y326281*
X409159Y328156D02*
X408932Y328313D01*
X408932D02*
X408591Y328781D01*
Y325500*
X406091Y328781D02*
X407227D01*
X407341Y327375*
X407227Y327531*
X406886Y327688*
X406886D02*
X406545D01*
X406545D02*
X406205Y327531D01*
X405977Y327219*
X405864Y326750*
X405977Y326438*
X405977D02*
X406091Y325969D01*
X406318Y325656*
X406659Y325500*
X407000*
X407341Y325656*
X407455Y325813*
X407455D02*
X407568Y326125D01*
X115748Y100000D02*
X430709D01*
G75*
G03X446457Y115748I-0J15748D01*
G01Y556693*
G03X430709Y572441I-15748J-0*
G01X115748*
G03X100000Y556693I0J-15748*
G01Y115748*
G03X115748Y100000I15748J0*
G01X123622Y556693D02*
G03X123622I-7874J0D01*
G01X438583D02*
G03X438583I-7874J0D01*
G01X123622Y115748D02*
G03X123622I-7874J0D01*
G01X438583D02*
G03X438583I-7874J0D01*
G01X415945D02*
G03X415945I-4921J0D01*
G01Y560000D02*
G03X415945I-4921J0D01*
G54D40*
G01X434400Y261900D02*
X442400D01*
Y252900*
X434400*
X431400Y261900D02*
X423400D01*
Y252900*
X431400*
X434400Y271900D02*
X442400D01*
Y262900*
X434400*
X431400Y271900D02*
X423400D01*
Y262900*
X431400*
X434400Y281900D02*
X442400D01*
Y272900*
X434400*
X431400Y281900D02*
X423400D01*
Y272900*
X431400*
X434400Y291900D02*
X442400D01*
Y282900*
X434400*
X431400Y291900D02*
X423400D01*
Y282900*
X431400*
X434400Y311900D02*
X442400D01*
Y302900*
X434400*
X431400Y311900D02*
X423400D01*
Y302900*
X431400*
X434400Y321900D02*
X442400D01*
Y312900*
X434400*
X431400Y321900D02*
X423400D01*
Y312900*
X431400*
X434400Y331900D02*
X442400D01*
Y322900*
X434400*
X431400Y331900D02*
X423400D01*
Y322900*
X431400*
X434400Y301900D02*
X442400D01*
Y292900*
X434400*
X431400Y301900D02*
X423400D01*
Y292900*
X431400*
G74*
X0Y0D02*
M02*
