*
*
G04 PADS 9.5 Build Number: 522968 generated Gerber (RS-274-X) file*
G04 PC Version=2.1*
*
%IN "Eswriter_MasterV2.05-Fi"*%
*
%MOIN*%
*
%FSLAX35Y35*%
*
*
*
*
G04 PC Standard Apertures*
*
*
G04 Thermal Relief Aperture macro.*
%AMTER*
1,1,$1,0,0*
1,0,$1-$2,0,0*
21,0,$3,$4,0,0,45*
21,0,$3,$4,0,0,135*
%
*
*
G04 Annular Aperture macro.*
%AMANN*
1,1,$1,0,0*
1,0,$2,0,0*
%
*
*
G04 Odd Aperture macro.*
%AMODD*
1,1,$1,0,0*
1,0,$1-0.005,0,0*
%
*
*
G04 PC Custom Aperture Macros*
*
*
*
*
*
*
G04 PC Aperture Table*
*
%ADD010C,0.001*%
%ADD036C,0.01*%
%ADD039C,0.00787*%
%ADD040C,0.00787*%
%ADD095C,0.005*%
%ADD126C,0.01575*%
%ADD127C,0.01181*%
*
*
*
*
G04 PC Circuitry*
G04 Layer Name Eswriter_MasterV2.05-Fi - circuitry*
%LPD*%
*
*
G04 PC Custom Flashes*
G04 Layer Name Eswriter_MasterV2.05-Fi - flashes*
%LPD*%
*
*
G04 PC Circuitry*
G04 Layer Name Eswriter_MasterV2.05-Fi - circuitry*
%LPD*%
*
G54D10*
G54D36*
G01X173339Y594185D02*
X143839D01*
X143939Y594085D02*
X143839Y533785D01*
X173339Y594185D02*
X192839D01*
Y533785D02*
Y594185D01*
Y533485D02*
X144039D01*
X109600Y472950D02*
Y457450D01*
X128600*
Y472950*
X109600*
X386294Y500300D02*
Y513686D01*
X398106*
Y500300*
X386294D02*
Y486914D01*
X398106*
Y500300*
X160306Y517300D02*
Y503914D01*
X148494*
Y517300*
X160306D02*
Y530686D01*
X148494*
Y517300*
X316200Y479400D02*
Y492400D01*
X341200*
Y479400*
X316200*
X231800Y479000D02*
Y492000D01*
X256800*
Y479000*
X231800*
X273100Y479200D02*
Y492200D01*
X298100*
Y479200*
X273100*
X189300Y468100D02*
Y481100D01*
X214300*
Y468100*
X189300*
X118300Y536100D02*
X88600D01*
X118300Y508600D02*
X88600D01*
Y536100*
X118300D02*
Y508600D01*
X199129Y389703D02*
Y403089D01*
X210941*
Y389703*
X199129D02*
Y376317D01*
X210941*
Y389703*
X261963Y558481D02*
X298531D01*
Y535729*
X261963*
Y558481*
X135300Y466700D02*
Y479700D01*
X160300*
Y466700*
X135300*
X163600Y474350D02*
Y458850D01*
X182600*
Y474350*
X163600*
X374017Y130102D02*
Y114602D01*
X393017*
Y130102*
X374017*
X334736Y292935D02*
X345760D01*
Y332109*
X334736*
Y292935*
X139247Y533952D02*
X139133Y534265D01*
X139133D02*
X138906Y534577D01*
X138678Y534733*
X138224*
X137997Y534577*
X137769Y534265*
X137769D02*
X137656Y533952D01*
X137542Y533483*
Y532702*
X137656Y532233*
X137769Y531921*
X137997Y531608*
X138224Y531452*
X138678*
X138906Y531608*
X139133Y531921*
X139247Y532233*
X141633Y534265D02*
X141519Y534577D01*
X141178Y534733*
X140951*
X140610Y534577*
X140383Y534108*
X140269Y533327*
Y532546*
X140383Y531921*
X140610Y531608*
X140951Y531452*
X141065*
X141406Y531608*
X141633Y531921*
X141747Y532390*
X141747D02*
Y532546D01*
X141633Y533015*
X141633D02*
X141406Y533327D01*
X141065Y533483*
X140951*
X140610Y533327*
X140383Y533015*
X140383D02*
X140269Y532546D01*
X306345Y568944D02*
X306231Y569256D01*
X306231D02*
X306004Y569569D01*
X305776Y569725*
X305322*
X305095Y569569*
X304867Y569256*
X304867D02*
X304754Y568944D01*
X304640Y568475*
Y567694*
X304754Y567225*
X304867Y566913*
X305095Y566600*
X305322Y566444*
X305776*
X306004Y566600*
X306231Y566913*
X306345Y567225*
X307595Y569725D02*
X308845D01*
X308163Y568475*
X308504*
X308731Y568319*
X308845Y568163*
X308958Y567694*
Y567381*
X308958D02*
X308845Y566913D01*
X308617Y566600*
X308276Y566444*
X307935*
X307595Y566600*
X307481Y566756*
X307481D02*
X307367Y567069D01*
X162199Y505580D02*
Y502299D01*
Y505580D02*
X163676D01*
X162199Y504018D02*
X163108D01*
X164699Y504955D02*
X164926Y505112D01*
X164926D02*
X165267Y505580D01*
Y502299*
X135666Y571308D02*
Y568027D01*
Y571308D02*
X136689D01*
X137030Y571152*
X137143Y570996*
X137257Y570683*
Y570214*
X137257D02*
X137143Y569902D01*
X137030Y569746*
X136689Y569589*
X136689D02*
X135666D01*
X138280Y571308D02*
X138848Y568027D01*
X139416Y571308D02*
X138848Y568027D01*
X139416Y571308D02*
X139984Y568027D01*
X140552Y571308D02*
X139984Y568027D01*
X141575Y570683D02*
X141802Y570839D01*
X141802D02*
X142143Y571308D01*
Y568027*
X232675Y567956D02*
Y564675D01*
Y567956D02*
X233470D01*
X233811Y567800*
X234039Y567487*
X234039D02*
X234152Y567175D01*
X234266Y566706*
Y565925*
X234152Y565456*
X234039Y565144*
X233811Y564831*
X233470Y564675*
X232675*
X235289Y567331D02*
X235516Y567487D01*
X235516D02*
X235857Y567956D01*
Y564675*
X187365Y505637D02*
X187251Y505950D01*
X187251D02*
X187024Y506262D01*
X186796Y506418*
X186342*
X186115Y506262*
X185887Y505950*
X185887D02*
X185774Y505637D01*
X185660Y505168*
Y504387*
X185774Y503918*
X185887Y503606*
X186115Y503293*
X186342Y503137*
X186796*
X187024Y503293*
X187251Y503606*
X187365Y503918*
X189978Y506418D02*
X188842Y503137D01*
X188387Y506418D02*
X189978D01*
X251705Y449500D02*
X251591Y449813D01*
X251591D02*
X251364Y450125D01*
X251136Y450281*
X250682*
X250455Y450125*
X250227Y449813*
X250227D02*
X250114Y449500D01*
X250000Y449031*
Y448250*
X250114Y447781*
X250227Y447469*
X250455Y447156*
X250682Y447000*
X251136*
X251364Y447156*
X251591Y447469*
X251705Y447781*
X252727Y449656D02*
X252955Y449813D01*
X252955D02*
X253295Y450281D01*
Y447000*
X254886Y450281D02*
X254545Y450125D01*
X254432Y449813*
X254432D02*
Y449500D01*
X254545Y449188*
X254545D02*
X254773Y449031D01*
X255227Y448875*
X255568Y448719*
X255795Y448406*
X255909Y448094*
Y447625*
X255795Y447313*
X255795D02*
X255682Y447156D01*
X255341Y447000*
X254886*
X254545Y447156*
X254432Y447313*
X254432D02*
X254318Y447625D01*
Y448094*
X254432Y448406*
X254659Y448719*
X255000Y448875*
X255455Y449031*
X255682Y449188*
X255682D02*
X255795Y449500D01*
Y449813*
X255795D02*
X255682Y450125D01*
X255341Y450281*
X254886*
X260705Y495500D02*
X260591Y495813D01*
X260591D02*
X260364Y496125D01*
X260136Y496281*
X259682*
X259455Y496125*
X259227Y495813*
X259227D02*
X259114Y495500D01*
X259000Y495031*
Y494250*
X259114Y493781*
X259227Y493469*
X259455Y493156*
X259682Y493000*
X260136*
X260364Y493156*
X260591Y493469*
X260705Y493781*
X261727Y495656D02*
X261955Y495813D01*
X261955D02*
X262295Y496281D01*
Y493000*
X264795Y496281D02*
X263659D01*
X263545Y494875*
X263659Y495031*
X264000Y495188*
X264000D02*
X264341D01*
X264341D02*
X264682Y495031D01*
X264909Y494719*
X265023Y494250*
X264909Y493938*
X264909D02*
X264795Y493469D01*
X264568Y493156*
X264227Y493000*
X263886*
X263545Y493156*
X263432Y493313*
X263432D02*
X263318Y493625D01*
X222205Y495500D02*
X222091Y495813D01*
X222091D02*
X221864Y496125D01*
X221636Y496281*
X221182*
X220955Y496125*
X220727Y495813*
X220727D02*
X220614Y495500D01*
X220500Y495031*
Y494250*
X220614Y493781*
X220727Y493469*
X220955Y493156*
X221182Y493000*
X221636*
X221864Y493156*
X222091Y493469*
X222205Y493781*
X223227Y495656D02*
X223455Y495813D01*
X223455D02*
X223795Y496281D01*
Y493000*
X225045Y496281D02*
X226295D01*
X225614Y495031*
X225955*
X226182Y494875*
X226295Y494719*
X226409Y494250*
Y493938*
X226409D02*
X226295Y493469D01*
X226068Y493156*
X225727Y493000*
X225386*
X225045Y493156*
X224932Y493313*
X224932D02*
X224818Y493625D01*
X327542Y529134D02*
Y525853D01*
Y529134D02*
X328565D01*
X328906Y528978*
X329019Y528822*
X329133Y528509*
Y528197*
X329019Y527884*
X328906Y527728*
X328565Y527572*
X327542*
X328337D02*
X329133Y525853D01*
X331292Y529134D02*
X330156Y526947D01*
X331860*
X331292Y529134D02*
Y525853D01*
X400500Y429281D02*
Y426000D01*
Y429281D02*
X401523D01*
X401864Y429125*
X401977Y428969*
X402091Y428656*
Y428344*
X401977Y428031*
X401864Y427875*
X401523Y427719*
X400500*
X401295D02*
X402091Y426000D01*
X403114Y428656D02*
X403341Y428813D01*
X403341D02*
X403682Y429281D01*
Y426000*
X405386Y429281D02*
X405045Y429125D01*
X404818Y428656*
X404705Y427875*
Y427406*
X404818Y426625*
X405045Y426156*
X405386Y426000*
X405614*
X405955Y426156*
X406182Y426625*
X406295Y427406*
Y427875*
X406182Y428656*
X405955Y429125*
X405614Y429281*
X405386*
X408455D02*
X407318Y427094D01*
X409023*
X408455Y429281D02*
Y426000D01*
X401000Y383281D02*
Y380000D01*
Y383281D02*
X402023D01*
X402364Y383125*
X402477Y382969*
X402591Y382656*
Y382344*
X402477Y382031*
X402364Y381875*
X402023Y381719*
X401000*
X401795D02*
X402591Y380000D01*
X403614Y382656D02*
X403841Y382813D01*
X403841D02*
X404182Y383281D01*
Y380000*
X405886Y383281D02*
X405545Y383125D01*
X405318Y382656*
X405205Y381875*
Y381406*
X405318Y380625*
X405545Y380156*
X405886Y380000*
X406114*
X406455Y380156*
X406682Y380625*
X406795Y381406*
Y381875*
X406682Y382656*
X406455Y383125*
X406114Y383281*
X405886*
X407932Y382500D02*
Y382656D01*
X408045Y382969*
X408159Y383125*
X408386Y383281*
X408841*
X409068Y383125*
X409182Y382969*
X409295Y382656*
Y382344*
X409182Y382031*
X408955Y381563*
X408955D02*
X407818Y380000D01*
X409409*
X412705Y382000D02*
X412591Y382313D01*
X412591D02*
X412364Y382625D01*
X412136Y382781*
X411682*
X411455Y382625*
X411227Y382313*
X411227D02*
X411114Y382000D01*
X411000Y381531*
Y380750*
X411114Y380281*
X411227Y379969*
X411455Y379656*
X411682Y379500*
X412136*
X412364Y379656*
X412591Y379969*
X412705Y380281*
X415205Y382781D02*
X414068D01*
X413955Y381375*
X414068Y381531*
X414409Y381688*
X414409D02*
X414750D01*
X414750D02*
X415091Y381531D01*
X415318Y381219*
X415432Y380750*
X415318Y380438*
X415318D02*
X415205Y379969D01*
X414977Y379656*
X414636Y379500*
X414295*
X413955Y379656*
X413841Y379813*
X413841D02*
X413727Y380125D01*
X416682Y382781D02*
X417932D01*
X417250Y381531*
X417591*
X417818Y381375*
X417932Y381219*
X418045Y380750*
Y380438*
X418045D02*
X417932Y379969D01*
X417705Y379656*
X417364Y379500*
X417023*
X416682Y379656*
X416568Y379813*
X416568D02*
X416455Y380125D01*
X423205Y382500D02*
X423091Y382813D01*
X423091D02*
X422864Y383125D01*
X422636Y383281*
X422182*
X421955Y383125*
X421727Y382813*
X421727D02*
X421614Y382500D01*
X421500Y382031*
Y381250*
X421614Y380781*
X421727Y380469*
X421955Y380156*
X422182Y380000*
X422636*
X422864Y380156*
X423091Y380469*
X423205Y380781*
X425705Y383281D02*
X424568D01*
X424455Y381875*
X424568Y382031*
X424909Y382188*
X424909D02*
X425250D01*
X425250D02*
X425591Y382031D01*
X425818Y381719*
X425932Y381250*
X425818Y380938*
X425818D02*
X425705Y380469D01*
X425477Y380156*
X425136Y380000*
X424795*
X424455Y380156*
X424341Y380313*
X424341D02*
X424227Y380625D01*
X428091Y383281D02*
X426955Y381094D01*
X428659*
X428091Y383281D02*
Y380000D01*
X420000Y429281D02*
Y426000D01*
Y429281D02*
X421023D01*
X421364Y429125*
X421477Y428969*
X421591Y428656*
Y428344*
X421477Y428031*
X421364Y427875*
X421023Y427719*
X420000*
X420795D02*
X421591Y426000D01*
X422614Y428656D02*
X422841Y428813D01*
X422841D02*
X423182Y429281D01*
Y426000*
X424886Y429281D02*
X424545Y429125D01*
X424318Y428656*
X424205Y427875*
Y427406*
X424318Y426625*
X424545Y426156*
X424886Y426000*
X425114*
X425455Y426156*
X425682Y426625*
X425795Y427406*
Y427875*
X425682Y428656*
X425455Y429125*
X425114Y429281*
X424886*
X427500D02*
X427159Y429125D01*
X426932Y428656*
X426818Y427875*
Y427406*
X426932Y426625*
X427159Y426156*
X427500Y426000*
X427727*
X428068Y426156*
X428295Y426625*
X428409Y427406*
Y427875*
X428295Y428656*
X428068Y429125*
X427727Y429281*
X427500*
X412500Y413781D02*
Y410500D01*
Y413781D02*
X413523D01*
X413864Y413625*
X413977Y413469*
X414091Y413156*
Y412844*
X413977Y412531*
X413864Y412375*
X413523Y412219*
X412500*
X413295D02*
X414091Y410500D01*
X416591Y412688D02*
X416477Y412219D01*
X416250Y411906*
X415909Y411750*
X415795*
X415455Y411906*
X415227Y412219*
X415114Y412688*
X415114D02*
Y412844D01*
X415227Y413313*
X415227D02*
X415455Y413625D01*
X415795Y413781*
X415909*
X416250Y413625*
X416477Y413313*
X416477D02*
X416591Y412688D01*
X416591D02*
Y411906D01*
X416477Y411125*
X416250Y410656*
X415909Y410500*
X415682*
X415341Y410656*
X415227Y410969*
X419091Y412688D02*
X418977Y412219D01*
X418750Y411906*
X418409Y411750*
X418295*
X417955Y411906*
X417727Y412219*
X417614Y412688*
X417614D02*
Y412844D01*
X417727Y413313*
X417727D02*
X417955Y413625D01*
X418295Y413781*
X418409*
X418750Y413625*
X418977Y413313*
X418977D02*
X419091Y412688D01*
X419091D02*
Y411906D01*
X418977Y411125*
X418750Y410656*
X418409Y410500*
X418182*
X417841Y410656*
X417727Y410969*
X128705Y491500D02*
X128591Y491813D01*
X128591D02*
X128364Y492125D01*
X128136Y492281*
X127682*
X127455Y492125*
X127227Y491813*
X127227D02*
X127114Y491500D01*
X127000Y491031*
Y490250*
X127114Y489781*
X127227Y489469*
X127455Y489156*
X127682Y489000*
X128136*
X128364Y489156*
X128591Y489469*
X128705Y489781*
X129955Y492281D02*
X131205D01*
X130523Y491031*
X130864*
X131091Y490875*
X131205Y490719*
X131318Y490250*
Y489938*
X131318D02*
X131205Y489469D01*
X130977Y489156*
X130636Y489000*
X130295*
X129955Y489156*
X129841Y489313*
X129841D02*
X129727Y489625D01*
X132341Y491656D02*
X132568Y491813D01*
X132568D02*
X132909Y492281D01*
Y489000*
X129000Y461781D02*
X129909Y458500D01*
X130818Y461781D02*
X129909Y458500D01*
X131841Y461781D02*
Y458500D01*
Y461781D02*
X132864D01*
X133205Y461625*
X133318Y461469*
X133432Y461156*
Y460844*
X133318Y460531*
X133205Y460375*
X132864Y460219*
X131841*
X132636D02*
X133432Y458500D01*
X134682Y461781D02*
X135932D01*
X135250Y460531*
X135591*
X135818Y460375*
X135932Y460219*
X136045Y459750*
Y459438*
X135932Y458969*
X135705Y458656*
X135364Y458500*
X135023*
X134682Y458656*
X134568Y458813*
X134455Y459125*
X128500Y441781D02*
Y438500D01*
Y441781D02*
X129523D01*
X129864Y441625*
X129977Y441469*
X130091Y441156*
Y440844*
X129977Y440531*
X129864Y440375*
X129523Y440219*
X128500*
X129295D02*
X130091Y438500D01*
X131114Y441156D02*
X131341Y441313D01*
X131341D02*
X131682Y441781D01*
Y438500*
X132705Y441156D02*
X132932Y441313D01*
X132932D02*
X133273Y441781D01*
Y438500*
X134523Y441781D02*
X135773D01*
X135091Y440531*
X135432*
X135659Y440375*
X135773Y440219*
X135886Y439750*
Y439438*
X135886D02*
X135773Y438969D01*
X135545Y438656*
X135205Y438500*
X134864*
X134523Y438656*
X134409Y438813*
X134409D02*
X134295Y439125D01*
X127500Y451781D02*
Y448500D01*
Y451781D02*
X128523D01*
X128864Y451625*
X128977Y451469*
X129091Y451156*
Y450844*
X128977Y450531*
X128864Y450375*
X128523Y450219*
X127500*
X128295D02*
X129091Y448500D01*
X130114Y451156D02*
X130341Y451313D01*
X130341D02*
X130682Y451781D01*
Y448500*
X132386Y451781D02*
X132045Y451625D01*
X131818Y451156*
X131705Y450375*
Y449906*
X131818Y449125*
X132045Y448656*
X132386Y448500*
X132614*
X132955Y448656*
X133182Y449125*
X133295Y449906*
Y450375*
X133182Y451156*
X132955Y451625*
X132614Y451781*
X132386*
X135682Y451313D02*
X135568Y451625D01*
X135227Y451781*
X135000*
X134659Y451625*
X134432Y451156*
X134318Y450375*
Y449594*
X134432Y448969*
X134659Y448656*
X135000Y448500*
X135114*
X135455Y448656*
X135682Y448969*
X135795Y449438*
X135795D02*
Y449594D01*
X135682Y450063*
X135682D02*
X135455Y450375D01*
X135114Y450531*
X135000*
X134659Y450375*
X134432Y450063*
X134432D02*
X134318Y449594D01*
X155205Y437000D02*
X155091Y437313D01*
X155091D02*
X154864Y437625D01*
X154636Y437781*
X154182*
X153955Y437625*
X153727Y437313*
X153727D02*
X153614Y437000D01*
X153500Y436531*
Y435750*
X153614Y435281*
X153727Y434969*
X153955Y434656*
X154182Y434500*
X154636*
X154864Y434656*
X155091Y434969*
X155205Y435281*
X156455Y437781D02*
X157705D01*
X157023Y436531*
X157364*
X157591Y436375*
X157705Y436219*
X157818Y435750*
Y435438*
X157818D02*
X157705Y434969D01*
X157477Y434656*
X157136Y434500*
X156795*
X156455Y434656*
X156341Y434813*
X156341D02*
X156227Y435125D01*
X159523Y437781D02*
X159182Y437625D01*
X158955Y437156*
X158841Y436375*
Y435906*
X158955Y435125*
X159182Y434656*
X159523Y434500*
X159750*
X160091Y434656*
X160318Y435125*
X160432Y435906*
Y436375*
X160318Y437156*
X160091Y437625*
X159750Y437781*
X159523*
X165500Y438281D02*
X166409Y435000D01*
X167318Y438281D02*
X166409Y435000D01*
X168341Y438281D02*
Y435000D01*
Y438281D02*
X169364D01*
X169705Y438125*
X169818Y437969*
X169932Y437656*
Y437344*
X169818Y437031*
X169705Y436875*
X169364Y436719*
X168341*
X169136D02*
X169932Y435000D01*
X170955Y437656D02*
X171182Y437813D01*
X171182D02*
X171523Y438281D01*
Y435000*
X184000Y443781D02*
Y440500D01*
Y443781D02*
X185023D01*
X185364Y443625*
X185477Y443469*
X185591Y443156*
Y442844*
X185477Y442531*
X185364Y442375*
X185023Y442219*
X184000*
X184795D02*
X185591Y440500D01*
X186614Y443156D02*
X186841Y443313D01*
X186841D02*
X187182Y443781D01*
Y440500*
X189682Y443781D02*
X188545D01*
X188432Y442375*
X188545Y442531*
X188886Y442688*
X188886D02*
X189227D01*
X189227D02*
X189568Y442531D01*
X189795Y442219*
X189909Y441750*
X189795Y441438*
X189795D02*
X189682Y440969D01*
X189455Y440656*
X189114Y440500*
X188773*
X188432Y440656*
X188318Y440813*
X188318D02*
X188205Y441125D01*
X288749Y530215D02*
X288635Y530528D01*
X288635D02*
X288408Y530840D01*
X288180Y530996*
X287726*
X287499Y530840*
X287271Y530528*
X287271D02*
X287158Y530215D01*
X287044Y529746*
Y528965*
X287158Y528496*
X287271Y528184*
X287499Y527871*
X287726Y527715*
X288180*
X288408Y527871*
X288635Y528184*
X288749Y528496*
X289771Y530371D02*
X289999Y530528D01*
X289999D02*
X290339Y530996D01*
Y527715*
X429112Y503718D02*
Y501375D01*
X429112D02*
X429226Y500906D01*
X429453Y500593*
X429794Y500437*
X430021*
X430362Y500593*
X430589Y500906*
X430703Y501375*
X430703D02*
Y503718D01*
X433203D02*
X432067D01*
X431953Y502312*
X432067Y502468*
X432407Y502625*
X432407D02*
X432748D01*
X432748D02*
X433089Y502468D01*
X433317Y502156*
X433430Y501687*
X433317Y501375*
X433317D02*
X433203Y500906D01*
X432976Y500593*
X432635Y500437*
X432294*
X431953Y500593*
X431839Y500750*
X431839D02*
X431726Y501062D01*
X298000Y383281D02*
Y380000D01*
Y383281D02*
X299023D01*
X299364Y383125*
X299477Y382969*
X299591Y382656*
Y382344*
X299477Y382031*
X299364Y381875*
X299023Y381719*
X298000*
X298795D02*
X299591Y380000D01*
X300614Y382656D02*
X300841Y382813D01*
X300841D02*
X301182Y383281D01*
Y380000*
X302886Y383281D02*
X302545Y383125D01*
X302318Y382656*
X302205Y381875*
Y381406*
X302318Y380625*
X302545Y380156*
X302886Y380000*
X303114*
X303455Y380156*
X303682Y380625*
X303795Y381406*
Y381875*
X303682Y382656*
X303455Y383125*
X303114Y383281*
X302886*
X306295Y382188D02*
X306182Y381719D01*
X305955Y381406*
X305614Y381250*
X305500*
X305159Y381406*
X304932Y381719*
X304818Y382188*
X304818D02*
Y382344D01*
X304932Y382813*
X304932D02*
X305159Y383125D01*
X305500Y383281*
X305614*
X305955Y383125*
X306182Y382813*
X306182D02*
X306295Y382188D01*
X306295D02*
Y381406D01*
X306182Y380625*
X305955Y380156*
X305614Y380000*
X305386*
X305045Y380156*
X304932Y380469*
X268000Y454781D02*
Y451500D01*
Y454781D02*
X269023D01*
X269364Y454625*
X269477Y454469*
X269591Y454156*
Y453844*
X269477Y453531*
X269364Y453375*
X269023Y453219*
X268000*
X268795D02*
X269591Y451500D01*
X270614Y454156D02*
X270841Y454313D01*
X270841D02*
X271182Y454781D01*
Y451500*
X273568Y454313D02*
X273455Y454625D01*
X273114Y454781*
X272886*
X272545Y454625*
X272318Y454156*
X272205Y453375*
Y452594*
X272318Y451969*
X272545Y451656*
X272886Y451500*
X273000*
X273341Y451656*
X273568Y451969*
X273682Y452438*
X273682D02*
Y452594D01*
X273568Y453063*
X273568D02*
X273341Y453375D01*
X273000Y453531*
X272886*
X272545Y453375*
X272318Y453063*
X272318D02*
X272205Y452594D01*
X386000Y517281D02*
Y514000D01*
Y517281D02*
X386795D01*
X387136Y517125*
X387364Y516813*
X387364D02*
X387477Y516500D01*
X387591Y516031*
Y515250*
X387477Y514781*
X387364Y514469*
X387136Y514156*
X386795Y514000*
X386000*
X388841Y517281D02*
X390091D01*
X389409Y516031*
X389750*
X389977Y515875*
X390091Y515719*
X390205Y515250*
Y514938*
X390205D02*
X390091Y514469D01*
X389864Y514156*
X389523Y514000*
X389182*
X388841Y514156*
X388727Y514313*
X388727D02*
X388614Y514625D01*
X365205Y521500D02*
X365091Y521813D01*
X364864Y522125*
X364636Y522281*
X364182*
X363955Y522125*
X363727Y521813*
X363614Y521500*
X363500Y521031*
Y520250*
X363614Y519781*
X363727Y519469*
X363955Y519156*
X364182Y519000*
X364636*
X364864Y519156*
X365091Y519469*
X365205Y519781*
X367705Y522281D02*
X366568D01*
X366455Y520875*
X366568Y521031*
X366909Y521188*
X367250*
X367591Y521031*
X367818Y520719*
X367932Y520250*
X367818Y519938*
X367705Y519469*
X367477Y519156*
X367136Y519000*
X366795*
X366455Y519156*
X366341Y519313*
X366227Y519625*
X288563Y512433D02*
X288449Y512746D01*
X288449D02*
X288222Y513058D01*
X287994Y513214*
X287540*
X287313Y513058*
X287085Y512746*
X287085D02*
X286972Y512433D01*
X286858Y511964*
Y511183*
X286972Y510714*
X287085Y510402*
X287313Y510089*
X287540Y509933*
X287994*
X288222Y510089*
X288449Y510402*
X288563Y510714*
X290722Y513214D02*
X289585Y511027D01*
X291290*
X290722Y513214D02*
Y509933D01*
X404813Y545705D02*
Y542424D01*
Y545705D02*
X405836D01*
X406177Y545549*
X406290Y545393*
X406404Y545080*
Y544768*
X406290Y544455*
X406177Y544299*
X405836Y544143*
X404813*
X405608D02*
X406404Y542424D01*
X407427Y545080D02*
X407654Y545237D01*
X407654D02*
X407995Y545705D01*
Y542424*
X197885Y567454D02*
X197771Y567766D01*
X197771D02*
X197544Y568079D01*
X197316Y568235*
X196862*
X196635Y568079*
X196407Y567766*
X196407D02*
X196294Y567454D01*
X196180Y566985*
Y566204*
X196294Y565735*
X196407Y565423*
X196635Y565110*
X196862Y564954*
X197316*
X197544Y565110*
X197771Y565423*
X197885Y565735*
X199021Y567454D02*
Y567610D01*
X199135Y567923*
X199248Y568079*
X199475Y568235*
X199930*
X200157Y568079*
X200271Y567923*
X200385Y567610*
Y567298*
X200271Y566985*
X200044Y566516*
X200044D02*
X198907Y564954D01*
X200498*
X119500Y495281D02*
Y492000D01*
Y495281D02*
X120523D01*
X120864Y495125*
X120977Y494969*
X121091Y494656*
Y494344*
X120977Y494031*
X120864Y493875*
X120523Y493719*
X119500*
X120295D02*
X121091Y492000D01*
X123705Y495281D02*
X122568Y492000D01*
X122114Y495281D02*
X123705D01*
X209705Y438500D02*
X209591Y438813D01*
X209591D02*
X209364Y439125D01*
X209136Y439281*
X208682*
X208455Y439125*
X208227Y438813*
X208227D02*
X208114Y438500D01*
X208000Y438031*
Y437250*
X208114Y436781*
X208227Y436469*
X208455Y436156*
X208682Y436000*
X209136*
X209364Y436156*
X209591Y436469*
X209705Y436781*
X210727Y438656D02*
X210955Y438813D01*
X210955D02*
X211295Y439281D01*
Y436000*
X213795Y438188D02*
X213682Y437719D01*
X213455Y437406*
X213114Y437250*
X213000*
X212659Y437406*
X212432Y437719*
X212318Y438188*
X212318D02*
Y438344D01*
X212432Y438813*
X212432D02*
X212659Y439125D01*
X213000Y439281*
X213114*
X213455Y439125*
X213682Y438813*
X213682D02*
X213795Y438188D01*
X213795D02*
Y437406D01*
X213682Y436625*
X213455Y436156*
X213114Y436000*
X212886*
X212545Y436156*
X212432Y436469*
X228000Y463781D02*
Y460500D01*
Y463781D02*
X229023D01*
X229364Y463625*
X229477Y463469*
X229591Y463156*
Y462844*
X229477Y462531*
X229364Y462375*
X229023Y462219*
X228000*
X228795D02*
X229591Y460500D01*
X232091Y462688D02*
X231977Y462219D01*
X231750Y461906*
X231409Y461750*
X231295*
X230955Y461906*
X230727Y462219*
X230614Y462688*
X230614D02*
Y462844D01*
X230727Y463313*
X230727D02*
X230955Y463625D01*
X231295Y463781*
X231409*
X231750Y463625*
X231977Y463313*
X231977D02*
X232091Y462688D01*
X232091D02*
Y461906D01*
X231977Y461125*
X231750Y460656*
X231409Y460500*
X231182*
X230841Y460656*
X230727Y460969*
X303705Y496000D02*
X303591Y496313D01*
X303591D02*
X303364Y496625D01*
X303136Y496781*
X302682*
X302455Y496625*
X302227Y496313*
X302227D02*
X302114Y496000D01*
X302000Y495531*
Y494750*
X302114Y494281*
X302227Y493969*
X302455Y493656*
X302682Y493500*
X303136*
X303364Y493656*
X303591Y493969*
X303705Y494281*
X304727Y496156D02*
X304955Y496313D01*
X304955D02*
X305295Y496781D01*
Y493500*
X307682Y496313D02*
X307568Y496625D01*
X307227Y496781*
X307000*
X306659Y496625*
X306432Y496156*
X306318Y495375*
Y494594*
X306432Y493969*
X306659Y493656*
X307000Y493500*
X307114*
X307455Y493656*
X307682Y493969*
X307795Y494438*
X307795D02*
Y494594D01*
X307682Y495063*
X307682D02*
X307455Y495375D01*
X307114Y495531*
X307000*
X306659Y495375*
X306432Y495063*
X306432D02*
X306318Y494594D01*
X165205Y493000D02*
X165091Y493312D01*
X165091D02*
X164864Y493625D01*
X164636Y493781*
X164182*
X163955Y493625*
X163727Y493312*
X163727D02*
X163614Y493000D01*
X163500Y492531*
Y491750*
X163614Y491281*
X163727Y490969*
X163955Y490656*
X164182Y490500*
X164636*
X164864Y490656*
X165091Y490969*
X165205Y491281*
X166227Y493156D02*
X166455Y493312D01*
X166455D02*
X166795Y493781D01*
Y490500*
X168955Y493781D02*
X167818Y491594D01*
X169523*
X168955Y493781D02*
Y490500D01*
X284000Y341281D02*
Y338937D01*
X284000D02*
X284114Y338469D01*
X284341Y338156*
X284682Y338000*
X284909*
X285250Y338156*
X285477Y338469*
X285591Y338937*
X285591D02*
Y341281D01*
X286614Y340656D02*
X286841Y340812D01*
X286841D02*
X287182Y341281D01*
Y338000*
X288318Y340500D02*
Y340656D01*
X288432Y340969*
X288545Y341125*
X288773Y341281*
X289227*
X289455Y341125*
X289568Y340969*
X289682Y340656*
Y340344*
X289568Y340031*
X289341Y339562*
X289341D02*
X288205Y338000D01*
X289795*
X148514Y503066D02*
Y499785D01*
Y503066D02*
X149309D01*
X149650Y502910*
X149878Y502598*
X149878D02*
X149991Y502285D01*
X150105Y501816*
Y501035*
X149991Y500566*
X149878Y500254*
X149650Y499941*
X149309Y499785*
X148514*
X151241Y502285D02*
Y502441D01*
X151355Y502754*
X151469Y502910*
X151696Y503066*
X152150*
X152378Y502910*
X152491Y502754*
X152605Y502441*
Y502129*
X152491Y501816*
X152264Y501348*
X152264D02*
X151128Y499785D01*
X152719*
X142205Y208500D02*
X142091Y208813D01*
X142091D02*
X141864Y209125D01*
X141636Y209281*
X141182*
X140955Y209125*
X140727Y208813*
X140727D02*
X140614Y208500D01*
X140500Y208031*
Y207250*
X140614Y206781*
X140727Y206469*
X140955Y206156*
X141182Y206000*
X141636*
X141864Y206156*
X142091Y206469*
X142205Y206781*
X143909Y209281D02*
X143682Y209125D01*
X143455Y208813*
X143455D02*
X143341Y208500D01*
X143227Y208031*
Y207250*
X143341Y206781*
X143455Y206469*
X143682Y206156*
X143909Y206000*
X144364*
X144591Y206156*
X144818Y206469*
X144932Y206781*
X145045Y207250*
Y208031*
X144932Y208500*
X144818Y208813*
X144818D02*
X144591Y209125D01*
X144364Y209281*
X143909*
X146068D02*
Y206000D01*
Y209281D02*
X147659Y206000D01*
Y209281D02*
Y206000D01*
X148795Y208500D02*
Y208656D01*
X148909Y208969*
X149023Y209125*
X149250Y209281*
X149705*
X149932Y209125*
X150045Y208969*
X150159Y208656*
Y208344*
X150045Y208031*
X149818Y207563*
X149818D02*
X148682Y206000D01*
X150273*
X113705Y128500D02*
X113591Y128813D01*
X113591D02*
X113364Y129125D01*
X113136Y129281*
X112682*
X112455Y129125*
X112227Y128813*
X112227D02*
X112114Y128500D01*
X112000Y128031*
Y127250*
X112114Y126781*
X112227Y126469*
X112455Y126156*
X112682Y126000*
X113136*
X113364Y126156*
X113591Y126469*
X113705Y126781*
X115864Y129281D02*
X114727Y127094D01*
X116432*
X115864Y129281D02*
Y126000D01*
X117455Y128656D02*
X117682Y128813D01*
X117682D02*
X118023Y129281D01*
Y126000*
X378500Y453781D02*
Y450500D01*
X379864*
X380886Y453156D02*
X381114Y453313D01*
X381114D02*
X381455Y453781D01*
Y450500*
X336000Y496781D02*
Y494438D01*
X336000D02*
X336114Y493969D01*
X336341Y493656*
X336682Y493500*
X336909*
X337250Y493656*
X337477Y493969*
X337591Y494438*
X337591D02*
Y496781D01*
X339750D02*
X338614Y494594D01*
X340318*
X339750Y496781D02*
Y493500D01*
X252000Y496281D02*
Y493938D01*
X252000D02*
X252114Y493469D01*
X252341Y493156*
X252682Y493000*
X252909*
X253250Y493156*
X253477Y493469*
X253591Y493938*
X253591D02*
Y496281D01*
X254614Y495656D02*
X254841Y495813D01*
X254841D02*
X255182Y496281D01*
Y493000*
X293500Y496281D02*
Y493938D01*
X293500D02*
X293614Y493469D01*
X293841Y493156*
X294182Y493000*
X294409*
X294750Y493156*
X294977Y493469*
X295091Y493938*
X295091D02*
Y496281D01*
X296341D02*
X297591D01*
X296909Y495031*
X297250*
X297477Y494875*
X297591Y494719*
X297705Y494250*
Y493938*
X297705D02*
X297591Y493469D01*
X297364Y493156*
X297023Y493000*
X296682*
X296341Y493156*
X296227Y493313*
X296227D02*
X296114Y493625D01*
X209500Y485281D02*
Y482938D01*
X209500D02*
X209614Y482469D01*
X209841Y482156*
X210182Y482000*
X210409*
X210750Y482156*
X210977Y482469*
X211091Y482938*
X211091D02*
Y485281D01*
X212227Y484500D02*
Y484656D01*
X212341Y484969*
X212455Y485125*
X212682Y485281*
X213136*
X213364Y485125*
X213477Y484969*
X213591Y484656*
Y484344*
X213477Y484031*
X213250Y483563*
X213250D02*
X212114Y482000D01*
X213705*
X264000Y383281D02*
Y380938D01*
X264000D02*
X264114Y380469D01*
X264341Y380156*
X264682Y380000*
X264909*
X265250Y380156*
X265477Y380469*
X265591Y380938*
X265591D02*
Y383281D01*
X266727Y382500D02*
Y382656D01*
X266841Y382969*
X266955Y383125*
X267182Y383281*
X267636*
X267864Y383125*
X267977Y382969*
X268091Y382656*
Y382344*
X267977Y382031*
X267750Y381563*
X267750D02*
X266614Y380000D01*
X268205*
X269227Y382656D02*
X269455Y382813D01*
X269455D02*
X269795Y383281D01*
Y380000*
X338000Y133781D02*
Y131438D01*
X338000D02*
X338114Y130969D01*
X338341Y130656*
X338682Y130500*
X338909*
X339250Y130656*
X339477Y130969*
X339591Y131438*
X339591D02*
Y133781D01*
X340614Y133156D02*
X340841Y133313D01*
X340841D02*
X341182Y133781D01*
Y130500*
X342432Y133781D02*
X343682D01*
X343000Y132531*
X343341*
X343568Y132375*
X343682Y132219*
X343795Y131750*
Y131438*
X343795D02*
X343682Y130969D01*
X343455Y130656*
X343114Y130500*
X342773*
X342432Y130656*
X342318Y130813*
X342318D02*
X342205Y131125D01*
X374182Y377281D02*
X373955Y377125D01*
X373727Y376813*
X373727D02*
X373614Y376500D01*
X373500Y376031*
Y375250*
X373614Y374781*
X373727Y374469*
X373955Y374156*
X374182Y374000*
X374636*
X374864Y374156*
X375091Y374469*
X375205Y374781*
X375318Y375250*
Y376031*
X375205Y376500*
X375091Y376813*
X375091D02*
X374864Y377125D01*
X374636Y377281*
X374182*
X374523Y374625D02*
X375205Y373687D01*
X376341Y376656D02*
X376568Y376813D01*
X376568D02*
X376909Y377281D01*
Y374000*
X378045Y376500D02*
Y376656D01*
X378159Y376969*
X378273Y377125*
X378500Y377281*
X378955*
X379182Y377125*
X379295Y376969*
X379409Y376656*
Y376344*
X379295Y376031*
X379068Y375563*
X379068D02*
X377932Y374000D01*
X379523*
X303682Y377781D02*
X303455Y377625D01*
X303227Y377313*
X303227D02*
X303114Y377000D01*
X303000Y376531*
Y375750*
X303114Y375281*
X303227Y374969*
X303455Y374656*
X303682Y374500*
X304136*
X304364Y374656*
X304591Y374969*
X304705Y375281*
X304818Y375750*
Y376531*
X304705Y377000*
X304591Y377313*
X304591D02*
X304364Y377625D01*
X304136Y377781*
X303682*
X304023Y375125D02*
X304705Y374187D01*
X305841Y377156D02*
X306068Y377313D01*
X306068D02*
X306409Y377781D01*
Y374500*
X307432Y377156D02*
X307659Y377313D01*
X307659D02*
X308000Y377781D01*
Y374500*
X263500Y150781D02*
Y148437D01*
X263500D02*
X263614Y147969D01*
X263841Y147656*
X264182Y147500*
X264409*
X264750Y147656*
X264977Y147969*
X265091Y148437*
X265091D02*
Y150781D01*
X266114Y150156D02*
X266341Y150312D01*
X266341D02*
X266682Y150781D01*
Y147500*
X269295Y150781D02*
X268159Y147500D01*
X267705Y150781D02*
X269295D01*
X249000Y151281D02*
Y148937D01*
X249000D02*
X249114Y148469D01*
X249341Y148156*
X249682Y148000*
X249909*
X250250Y148156*
X250477Y148469*
X250591Y148937*
X250591D02*
Y151281D01*
X251614Y150656D02*
X251841Y150812D01*
X251841D02*
X252182Y151281D01*
Y148000*
X254568Y150812D02*
X254455Y151125D01*
X254114Y151281*
X253886*
X253545Y151125*
X253318Y150656*
X253205Y149875*
Y149094*
X253318Y148469*
X253545Y148156*
X253886Y148000*
X254000*
X254341Y148156*
X254568Y148469*
X254682Y148937*
X254682D02*
Y149094D01*
X254568Y149562*
X254568D02*
X254341Y149875D01*
X254000Y150031*
X253886*
X253545Y149875*
X253318Y149562*
X253318D02*
X253205Y149094D01*
X234000Y151281D02*
Y148937D01*
X234000D02*
X234114Y148469D01*
X234341Y148156*
X234682Y148000*
X234909*
X235250Y148156*
X235477Y148469*
X235591Y148937*
X235591D02*
Y151281D01*
X236614Y150656D02*
X236841Y150812D01*
X236841D02*
X237182Y151281D01*
Y148000*
X239682Y151281D02*
X238545D01*
X238432Y149875*
X238545Y150031*
X238886Y150187*
X238886D02*
X239227D01*
X239227D02*
X239568Y150031D01*
X239795Y149719*
X239909Y149250*
X239795Y148937*
X239795D02*
X239682Y148469D01*
X239455Y148156*
X239114Y148000*
X238773*
X238432Y148156*
X238318Y148312*
X238318D02*
X238205Y148625D01*
X219500Y151781D02*
Y149437D01*
X219500D02*
X219614Y148969D01*
X219841Y148656*
X220182Y148500*
X220409*
X220750Y148656*
X220977Y148969*
X221091Y149437*
X221091D02*
Y151781D01*
X222114Y151156D02*
X222341Y151312D01*
X222341D02*
X222682Y151781D01*
Y148500*
X224841Y151781D02*
X223705Y149594D01*
X225409*
X224841Y151781D02*
Y148500D01*
X421974Y541795D02*
X421747Y541639D01*
X421519Y541327*
X421519D02*
X421406Y541014D01*
X421292Y540545*
Y539764*
X421406Y539295*
X421519Y538983*
X421747Y538670*
X421974Y538514*
X422428*
X422656Y538670*
X422883Y538983*
X422997Y539295*
X423110Y539764*
Y540545*
X422997Y541014*
X422883Y541327*
X422883D02*
X422656Y541639D01*
X422428Y541795*
X421974*
X422315Y539139D02*
X422997Y538201D01*
X424133Y541170D02*
X424360Y541327D01*
X424360D02*
X424701Y541795D01*
Y538514*
X162442Y309618D02*
X162669Y309774D01*
X162897Y310086*
X162897D02*
X163010Y310399D01*
X163124Y310868*
Y311649*
X163010Y312118*
X162897Y312430*
X162669Y312743*
X162442Y312899*
X161988*
X161760Y312743*
X161533Y312430*
X161419Y312118*
X161306Y311649*
Y310868*
X161419Y310399*
X161533Y310086*
X161533D02*
X161760Y309774D01*
X161988Y309618*
X162442*
X162101Y312274D02*
X161419Y313212D01*
X158692Y309618D02*
X159829Y312899D01*
X160283Y309618D02*
X158692D01*
X187682Y317281D02*
X187455Y317125D01*
X187227Y316813*
X187227D02*
X187114Y316500D01*
X187000Y316031*
Y315250*
X187114Y314781*
X187227Y314469*
X187455Y314156*
X187682Y314000*
X188136*
X188364Y314156*
X188591Y314469*
X188705Y314781*
X188818Y315250*
Y316031*
X188705Y316500*
X188591Y316813*
X188591D02*
X188364Y317125D01*
X188136Y317281*
X187682*
X188023Y314625D02*
X188705Y313687D01*
X190409Y317281D02*
X190068Y317125D01*
X189955Y316813*
X189955D02*
Y316500D01*
X190068Y316188*
X190068D02*
X190295Y316031D01*
X190750Y315875*
X191091Y315719*
X191318Y315406*
X191432Y315094*
Y314625*
X191318Y314313*
X191318D02*
X191205Y314156D01*
X190864Y314000*
X190409*
X190068Y314156*
X189955Y314313*
X189955D02*
X189841Y314625D01*
Y315094*
X189955Y315406*
X190182Y315719*
X190523Y315875*
X190977Y316031*
X191205Y316188*
X191205D02*
X191318Y316500D01*
Y316813*
X191318D02*
X191205Y317125D01*
X190864Y317281*
X190409*
X207682D02*
X207455Y317125D01*
X207227Y316813*
X207227D02*
X207114Y316500D01*
X207000Y316031*
Y315250*
X207114Y314781*
X207227Y314469*
X207455Y314156*
X207682Y314000*
X208136*
X208364Y314156*
X208591Y314469*
X208705Y314781*
X208818Y315250*
Y316031*
X208705Y316500*
X208591Y316813*
X208591D02*
X208364Y317125D01*
X208136Y317281*
X207682*
X208023Y314625D02*
X208705Y313687D01*
X211318Y316188D02*
X211205Y315719D01*
X210977Y315406*
X210636Y315250*
X210523*
X210182Y315406*
X209955Y315719*
X209841Y316188*
X209841D02*
Y316344D01*
X209955Y316813*
X209955D02*
X210182Y317125D01*
X210523Y317281*
X210636*
X210977Y317125*
X211205Y316813*
X211205D02*
X211318Y316188D01*
X211318D02*
Y315406D01*
X211205Y314625*
X210977Y314156*
X210636Y314000*
X210409*
X210068Y314156*
X209955Y314469*
X227682Y316781D02*
X227455Y316625D01*
X227227Y316313*
X227227D02*
X227114Y316000D01*
X227000Y315531*
Y314750*
X227114Y314281*
X227227Y313969*
X227455Y313656*
X227682Y313500*
X228136*
X228364Y313656*
X228591Y313969*
X228705Y314281*
X228818Y314750*
Y315531*
X228705Y316000*
X228591Y316313*
X228591D02*
X228364Y316625D01*
X228136Y316781*
X227682*
X228023Y314125D02*
X228705Y313187D01*
X230068Y316781D02*
X231318D01*
X230636Y315531*
X230977*
X231205Y315375*
X231318Y315219*
X231432Y314750*
Y314438*
X231432D02*
X231318Y313969D01*
X231091Y313656*
X230750Y313500*
X230409*
X230068Y313656*
X229955Y313813*
X229955D02*
X229841Y314125D01*
X248182Y317281D02*
X247955Y317125D01*
X247727Y316813*
X247727D02*
X247614Y316500D01*
X247500Y316031*
Y315250*
X247614Y314781*
X247727Y314469*
X247955Y314156*
X248182Y314000*
X248636*
X248864Y314156*
X249091Y314469*
X249205Y314781*
X249318Y315250*
Y316031*
X249205Y316500*
X249091Y316813*
X249091D02*
X248864Y317125D01*
X248636Y317281*
X248182*
X248523Y314625D02*
X249205Y313687D01*
X251477Y317281D02*
X250341Y315094D01*
X252045*
X251477Y317281D02*
Y314000D01*
X268182Y317281D02*
X267955Y317125D01*
X267727Y316813*
X267727D02*
X267614Y316500D01*
X267500Y316031*
Y315250*
X267614Y314781*
X267727Y314469*
X267955Y314156*
X268182Y314000*
X268636*
X268864Y314156*
X269091Y314469*
X269205Y314781*
X269318Y315250*
Y316031*
X269205Y316500*
X269091Y316813*
X269091D02*
X268864Y317125D01*
X268636Y317281*
X268182*
X268523Y314625D02*
X269205Y313687D01*
X271818Y317281D02*
X270682D01*
X270568Y315875*
X270682Y316031*
X271023Y316188*
X271023D02*
X271364D01*
X271364D02*
X271705Y316031D01*
X271932Y315719*
X272045Y315250*
X271932Y314938*
X271932D02*
X271818Y314469D01*
X271591Y314156*
X271250Y314000*
X270909*
X270568Y314156*
X270455Y314313*
X270455D02*
X270341Y314625D01*
X166182Y344281D02*
X165955Y344125D01*
X165727Y343812*
X165727D02*
X165614Y343500D01*
X165500Y343031*
Y342250*
X165614Y341781*
X165727Y341469*
X165955Y341156*
X166182Y341000*
X166636*
X166864Y341156*
X167091Y341469*
X167205Y341781*
X167318Y342250*
Y343031*
X167205Y343500*
X167091Y343812*
X167091D02*
X166864Y344125D01*
X166636Y344281*
X166182*
X166523Y341625D02*
X167205Y340687D01*
X169705Y343812D02*
X169591Y344125D01*
X169250Y344281*
X169023*
X168682Y344125*
X168455Y343656*
X168341Y342875*
Y342094*
X168455Y341469*
X168682Y341156*
X169023Y341000*
X169136*
X169477Y341156*
X169705Y341469*
X169818Y341937*
X169818D02*
Y342094D01*
X169705Y342562*
X169705D02*
X169477Y342875D01*
X169136Y343031*
X169023*
X168682Y342875*
X168455Y342562*
X168455D02*
X168341Y342094D01*
X226182Y343781D02*
X225955Y343625D01*
X225727Y343312*
X225727D02*
X225614Y343000D01*
X225500Y342531*
Y341750*
X225614Y341281*
X225727Y340969*
X225955Y340656*
X226182Y340500*
X226636*
X226864Y340656*
X227091Y340969*
X227205Y341281*
X227318Y341750*
Y342531*
X227205Y343000*
X227091Y343312*
X227091D02*
X226864Y343625D01*
X226636Y343781*
X226182*
X226523Y341125D02*
X227205Y340187D01*
X228455Y343000D02*
Y343156D01*
X228568Y343469*
X228682Y343625*
X228909Y343781*
X229364*
X229591Y343625*
X229705Y343469*
X229818Y343156*
Y342844*
X229705Y342531*
X229477Y342062*
X229477D02*
X228341Y340500D01*
X229932*
X177000Y329281D02*
Y326000D01*
Y329281D02*
X178023D01*
X178364Y329125*
X178477Y328969*
X178591Y328656*
Y328344*
X178477Y328031*
X178364Y327875*
X178023Y327719*
X177000*
X177795D02*
X178591Y326000D01*
X181091Y329281D02*
X179955D01*
X179841Y327875*
X179955Y328031*
X180295Y328187*
X180295D02*
X180636D01*
X180636D02*
X180977Y328031D01*
X181205Y327719*
X181318Y327250*
X181205Y326937*
X181205D02*
X181091Y326469D01*
X180864Y326156*
X180523Y326000*
X180182*
X179841Y326156*
X179727Y326312*
X179727D02*
X179614Y326625D01*
X182568Y329281D02*
X183818D01*
X183136Y328031*
X183477*
X183705Y327875*
X183818Y327719*
X183932Y327250*
Y326937*
X183932D02*
X183818Y326469D01*
X183591Y326156*
X183250Y326000*
X182909*
X182568Y326156*
X182455Y326312*
X182455D02*
X182341Y326625D01*
X196500Y329281D02*
Y326000D01*
Y329281D02*
X197523D01*
X197864Y329125*
X197977Y328969*
X198091Y328656*
Y328344*
X197977Y328031*
X197864Y327875*
X197523Y327719*
X196500*
X197295D02*
X198091Y326000D01*
X200591Y329281D02*
X199455D01*
X199341Y327875*
X199455Y328031*
X199795Y328187*
X199795D02*
X200136D01*
X200136D02*
X200477Y328031D01*
X200705Y327719*
X200818Y327250*
X200705Y326937*
X200705D02*
X200591Y326469D01*
X200364Y326156*
X200023Y326000*
X199682*
X199341Y326156*
X199227Y326312*
X199227D02*
X199114Y326625D01*
X202977Y329281D02*
X201841Y327094D01*
X203545*
X202977Y329281D02*
Y326000D01*
X161500Y429281D02*
Y426000D01*
Y429281D02*
X162523D01*
X162864Y429125*
X162977Y428969*
X163091Y428656*
Y428344*
X162977Y428031*
X162864Y427875*
X162523Y427719*
X161500*
X162295D02*
X163091Y426000D01*
X164227Y428500D02*
Y428656D01*
X164341Y428969*
X164455Y429125*
X164682Y429281*
X165136*
X165364Y429125*
X165477Y428969*
X165591Y428656*
Y428344*
X165477Y428031*
X165250Y427563*
X165250D02*
X164114Y426000D01*
X165705*
X167409Y429281D02*
X167068Y429125D01*
X166841Y428656*
X166727Y427875*
Y427406*
X166841Y426625*
X167068Y426156*
X167409Y426000*
X167636*
X167977Y426156*
X168205Y426625*
X168318Y427406*
Y427875*
X168205Y428656*
X167977Y429125*
X167636Y429281*
X167409*
X170000D02*
Y426000D01*
Y429281D02*
X171023D01*
X171364Y429125*
X171477Y428969*
X171591Y428656*
Y428344*
X171477Y428031*
X171364Y427875*
X171023Y427719*
X170000*
X170795D02*
X171591Y426000D01*
X172727Y428500D02*
Y428656D01*
X172841Y428969*
X172955Y429125*
X173182Y429281*
X173636*
X173864Y429125*
X173977Y428969*
X174091Y428656*
Y428344*
X173977Y428031*
X173750Y427563*
X173750D02*
X172614Y426000D01*
X174205*
X175227Y428656D02*
X175455Y428813D01*
X175455D02*
X175795Y429281D01*
Y426000*
X202500Y348281D02*
Y345000D01*
Y348281D02*
X203523D01*
X203864Y348125*
X203977Y347969*
X204091Y347656*
Y347344*
X203977Y347031*
X203864Y346875*
X203523Y346719*
X202500*
X203295D02*
X204091Y345000D01*
X206591Y348281D02*
X205455D01*
X205341Y346875*
X205455Y347031*
X205795Y347188*
X205795D02*
X206136D01*
X206136D02*
X206477Y347031D01*
X206705Y346719*
X206818Y346250*
X206705Y345938*
X206705D02*
X206591Y345469D01*
X206364Y345156*
X206023Y345000*
X205682*
X205341Y345156*
X205227Y345313*
X205227D02*
X205114Y345625D01*
X207841Y347656D02*
X208068Y347813D01*
X208068D02*
X208409Y348281D01*
Y345000*
X154000Y429281D02*
Y426000D01*
Y429281D02*
X155023D01*
X155364Y429125*
X155477Y428969*
X155591Y428656*
Y428344*
X155477Y428031*
X155364Y427875*
X155023Y427719*
X154000*
X154795D02*
X155591Y426000D01*
X156614Y428656D02*
X156841Y428813D01*
X156841D02*
X157182Y429281D01*
Y426000*
X159682Y428188D02*
X159568Y427719D01*
X159341Y427406*
X159000Y427250*
X158886*
X158545Y427406*
X158318Y427719*
X158205Y428188*
X158205D02*
Y428344D01*
X158318Y428813*
X158318D02*
X158545Y429125D01*
X158886Y429281*
X159000*
X159341Y429125*
X159568Y428813*
X159568D02*
X159682Y428188D01*
X159682D02*
Y427406D01*
X159568Y426625*
X159341Y426156*
X159000Y426000*
X158773*
X158432Y426156*
X158318Y426469*
X169000Y293281D02*
Y290000D01*
Y293281D02*
X170023D01*
X170364Y293125*
X170477Y292969*
X170591Y292656*
Y292344*
X170477Y292031*
X170364Y291875*
X170023Y291719*
X169000*
X169795D02*
X170591Y290000D01*
X173091Y293281D02*
X171955D01*
X171841Y291875*
X171955Y292031*
X172295Y292188*
X172295D02*
X172636D01*
X172636D02*
X172977Y292031D01*
X173205Y291719*
X173318Y291250*
X173205Y290938*
X173205D02*
X173091Y290469D01*
X172864Y290156*
X172523Y290000*
X172182*
X171841Y290156*
X171727Y290313*
X171727D02*
X171614Y290625D01*
X174909Y293281D02*
X174568Y293125D01*
X174455Y292813*
X174455D02*
Y292500D01*
X174568Y292188*
X174568D02*
X174795Y292031D01*
X175250Y291875*
X175591Y291719*
X175818Y291406*
X175932Y291094*
Y290625*
X175818Y290313*
X175818D02*
X175705Y290156D01*
X175364Y290000*
X174909*
X174568Y290156*
X174455Y290313*
X174455D02*
X174341Y290625D01*
Y291094*
X174455Y291406*
X174682Y291719*
X175023Y291875*
X175477Y292031*
X175705Y292188*
X175705D02*
X175818Y292500D01*
Y292813*
X175818D02*
X175705Y293125D01*
X175364Y293281*
X174909*
X411000Y453281D02*
Y450000D01*
Y453281D02*
X412023D01*
X412364Y453125*
X412477Y452969*
X412591Y452656*
Y452344*
X412477Y452031*
X412364Y451875*
X412023Y451719*
X411000*
X411795D02*
X412591Y450000D01*
X413727Y452500D02*
Y452656D01*
X413841Y452969*
X413955Y453125*
X414182Y453281*
X414636*
X414864Y453125*
X414977Y452969*
X415091Y452656*
Y452344*
X414977Y452031*
X414750Y451563*
X414750D02*
X413614Y450000D01*
X415205*
X416341Y452500D02*
Y452656D01*
X416455Y452969*
X416568Y453125*
X416795Y453281*
X417250*
X417477Y453125*
X417591Y452969*
X417705Y452656*
Y452344*
X417591Y452031*
X417364Y451563*
X417364D02*
X416227Y450000D01*
X417818*
X419000Y453281D02*
Y450000D01*
Y453281D02*
X420023D01*
X420364Y453125*
X420477Y452969*
X420591Y452656*
Y452344*
X420477Y452031*
X420364Y451875*
X420023Y451719*
X419000*
X419795D02*
X420591Y450000D01*
X421727Y452500D02*
Y452656D01*
X421841Y452969*
X421955Y453125*
X422182Y453281*
X422636*
X422864Y453125*
X422977Y452969*
X423091Y452656*
Y452344*
X422977Y452031*
X422750Y451563*
X422750D02*
X421614Y450000D01*
X423205*
X424455Y453281D02*
X425705D01*
X425023Y452031*
X425364*
X425591Y451875*
X425705Y451719*
X425818Y451250*
Y450938*
X425818D02*
X425705Y450469D01*
X425477Y450156*
X425136Y450000*
X424795*
X424455Y450156*
X424341Y450313*
X424341D02*
X424227Y450625D01*
X378280Y522059D02*
Y518778D01*
Y522059D02*
X379303D01*
X379644Y521903*
X379757Y521747*
X379871Y521434*
Y521122*
X379757Y520809*
X379644Y520653*
X379303Y520497*
X378280*
X379075D02*
X379871Y518778D01*
X381007Y521278D02*
Y521434D01*
X381121Y521747*
X381235Y521903*
X381462Y522059*
X381916*
X382144Y521903*
X382257Y521747*
X382371Y521434*
Y521122*
X382257Y520809*
X382030Y520341*
X382030D02*
X380894Y518778D01*
X382485*
X440656Y510142D02*
Y506861D01*
Y510142D02*
X441679D01*
X442020Y509986*
X442133Y509830*
X442247Y509517*
Y509205*
X442133Y508892*
X442020Y508736*
X441679Y508580*
X440656*
X441451D02*
X442247Y506861D01*
X443838Y510142D02*
X443497Y509986D01*
X443383Y509674*
Y509361*
X443497Y509049*
X443724Y508892*
X444179Y508736*
X444520Y508580*
X444747Y508267*
X444861Y507955*
Y507486*
X444747Y507174*
X444633Y507017*
X444292Y506861*
X443838*
X443497Y507017*
X443383Y507174*
X443270Y507486*
Y507955*
X443383Y508267*
X443611Y508580*
X443951Y508736*
X444406Y508892*
X444633Y509049*
X444747Y509361*
Y509674*
X444633Y509986*
X444292Y510142*
X443838*
X436000Y453281D02*
Y450000D01*
Y453281D02*
X437023D01*
X437364Y453125*
X437477Y452969*
X437591Y452656*
Y452344*
X437477Y452031*
X437364Y451875*
X437023Y451719*
X436000*
X436795D02*
X437591Y450000D01*
X438727Y452500D02*
Y452656D01*
X438841Y452969*
X438955Y453125*
X439182Y453281*
X439636*
X439864Y453125*
X439977Y452969*
X440091Y452656*
Y452344*
X439977Y452031*
X439750Y451563*
X439750D02*
X438614Y450000D01*
X440205*
X442364Y453281D02*
X441227Y451094D01*
X442932*
X442364Y453281D02*
Y450000D01*
X436001Y503439D02*
Y500158D01*
Y503439D02*
X437024D01*
X437365Y503283*
X437478Y503127*
X437592Y502814*
Y502502*
X437478Y502189*
X437365Y502033*
X437024Y501877*
X436001*
X436796D02*
X437592Y500158D01*
X438615Y502814D02*
X438842Y502971D01*
X438842D02*
X439183Y503439D01*
Y500158*
X440433Y503439D02*
X441683D01*
X441001Y502189*
X441342*
X441569Y502033*
X441683Y501877*
X441796Y501408*
Y501096*
X441796D02*
X441683Y500627D01*
X441456Y500314*
X441115Y500158*
X440774*
X440433Y500314*
X440319Y500471*
X440319D02*
X440206Y500783D01*
X435722Y486309D02*
Y483028D01*
Y486309D02*
X436745D01*
X437086Y486153*
X437199Y485997*
X437313Y485684*
Y485372*
X437199Y485059*
X437086Y484903*
X436745Y484747*
X435722*
X436517D02*
X437313Y483028D01*
X438336Y485684D02*
X438563Y485841D01*
X438563D02*
X438904Y486309D01*
Y483028*
X440495Y486309D02*
X440154Y486153D01*
X440040Y485841*
X440040D02*
Y485528D01*
X440154Y485216*
X440154D02*
X440381Y485059D01*
X440836Y484903*
X441177Y484747*
X441404Y484434*
X441517Y484122*
Y483653*
X441404Y483341*
X441404D02*
X441290Y483184D01*
X440949Y483028*
X440495*
X440154Y483184*
X440040Y483341*
X440040D02*
X439927Y483653D01*
Y484122*
X440040Y484434*
X440267Y484747*
X440608Y484903*
X441063Y485059*
X441290Y485216*
X441290D02*
X441404Y485528D01*
Y485841*
X441404D02*
X441290Y486153D01*
X440949Y486309*
X440495*
X310500Y456281D02*
Y453000D01*
Y456281D02*
X311523D01*
X311864Y456125*
X311977Y455969*
X312091Y455656*
Y455344*
X311977Y455031*
X311864Y454875*
X311523Y454719*
X310500*
X311295D02*
X312091Y453000D01*
X313114Y455656D02*
X313341Y455813D01*
X313341D02*
X313682Y456281D01*
Y453000*
X316295Y456281D02*
X315159Y453000D01*
X314705Y456281D02*
X316295D01*
X310500Y464281D02*
Y461000D01*
Y464281D02*
X311523D01*
X311864Y464125*
X311977Y463969*
X312091Y463656*
Y463344*
X311977Y463031*
X311864Y462875*
X311523Y462719*
X310500*
X311295D02*
X312091Y461000D01*
X313114Y463656D02*
X313341Y463813D01*
X313341D02*
X313682Y464281D01*
Y461000*
X314818Y463500D02*
Y463656D01*
X314932Y463969*
X315045Y464125*
X315273Y464281*
X315727*
X315955Y464125*
X316068Y463969*
X316182Y463656*
Y463344*
X316068Y463031*
X315841Y462563*
X315841D02*
X314705Y461000D01*
X316295*
X226500Y455781D02*
Y452500D01*
Y455781D02*
X227523D01*
X227864Y455625*
X227977Y455469*
X228091Y455156*
Y454844*
X227977Y454531*
X227864Y454375*
X227523Y454219*
X226500*
X227295D02*
X228091Y452500D01*
X229114Y455156D02*
X229341Y455313D01*
X229341D02*
X229682Y455781D01*
Y452500*
X231841Y455781D02*
X230705Y453594D01*
X232409*
X231841Y455781D02*
Y452500D01*
X184000Y451781D02*
Y448500D01*
Y451781D02*
X185023D01*
X185364Y451625*
X185477Y451469*
X185591Y451156*
Y450844*
X185477Y450531*
X185364Y450375*
X185023Y450219*
X184000*
X184795D02*
X185591Y448500D01*
X186614Y451156D02*
X186841Y451313D01*
X186841D02*
X187182Y451781D01*
Y448500*
X188886Y451781D02*
X188545Y451625D01*
X188318Y451156*
X188205Y450375*
Y449906*
X188318Y449125*
X188545Y448656*
X188886Y448500*
X189114*
X189455Y448656*
X189682Y449125*
X189795Y449906*
Y450375*
X189682Y451156*
X189455Y451625*
X189114Y451781*
X188886*
X429298Y522245D02*
Y518964D01*
Y522245D02*
X430321D01*
X430662Y522089*
X430775Y521933*
X430889Y521620*
Y521308*
X430775Y520995*
X430662Y520839*
X430321Y520683*
X429298*
X430093D02*
X430889Y518964D01*
X433389Y522245D02*
X432253D01*
X432139Y520839*
X432253Y520995*
X432593Y521152*
X432934*
X433275Y520995*
X433503Y520683*
X433616Y520214*
X433503Y519902*
X433389Y519433*
X433162Y519120*
X432821Y518964*
X432480*
X432139Y519120*
X432025Y519277*
X431912Y519589*
X306500Y351781D02*
Y348500D01*
Y351781D02*
X307523D01*
X307864Y351625*
X307977Y351469*
X308091Y351156*
Y350844*
X307977Y350531*
X307864Y350375*
X307523Y350219*
X306500*
X307295D02*
X308091Y348500D01*
X310477Y351313D02*
X310364Y351625D01*
X310023Y351781*
X309795*
X309455Y351625*
X309227Y351156*
X309114Y350375*
Y349594*
X309227Y348969*
X309455Y348656*
X309795Y348500*
X309909*
X310250Y348656*
X310477Y348969*
X310591Y349438*
Y349594*
X310477Y350063*
X310250Y350375*
X309909Y350531*
X309795*
X309455Y350375*
X309227Y350063*
X309114Y349594*
X313091Y350688D02*
X312977Y350219D01*
X312750Y349906*
X312409Y349750*
X312295*
X311955Y349906*
X311727Y350219*
X311614Y350688*
Y350844*
X311727Y351313*
X311955Y351625*
X312295Y351781*
X312409*
X312750Y351625*
X312977Y351313*
X313091Y350688*
Y349906*
X312977Y349125*
X312750Y348656*
X312409Y348500*
X312182*
X311841Y348656*
X311727Y348969*
X377500Y351781D02*
Y348500D01*
Y351781D02*
X378523D01*
X378864Y351625*
X378977Y351469*
X379091Y351156*
Y350844*
X378977Y350531*
X378864Y350375*
X378523Y350219*
X377500*
X378295D02*
X379091Y348500D01*
X380682Y351781D02*
X380341Y351625D01*
X380227Y351313*
Y351000*
X380341Y350688*
X380568Y350531*
X381023Y350375*
X381364Y350219*
X381591Y349906*
X381705Y349594*
Y349125*
X381591Y348813*
X381477Y348656*
X381136Y348500*
X380682*
X380341Y348656*
X380227Y348813*
X380114Y349125*
Y349594*
X380227Y349906*
X380455Y350219*
X380795Y350375*
X381250Y350531*
X381477Y350688*
X381591Y351000*
Y351313*
X381477Y351625*
X381136Y351781*
X380682*
X384318D02*
X383182Y348500D01*
X382727Y351781D02*
X384318D01*
X266000Y126781D02*
Y123500D01*
Y126781D02*
X267023D01*
X267364Y126625*
X267477Y126469*
X267591Y126156*
Y125844*
X267477Y125531*
X267364Y125375*
X267023Y125219*
X266000*
X266795D02*
X267591Y123500D01*
X270205Y126781D02*
X269068Y123500D01*
X268614Y126781D02*
X270205D01*
X272705D02*
X271568D01*
X271455Y125375*
X271568Y125531*
X271909Y125688*
X271909D02*
X272250D01*
X272250D02*
X272591Y125531D01*
X272818Y125219*
X272932Y124750*
X272818Y124438*
X272818D02*
X272705Y123969D01*
X272477Y123656*
X272136Y123500*
X271795*
X271455Y123656*
X271341Y123813*
X271341D02*
X271227Y124125D01*
X251500Y126781D02*
Y123500D01*
Y126781D02*
X252523D01*
X252864Y126625*
X252977Y126469*
X253091Y126156*
Y125844*
X252977Y125531*
X252864Y125375*
X252523Y125219*
X251500*
X252295D02*
X253091Y123500D01*
X255705Y126781D02*
X254568Y123500D01*
X254114Y126781D02*
X255705D01*
X257864D02*
X256727Y124594D01*
X258432*
X257864Y126781D02*
Y123500D01*
X237000Y126781D02*
Y123500D01*
Y126781D02*
X238023D01*
X238364Y126625*
X238477Y126469*
X238591Y126156*
Y125844*
X238477Y125531*
X238364Y125375*
X238023Y125219*
X237000*
X237795D02*
X238591Y123500D01*
X241205Y126781D02*
X240068Y123500D01*
X239614Y126781D02*
X241205D01*
X242455D02*
X243705D01*
X243023Y125531*
X243364*
X243591Y125375*
X243705Y125219*
X243818Y124750*
Y124438*
X243818D02*
X243705Y123969D01*
X243477Y123656*
X243136Y123500*
X242795*
X242455Y123656*
X242341Y123813*
X242341D02*
X242227Y124125D01*
X222500Y126781D02*
Y123500D01*
Y126781D02*
X223523D01*
X223864Y126625*
X223977Y126469*
X224091Y126156*
Y125844*
X223977Y125531*
X223864Y125375*
X223523Y125219*
X222500*
X223295D02*
X224091Y123500D01*
X226705Y126781D02*
X225568Y123500D01*
X225114Y126781D02*
X226705D01*
X227841Y126000D02*
Y126156D01*
X227955Y126469*
X228068Y126625*
X228295Y126781*
X228750*
X228977Y126625*
X229091Y126469*
X229205Y126156*
Y125844*
X229091Y125531*
X228864Y125063*
X228864D02*
X227727Y123500D01*
X229318*
X347000Y351281D02*
Y348000D01*
Y351281D02*
X348023D01*
X348364Y351125*
X348477Y350969*
X348591Y350656*
Y350344*
X348477Y350031*
X348364Y349875*
X348023Y349719*
X347000*
X347795D02*
X348591Y348000D01*
X350182Y351281D02*
X349841Y351125D01*
X349727Y350813*
X349727D02*
Y350500D01*
X349841Y350188*
X349841D02*
X350068Y350031D01*
X350523Y349875*
X350864Y349719*
X351091Y349406*
X351205Y349094*
Y348625*
X351091Y348313*
X351091D02*
X350977Y348156D01*
X350636Y348000*
X350182*
X349841Y348156*
X349727Y348313*
X349727D02*
X349614Y348625D01*
Y349094*
X349727Y349406*
X349955Y349719*
X350295Y349875*
X350750Y350031*
X350977Y350188*
X350977D02*
X351091Y350500D01*
Y350813*
X351091D02*
X350977Y351125D01*
X350636Y351281*
X350182*
X352795D02*
X352455Y351125D01*
X352341Y350813*
X352341D02*
Y350500D01*
X352455Y350188*
X352455D02*
X352682Y350031D01*
X353136Y349875*
X353477Y349719*
X353705Y349406*
X353818Y349094*
Y348625*
X353705Y348313*
X353705D02*
X353591Y348156D01*
X353250Y348000*
X352795*
X352455Y348156*
X352341Y348313*
X352341D02*
X352227Y348625D01*
Y349094*
X352341Y349406*
X352568Y349719*
X352909Y349875*
X353364Y350031*
X353591Y350188*
X353591D02*
X353705Y350500D01*
Y350813*
X353705D02*
X353591Y351125D01*
X353250Y351281*
X352795*
X434419Y522431D02*
Y519150D01*
Y522431D02*
X435442D01*
X435783Y522275*
X435896Y522119*
X436010Y521806*
Y521494*
X435896Y521181*
X435783Y521025*
X435442Y520869*
X434419*
X435214D02*
X436010Y519150D01*
X438396Y521963D02*
X438283Y522275D01*
X437942Y522431*
X437714*
X437374Y522275*
X437146Y521806*
X437033Y521025*
Y520244*
X437146Y519619*
X437374Y519306*
X437714Y519150*
X437828*
X438169Y519306*
X438396Y519619*
X438510Y520088*
Y520244*
X438396Y520713*
X438169Y521025*
X437828Y521181*
X437714*
X437374Y521025*
X437146Y520713*
X437033Y520244*
X277000Y351281D02*
Y348000D01*
Y351281D02*
X278023D01*
X278364Y351125*
X278477Y350969*
X278591Y350656*
Y350344*
X278477Y350031*
X278364Y349875*
X278023Y349719*
X277000*
X277795D02*
X278591Y348000D01*
X281205Y351281D02*
X280068Y348000D01*
X279614Y351281D02*
X281205D01*
X282227Y350656D02*
X282455Y350813D01*
X282455D02*
X282795Y351281D01*
Y348000*
X350000Y167281D02*
Y164000D01*
Y167281D02*
X351023D01*
X351364Y167125*
X351477Y166969*
X351591Y166656*
Y166344*
X351477Y166031*
X351364Y165875*
X351023Y165719*
X350000*
X350795D02*
X351591Y164000D01*
X354205Y167281D02*
X353068Y164000D01*
X352614Y167281D02*
X354205D01*
X355795D02*
X355455Y167125D01*
X355341Y166812*
X355341D02*
Y166500D01*
X355455Y166187*
X355455D02*
X355682Y166031D01*
X356136Y165875*
X356477Y165719*
X356705Y165406*
X356818Y165094*
Y164625*
X356705Y164312*
X356705D02*
X356591Y164156D01*
X356250Y164000*
X355795*
X355455Y164156*
X355341Y164312*
X355341D02*
X355227Y164625D01*
Y165094*
X355341Y165406*
X355568Y165719*
X355909Y165875*
X356364Y166031*
X356591Y166187*
X356591D02*
X356705Y166500D01*
Y166812*
X356705D02*
X356591Y167125D01*
X356250Y167281*
X355795*
X217500Y348281D02*
Y345000D01*
Y348281D02*
X218523D01*
X218864Y348125*
X218977Y347969*
X219091Y347656*
Y347344*
X218977Y347031*
X218864Y346875*
X218523Y346719*
X217500*
X218295D02*
X219091Y345000D01*
X220227Y347500D02*
Y347656D01*
X220341Y347969*
X220455Y348125*
X220682Y348281*
X221136*
X221364Y348125*
X221477Y347969*
X221591Y347656*
Y347344*
X221477Y347031*
X221250Y346563*
X221250D02*
X220114Y345000D01*
X221705*
X224205Y348281D02*
X223068D01*
X222955Y346875*
X223068Y347031*
X223409Y347188*
X223409D02*
X223750D01*
X223750D02*
X224091Y347031D01*
X224318Y346719*
X224432Y346250*
X224318Y345938*
X224318D02*
X224205Y345469D01*
X223977Y345156*
X223636Y345000*
X223295*
X222955Y345156*
X222841Y345313*
X222841D02*
X222727Y345625D01*
X217000Y329781D02*
Y326500D01*
Y329781D02*
X218023D01*
X218364Y329625*
X218477Y329469*
X218591Y329156*
Y328844*
X218477Y328531*
X218364Y328375*
X218023Y328219*
X217000*
X217795D02*
X218591Y326500D01*
X219727Y329000D02*
Y329156D01*
X219841Y329469*
X219955Y329625*
X220182Y329781*
X220636*
X220864Y329625*
X220977Y329469*
X221091Y329156*
Y328844*
X220977Y328531*
X220750Y328062*
X220750D02*
X219614Y326500D01*
X221205*
X222795Y329781D02*
X222455Y329625D01*
X222341Y329312*
X222341D02*
Y329000D01*
X222455Y328687*
X222455D02*
X222682Y328531D01*
X223136Y328375*
X223477Y328219*
X223705Y327906*
X223818Y327594*
Y327125*
X223705Y326812*
X223705D02*
X223591Y326656D01*
X223250Y326500*
X222795*
X222455Y326656*
X222341Y326812*
X222341D02*
X222227Y327125D01*
Y327594*
X222341Y327906*
X222568Y328219*
X222909Y328375*
X223364Y328531*
X223591Y328687*
X223591D02*
X223705Y329000D01*
Y329312*
X223705D02*
X223591Y329625D01*
X223250Y329781*
X222795*
X237500Y329281D02*
Y326000D01*
Y329281D02*
X238523D01*
X238864Y329125*
X238977Y328969*
X239091Y328656*
Y328344*
X238977Y328031*
X238864Y327875*
X238523Y327719*
X237500*
X238295D02*
X239091Y326000D01*
X240227Y328500D02*
Y328656D01*
X240341Y328969*
X240455Y329125*
X240682Y329281*
X241136*
X241364Y329125*
X241477Y328969*
X241591Y328656*
Y328344*
X241477Y328031*
X241250Y327562*
X241250D02*
X240114Y326000D01*
X241705*
X244205Y328187D02*
X244091Y327719D01*
X243864Y327406*
X243523Y327250*
X243409*
X243068Y327406*
X242841Y327719*
X242727Y328187*
X242727D02*
Y328344D01*
X242841Y328812*
X242841D02*
X243068Y329125D01*
X243409Y329281*
X243523*
X243864Y329125*
X244091Y328812*
X244091D02*
X244205Y328187D01*
X244205D02*
Y327406D01*
X244091Y326625*
X243864Y326156*
X243523Y326000*
X243295*
X242955Y326156*
X242841Y326469*
X257000Y329281D02*
Y326000D01*
Y329281D02*
X258023D01*
X258364Y329125*
X258477Y328969*
X258591Y328656*
Y328344*
X258477Y328031*
X258364Y327875*
X258023Y327719*
X257000*
X257795D02*
X258591Y326000D01*
X259841Y329281D02*
X261091D01*
X260409Y328031*
X260750*
X260977Y327875*
X261091Y327719*
X261205Y327250*
Y326937*
X261205D02*
X261091Y326469D01*
X260864Y326156*
X260523Y326000*
X260182*
X259841Y326156*
X259727Y326312*
X259727D02*
X259614Y326625D01*
X262909Y329281D02*
X262568Y329125D01*
X262341Y328656*
X262227Y327875*
Y327406*
X262341Y326625*
X262568Y326156*
X262909Y326000*
X263136*
X263477Y326156*
X263705Y326625*
X263818Y327406*
Y327875*
X263705Y328656*
X263477Y329125*
X263136Y329281*
X262909*
X263500Y348281D02*
Y345000D01*
Y348281D02*
X264523D01*
X264864Y348125*
X264977Y347969*
X265091Y347656*
Y347344*
X264977Y347031*
X264864Y346875*
X264523Y346719*
X263500*
X264295D02*
X265091Y345000D01*
X266227Y347500D02*
Y347656D01*
X266341Y347969*
X266455Y348125*
X266682Y348281*
X267136*
X267364Y348125*
X267477Y347969*
X267591Y347656*
Y347344*
X267477Y347031*
X267250Y346563*
X267250D02*
X266114Y345000D01*
X267705*
X270318Y348281D02*
X269182Y345000D01*
X268727Y348281D02*
X270318D01*
X191000Y164781D02*
Y161500D01*
Y164781D02*
X192023D01*
X192364Y164625*
X192477Y164469*
X192591Y164156*
Y163844*
X192477Y163531*
X192364Y163375*
X192023Y163219*
X191000*
X191795D02*
X192591Y161500D01*
X195205Y164781D02*
X194068Y161500D01*
X193614Y164781D02*
X195205D01*
X197818D02*
X196682Y161500D01*
X196227Y164781D02*
X197818D01*
X174000D02*
Y161500D01*
Y164781D02*
X175023D01*
X175364Y164625*
X175477Y164469*
X175591Y164156*
Y163844*
X175477Y163531*
X175364Y163375*
X175023Y163219*
X174000*
X174795D02*
X175591Y161500D01*
X178205Y164781D02*
X177068Y161500D01*
X176614Y164781D02*
X178205D01*
X180591Y164313D02*
X180477Y164625D01*
X180136Y164781*
X179909*
X179568Y164625*
X179341Y164156*
X179227Y163375*
Y162594*
X179341Y161969*
X179568Y161656*
X179909Y161500*
X180023*
X180364Y161656*
X180591Y161969*
X180705Y162438*
X180705D02*
Y162594D01*
X180591Y163063*
X180591D02*
X180364Y163375D01*
X180023Y163531*
X179909*
X179568Y163375*
X179341Y163063*
X179341D02*
X179227Y162594D01*
X229500Y293281D02*
Y290000D01*
Y293281D02*
X230523D01*
X230864Y293125*
X230977Y292969*
X231091Y292656*
Y292344*
X230977Y292031*
X230864Y291875*
X230523Y291719*
X229500*
X230295D02*
X231091Y290000D01*
X233250Y293281D02*
X232114Y291094D01*
X233818*
X233250Y293281D02*
Y290000D01*
X234955Y292500D02*
Y292656D01*
X235068Y292969*
X235182Y293125*
X235409Y293281*
X235864*
X236091Y293125*
X236205Y292969*
X236318Y292656*
Y292344*
X236205Y292031*
X235977Y291563*
X235977D02*
X234841Y290000D01*
X236432*
X250500Y293281D02*
Y290000D01*
Y293281D02*
X251523D01*
X251864Y293125*
X251977Y292969*
X252091Y292656*
Y292344*
X251977Y292031*
X251864Y291875*
X251523Y291719*
X250500*
X251295D02*
X252091Y290000D01*
X254250Y293281D02*
X253114Y291094D01*
X254818*
X254250Y293281D02*
Y290000D01*
X256068Y293281D02*
X257318D01*
X256636Y292031*
X256977*
X257205Y291875*
X257318Y291719*
X257432Y291250*
Y290938*
X257432D02*
X257318Y290469D01*
X257091Y290156*
X256750Y290000*
X256409*
X256068Y290156*
X255955Y290313*
X255955D02*
X255841Y290625D01*
X156000Y348281D02*
Y345000D01*
Y348281D02*
X157023D01*
X157364Y348125*
X157477Y347969*
X157591Y347656*
Y347344*
X157477Y347031*
X157364Y346875*
X157023Y346719*
X156000*
X156795D02*
X157591Y345000D01*
X159750Y348281D02*
X158614Y346094D01*
X160318*
X159750Y348281D02*
Y345000D01*
X162818Y347188D02*
X162705Y346719D01*
X162477Y346406*
X162136Y346250*
X162023*
X161682Y346406*
X161455Y346719*
X161341Y347188*
X161341D02*
Y347344D01*
X161455Y347813*
X161455D02*
X161682Y348125D01*
X162023Y348281*
X162136*
X162477Y348125*
X162705Y347813*
X162705D02*
X162818Y347188D01*
X162818D02*
Y346406D01*
X162705Y345625*
X162477Y345156*
X162136Y345000*
X161909*
X161568Y345156*
X161455Y345469*
X270000Y293281D02*
Y290000D01*
Y293281D02*
X271023D01*
X271364Y293125*
X271477Y292969*
X271591Y292656*
Y292344*
X271477Y292031*
X271364Y291875*
X271023Y291719*
X270000*
X270795D02*
X271591Y290000D01*
X273750Y293281D02*
X272614Y291094D01*
X274318*
X273750Y293281D02*
Y290000D01*
X276477Y293281D02*
X275341Y291094D01*
X277045*
X276477Y293281D02*
Y290000D01*
X229500Y301781D02*
Y298500D01*
Y301781D02*
X230523D01*
X230864Y301625*
X230977Y301469*
X231091Y301156*
Y300844*
X230977Y300531*
X230864Y300375*
X230523Y300219*
X229500*
X230295D02*
X231091Y298500D01*
X232341Y301781D02*
X233591D01*
X232909Y300531*
X233250*
X233477Y300375*
X233591Y300219*
X233705Y299750*
Y299438*
X233705D02*
X233591Y298969D01*
X233364Y298656*
X233023Y298500*
X232682*
X232341Y298656*
X232227Y298813*
X232227D02*
X232114Y299125D01*
X236318Y301781D02*
X235182Y298500D01*
X234727Y301781D02*
X236318D01*
X250000D02*
Y298500D01*
Y301781D02*
X251023D01*
X251364Y301625*
X251477Y301469*
X251591Y301156*
Y300844*
X251477Y300531*
X251364Y300375*
X251023Y300219*
X250000*
X250795D02*
X251591Y298500D01*
X252841Y301781D02*
X254091D01*
X253409Y300531*
X253750*
X253977Y300375*
X254091Y300219*
X254205Y299750*
Y299438*
X254205D02*
X254091Y298969D01*
X253864Y298656*
X253523Y298500*
X253182*
X252841Y298656*
X252727Y298813*
X252727D02*
X252614Y299125D01*
X255795Y301781D02*
X255455Y301625D01*
X255341Y301313*
X255341D02*
Y301000D01*
X255455Y300688*
X255455D02*
X255682Y300531D01*
X256136Y300375*
X256477Y300219*
X256705Y299906*
X256818Y299594*
Y299125*
X256705Y298813*
X256705D02*
X256591Y298656D01*
X256250Y298500*
X255795*
X255455Y298656*
X255341Y298813*
X255341D02*
X255227Y299125D01*
Y299594*
X255341Y299906*
X255568Y300219*
X255909Y300375*
X256364Y300531*
X256591Y300688*
X256591D02*
X256705Y301000D01*
Y301313*
X256705D02*
X256591Y301625D01*
X256250Y301781*
X255795*
X270000D02*
Y298500D01*
Y301781D02*
X271023D01*
X271364Y301625*
X271477Y301469*
X271591Y301156*
Y300844*
X271477Y300531*
X271364Y300375*
X271023Y300219*
X270000*
X270795D02*
X271591Y298500D01*
X272841Y301781D02*
X274091D01*
X273409Y300531*
X273750*
X273977Y300375*
X274091Y300219*
X274205Y299750*
Y299438*
X274205D02*
X274091Y298969D01*
X273864Y298656*
X273523Y298500*
X273182*
X272841Y298656*
X272727Y298813*
X272727D02*
X272614Y299125D01*
X276705Y300688D02*
X276591Y300219D01*
X276364Y299906*
X276023Y299750*
X275909*
X275568Y299906*
X275341Y300219*
X275227Y300688*
X275227D02*
Y300844D01*
X275341Y301313*
X275341D02*
X275568Y301625D01*
X275909Y301781*
X276023*
X276364Y301625*
X276591Y301313*
X276591D02*
X276705Y300688D01*
X276705D02*
Y299906D01*
X276591Y299125*
X276364Y298656*
X276023Y298500*
X275795*
X275455Y298656*
X275341Y298969*
X193500Y347781D02*
Y344500D01*
Y347781D02*
X194523D01*
X194864Y347625*
X194977Y347469*
X195091Y347156*
Y346844*
X194977Y346531*
X194864Y346375*
X194523Y346219*
X193500*
X194295D02*
X195091Y344500D01*
X197591Y347781D02*
X196455D01*
X196341Y346375*
X196455Y346531*
X196795Y346688*
X196795D02*
X197136D01*
X197136D02*
X197477Y346531D01*
X197705Y346219*
X197818Y345750*
X197705Y345438*
X197705D02*
X197591Y344969D01*
X197364Y344656*
X197023Y344500*
X196682*
X196341Y344656*
X196227Y344813*
X196227D02*
X196114Y345125D01*
X199523Y347781D02*
X199182Y347625D01*
X198955Y347156*
X198841Y346375*
Y345906*
X198955Y345125*
X199182Y344656*
X199523Y344500*
X199750*
X200091Y344656*
X200318Y345125*
X200432Y345906*
Y346375*
X200318Y347156*
X200091Y347625*
X199750Y347781*
X199523*
X254500Y348281D02*
Y345000D01*
Y348281D02*
X255523D01*
X255864Y348125*
X255977Y347969*
X256091Y347656*
Y347344*
X255977Y347031*
X255864Y346875*
X255523Y346719*
X254500*
X255295D02*
X256091Y345000D01*
X257227Y347500D02*
Y347656D01*
X257341Y347969*
X257455Y348125*
X257682Y348281*
X258136*
X258364Y348125*
X258477Y347969*
X258591Y347656*
Y347344*
X258477Y347031*
X258250Y346563*
X258250D02*
X257114Y345000D01*
X258705*
X261091Y347813D02*
X260977Y348125D01*
X260636Y348281*
X260409*
X260068Y348125*
X259841Y347656*
X259727Y346875*
Y346094*
X259841Y345469*
X260068Y345156*
X260409Y345000*
X260523*
X260864Y345156*
X261091Y345469*
X261205Y345938*
X261205D02*
Y346094D01*
X261091Y346563*
X261091D02*
X260864Y346875D01*
X260523Y347031*
X260409*
X260068Y346875*
X259841Y346563*
X259841D02*
X259727Y346094D01*
X398000Y106781D02*
Y103500D01*
Y106781D02*
X399023D01*
X399364Y106625*
X399477Y106469*
X399591Y106156*
Y105844*
X399477Y105531*
X399364Y105375*
X399023Y105219*
X398000*
X398795D02*
X399591Y103500D01*
X401977Y106313D02*
X401864Y106625D01*
X401523Y106781*
X401295*
X400955Y106625*
X400727Y106156*
X400614Y105375*
Y104594*
X400727Y103969*
X400955Y103656*
X401295Y103500*
X401409*
X401750Y103656*
X401977Y103969*
X402091Y104438*
Y104594*
X401977Y105063*
X401750Y105375*
X401409Y105531*
X401295*
X400955Y105375*
X400727Y105063*
X400614Y104594*
X404591Y106781D02*
X403455D01*
X403341Y105375*
X403455Y105531*
X403795Y105688*
X404136*
X404477Y105531*
X404705Y105219*
X404818Y104750*
X404705Y104438*
X404591Y103969*
X404364Y103656*
X404023Y103500*
X403682*
X403341Y103656*
X403227Y103813*
X403114Y104125*
X268500Y462281D02*
Y459000D01*
Y462281D02*
X269523D01*
X269864Y462125*
X269977Y461969*
X270091Y461656*
Y461344*
X269977Y461031*
X269864Y460875*
X269523Y460719*
X268500*
X269295D02*
X270091Y459000D01*
X271114Y461656D02*
X271341Y461813D01*
X271341D02*
X271682Y462281D01*
Y459000*
X272705Y461656D02*
X272932Y461813D01*
X272932D02*
X273273Y462281D01*
Y459000*
X414500Y357281D02*
Y354000D01*
Y357281D02*
X415523D01*
X415864Y357125*
X415977Y356969*
X416091Y356656*
Y356344*
X415977Y356031*
X415864Y355875*
X415523Y355719*
X414500*
X415295D02*
X416091Y354000D01*
X418477Y356813D02*
X418364Y357125D01*
X418023Y357281*
X417795*
X417455Y357125*
X417227Y356656*
X417114Y355875*
Y355094*
X417227Y354469*
X417455Y354156*
X417795Y354000*
X417909*
X418250Y354156*
X418477Y354469*
X418591Y354938*
X418591D02*
Y355094D01*
X418477Y355563*
X418477D02*
X418250Y355875D01*
X417909Y356031*
X417795*
X417455Y355875*
X417227Y355563*
X417227D02*
X417114Y355094D01*
X419727Y356500D02*
Y356656D01*
X419841Y356969*
X419955Y357125*
X420182Y357281*
X420636*
X420864Y357125*
X420977Y356969*
X421091Y356656*
Y356344*
X420977Y356031*
X420750Y355563*
X420750D02*
X419614Y354000D01*
X421205*
X407000Y357281D02*
Y354000D01*
Y357281D02*
X408023D01*
X408364Y357125*
X408477Y356969*
X408591Y356656*
Y356344*
X408477Y356031*
X408364Y355875*
X408023Y355719*
X407000*
X407795D02*
X408591Y354000D01*
X410977Y356813D02*
X410864Y357125D01*
X410523Y357281*
X410295*
X409955Y357125*
X409727Y356656*
X409614Y355875*
Y355094*
X409727Y354469*
X409955Y354156*
X410295Y354000*
X410409*
X410750Y354156*
X410977Y354469*
X411091Y354938*
X411091D02*
Y355094D01*
X410977Y355563*
X410977D02*
X410750Y355875D01*
X410409Y356031*
X410295*
X409955Y355875*
X409727Y355563*
X409727D02*
X409614Y355094D01*
X412114Y356656D02*
X412341Y356813D01*
X412341D02*
X412682Y357281D01*
Y354000*
X189500Y293281D02*
Y290000D01*
Y293281D02*
X190523D01*
X190864Y293125*
X190977Y292969*
X191091Y292656*
Y292344*
X190977Y292031*
X190864Y291875*
X190523Y291719*
X189500*
X190295D02*
X191091Y290000D01*
X193591Y293281D02*
X192455D01*
X192341Y291875*
X192455Y292031*
X192795Y292188*
X192795D02*
X193136D01*
X193136D02*
X193477Y292031D01*
X193705Y291719*
X193818Y291250*
X193705Y290938*
X193705D02*
X193591Y290469D01*
X193364Y290156*
X193023Y290000*
X192682*
X192341Y290156*
X192227Y290313*
X192227D02*
X192114Y290625D01*
X196318Y292188D02*
X196205Y291719D01*
X195977Y291406*
X195636Y291250*
X195523*
X195182Y291406*
X194955Y291719*
X194841Y292188*
X194841D02*
Y292344D01*
X194955Y292813*
X194955D02*
X195182Y293125D01*
X195523Y293281*
X195636*
X195977Y293125*
X196205Y292813*
X196205D02*
X196318Y292188D01*
X196318D02*
Y291406D01*
X196205Y290625*
X195977Y290156*
X195636Y290000*
X195409*
X195068Y290156*
X194955Y290469*
X406500Y338781D02*
Y335500D01*
Y338781D02*
X407523D01*
X407864Y338625*
X407977Y338469*
X408091Y338156*
Y337844*
X407977Y337531*
X407864Y337375*
X407523Y337219*
X406500*
X407295D02*
X408091Y335500D01*
X410477Y338313D02*
X410364Y338625D01*
X410023Y338781*
X409795*
X409455Y338625*
X409227Y338156*
X409114Y337375*
Y336594*
X409227Y335969*
X409455Y335656*
X409795Y335500*
X409909*
X410250Y335656*
X410477Y335969*
X410591Y336438*
X410591D02*
Y336594D01*
X410477Y337063*
X410477D02*
X410250Y337375D01*
X409909Y337531*
X409795*
X409455Y337375*
X409227Y337063*
X409227D02*
X409114Y336594D01*
X411841Y338781D02*
X413091D01*
X412409Y337531*
X412750*
X412977Y337375*
X413091Y337219*
X413205Y336750*
Y336438*
X413205D02*
X413091Y335969D01*
X412864Y335656*
X412523Y335500*
X412182*
X411841Y335656*
X411727Y335813*
X411727D02*
X411614Y336125D01*
X414500Y338781D02*
Y335500D01*
Y338781D02*
X415523D01*
X415864Y338625*
X415977Y338469*
X416091Y338156*
Y337844*
X415977Y337531*
X415864Y337375*
X415523Y337219*
X414500*
X415295D02*
X416091Y335500D01*
X418477Y338313D02*
X418364Y338625D01*
X418023Y338781*
X417795*
X417455Y338625*
X417227Y338156*
X417114Y337375*
Y336594*
X417227Y335969*
X417455Y335656*
X417795Y335500*
X417909*
X418250Y335656*
X418477Y335969*
X418591Y336438*
X418591D02*
Y336594D01*
X418477Y337063*
X418477D02*
X418250Y337375D01*
X417909Y337531*
X417795*
X417455Y337375*
X417227Y337063*
X417227D02*
X417114Y336594D01*
X420750Y338781D02*
X419614Y336594D01*
X421318*
X420750Y338781D02*
Y335500D01*
X156000Y329281D02*
Y326000D01*
Y329281D02*
X157023D01*
X157364Y329125*
X157477Y328969*
X157591Y328656*
Y328344*
X157477Y328031*
X157364Y327875*
X157023Y327719*
X156000*
X156795D02*
X157591Y326000D01*
X160091Y329281D02*
X158955D01*
X158841Y327875*
X158955Y328031*
X159295Y328187*
X159295D02*
X159636D01*
X159636D02*
X159977Y328031D01*
X160205Y327719*
X160318Y327250*
X160205Y326937*
X160205D02*
X160091Y326469D01*
X159864Y326156*
X159523Y326000*
X159182*
X158841Y326156*
X158727Y326312*
X158727D02*
X158614Y326625D01*
X161455Y328500D02*
Y328656D01*
X161568Y328969*
X161682Y329125*
X161909Y329281*
X162364*
X162591Y329125*
X162705Y328969*
X162818Y328656*
Y328344*
X162705Y328031*
X162477Y327562*
X162477D02*
X161341Y326000D01*
X162932*
X209500Y292781D02*
Y289500D01*
Y292781D02*
X210523D01*
X210864Y292625*
X210977Y292469*
X211091Y292156*
Y291844*
X210977Y291531*
X210864Y291375*
X210523Y291219*
X209500*
X210295D02*
X211091Y289500D01*
X213477Y292313D02*
X213364Y292625D01*
X213023Y292781*
X212795*
X212455Y292625*
X212227Y292156*
X212114Y291375*
Y290594*
X212227Y289969*
X212455Y289656*
X212795Y289500*
X212909*
X213250Y289656*
X213477Y289969*
X213591Y290438*
X213591D02*
Y290594D01*
X213477Y291063*
X213477D02*
X213250Y291375D01*
X212909Y291531*
X212795*
X212455Y291375*
X212227Y291063*
X212227D02*
X212114Y290594D01*
X215295Y292781D02*
X214955Y292625D01*
X214727Y292156*
X214614Y291375*
Y290906*
X214727Y290125*
X214955Y289656*
X215295Y289500*
X215523*
X215864Y289656*
X216091Y290125*
X216205Y290906*
Y291375*
X216091Y292156*
X215864Y292625*
X215523Y292781*
X215295*
X169000Y301281D02*
Y298000D01*
Y301281D02*
X170023D01*
X170364Y301125*
X170477Y300969*
X170591Y300656*
Y300344*
X170477Y300031*
X170364Y299875*
X170023Y299719*
X169000*
X169795D02*
X170591Y298000D01*
X173091Y301281D02*
X171955D01*
X171841Y299875*
X171955Y300031*
X172295Y300188*
X172295D02*
X172636D01*
X172636D02*
X172977Y300031D01*
X173205Y299719*
X173318Y299250*
X173205Y298938*
X173205D02*
X173091Y298469D01*
X172864Y298156*
X172523Y298000*
X172182*
X171841Y298156*
X171727Y298313*
X171727D02*
X171614Y298625D01*
X175818Y301281D02*
X174682D01*
X174568Y299875*
X174682Y300031*
X175023Y300188*
X175023D02*
X175364D01*
X175364D02*
X175705Y300031D01*
X175932Y299719*
X176045Y299250*
X175932Y298938*
X175932D02*
X175818Y298469D01*
X175591Y298156*
X175250Y298000*
X174909*
X174568Y298156*
X174455Y298313*
X174455D02*
X174341Y298625D01*
X189500Y301281D02*
Y298000D01*
Y301281D02*
X190523D01*
X190864Y301125*
X190977Y300969*
X191091Y300656*
Y300344*
X190977Y300031*
X190864Y299875*
X190523Y299719*
X189500*
X190295D02*
X191091Y298000D01*
X193591Y301281D02*
X192455D01*
X192341Y299875*
X192455Y300031*
X192795Y300188*
X192795D02*
X193136D01*
X193136D02*
X193477Y300031D01*
X193705Y299719*
X193818Y299250*
X193705Y298938*
X193705D02*
X193591Y298469D01*
X193364Y298156*
X193023Y298000*
X192682*
X192341Y298156*
X192227Y298313*
X192227D02*
X192114Y298625D01*
X196205Y300813D02*
X196091Y301125D01*
X195750Y301281*
X195523*
X195182Y301125*
X194955Y300656*
X194841Y299875*
Y299094*
X194955Y298469*
X195182Y298156*
X195523Y298000*
X195636*
X195977Y298156*
X196205Y298469*
X196318Y298938*
X196318D02*
Y299094D01*
X196205Y299563*
X196205D02*
X195977Y299875D01*
X195636Y300031*
X195523*
X195182Y299875*
X194955Y299563*
X194955D02*
X194841Y299094D01*
X209500Y301281D02*
Y298000D01*
Y301281D02*
X210523D01*
X210864Y301125*
X210977Y300969*
X211091Y300656*
Y300344*
X210977Y300031*
X210864Y299875*
X210523Y299719*
X209500*
X210295D02*
X211091Y298000D01*
X213591Y301281D02*
X212455D01*
X212341Y299875*
X212455Y300031*
X212795Y300188*
X212795D02*
X213136D01*
X213136D02*
X213477Y300031D01*
X213705Y299719*
X213818Y299250*
X213705Y298938*
X213705D02*
X213591Y298469D01*
X213364Y298156*
X213023Y298000*
X212682*
X212341Y298156*
X212227Y298313*
X212227D02*
X212114Y298625D01*
X216432Y301281D02*
X215295Y298000D01*
X214841Y301281D02*
X216432D01*
X199500Y238281D02*
Y235938D01*
X199500D02*
X199614Y235469D01*
X199841Y235156*
X200182Y235000*
X200409*
X200750Y235156*
X200977Y235469*
X201091Y235938*
X201091D02*
Y238281D01*
X202114Y237656D02*
X202341Y237813D01*
X202341D02*
X202682Y238281D01*
Y235000*
X203705Y237656D02*
X203932Y237813D01*
X203932D02*
X204273Y238281D01*
Y235000*
X173500Y238281D02*
Y235938D01*
X173500D02*
X173614Y235469D01*
X173841Y235156*
X174182Y235000*
X174409*
X174750Y235156*
X174977Y235469*
X175091Y235938*
X175091D02*
Y238281D01*
X176114Y237656D02*
X176341Y237813D01*
X176341D02*
X176682Y238281D01*
Y235000*
X178386Y238281D02*
X178045Y238125D01*
X177818Y237656*
X177705Y236875*
Y236406*
X177818Y235625*
X178045Y235156*
X178386Y235000*
X178614*
X178955Y235156*
X179182Y235625*
X179295Y236406*
Y236875*
X179182Y237656*
X178955Y238125*
X178614Y238281*
X178386*
X200000Y267281D02*
Y264938D01*
X200000D02*
X200114Y264469D01*
X200341Y264156*
X200682Y264000*
X200909*
X201250Y264156*
X201477Y264469*
X201591Y264938*
X201591D02*
Y267281D01*
X204091Y266188D02*
X203977Y265719D01*
X203750Y265406*
X203409Y265250*
X203295*
X202955Y265406*
X202727Y265719*
X202614Y266188*
X202614D02*
Y266344D01*
X202727Y266813*
X202727D02*
X202955Y267125D01*
X203295Y267281*
X203409*
X203750Y267125*
X203977Y266813*
X203977D02*
X204091Y266188D01*
X204091D02*
Y265406D01*
X203977Y264625*
X203750Y264156*
X203409Y264000*
X203182*
X202841Y264156*
X202727Y264469*
X189500Y205781D02*
Y203438D01*
X189500D02*
X189614Y202969D01*
X189841Y202656*
X190182Y202500*
X190409*
X190750Y202656*
X190977Y202969*
X191091Y203438*
X191091D02*
Y205781D01*
X193705D02*
X192568Y202500D01*
X192114Y205781D02*
X193705D01*
X181500Y267281D02*
Y264938D01*
X181500D02*
X181614Y264469D01*
X181841Y264156*
X182182Y264000*
X182409*
X182750Y264156*
X182977Y264469*
X183091Y264938*
X183091D02*
Y267281D01*
X184682D02*
X184341Y267125D01*
X184227Y266813*
X184227D02*
Y266500D01*
X184341Y266188*
X184341D02*
X184568Y266031D01*
X185023Y265875*
X185364Y265719*
X185591Y265406*
X185705Y265094*
Y264625*
X185591Y264313*
X185591D02*
X185477Y264156D01*
X185136Y264000*
X184682*
X184341Y264156*
X184227Y264313*
X184227D02*
X184114Y264625D01*
Y265094*
X184227Y265406*
X184455Y265719*
X184795Y265875*
X185250Y266031*
X185477Y266188*
X185477D02*
X185591Y266500D01*
Y266813*
X185591D02*
X185477Y267125D01*
X185136Y267281*
X184682*
X341205Y570000D02*
X341091Y570313D01*
X341091D02*
X340864Y570625D01*
X340636Y570781*
X340182*
X339955Y570625*
X339727Y570313*
X339727D02*
X339614Y570000D01*
X339500Y569531*
Y568750*
X339614Y568281*
X339727Y567969*
X339955Y567656*
X340182Y567500*
X340636*
X340864Y567656*
X341091Y567969*
X341205Y568281*
X342909Y570781D02*
X342682Y570625D01*
X342455Y570313*
X342455D02*
X342341Y570000D01*
X342227Y569531*
Y568750*
X342341Y568281*
X342455Y567969*
X342682Y567656*
X342909Y567500*
X343364*
X343591Y567656*
X343818Y567969*
X343932Y568281*
X344045Y568750*
Y569531*
X343932Y570000*
X343818Y570313*
X343818D02*
X343591Y570625D01*
X343364Y570781*
X342909*
X345068D02*
Y567500D01*
Y570781D02*
X346659Y567500D01*
Y570781D02*
Y567500D01*
X347682Y570156D02*
X347909Y570313D01*
X347909D02*
X348250Y570781D01*
Y567500*
X130500Y164781D02*
Y162438D01*
X130500D02*
X130614Y161969D01*
X130841Y161656*
X131182Y161500*
X131409*
X131750Y161656*
X131977Y161969*
X132091Y162438*
X132091D02*
Y164781D01*
X133114Y164156D02*
X133341Y164313D01*
X133341D02*
X133682Y164781D01*
Y161500*
X136182Y163688D02*
X136068Y163219D01*
X135841Y162906*
X135500Y162750*
X135386*
X135045Y162906*
X134818Y163219*
X134705Y163688*
X134705D02*
Y163844D01*
X134818Y164313*
X134818D02*
X135045Y164625D01*
X135386Y164781*
X135500*
X135841Y164625*
X136068Y164313*
X136068D02*
X136182Y163688D01*
X136182D02*
Y162906D01*
X136068Y162125*
X135841Y161656*
X135500Y161500*
X135273*
X134932Y161656*
X134818Y161969*
X232205Y357500D02*
X232091Y357812D01*
X232091D02*
X231864Y358125D01*
X231636Y358281*
X231182*
X230955Y358125*
X230727Y357812*
X230727D02*
X230614Y357500D01*
X230500Y357031*
Y356250*
X230614Y355781*
X230727Y355469*
X230955Y355156*
X231182Y355000*
X231636*
X231864Y355156*
X232091Y355469*
X232205Y355781*
X233341Y357500D02*
Y357656D01*
X233455Y357969*
X233568Y358125*
X233795Y358281*
X234250*
X234477Y358125*
X234591Y357969*
X234705Y357656*
Y357344*
X234591Y357031*
X234364Y356562*
X234364D02*
X233227Y355000D01*
X234818*
X236068Y358281D02*
X237318D01*
X236636Y357031*
X236977*
X237205Y356875*
X237318Y356719*
X237432Y356250*
Y355937*
X237432D02*
X237318Y355469D01*
X237091Y355156*
X236750Y355000*
X236409*
X236068Y355156*
X235955Y355312*
X235955D02*
X235841Y355625D01*
X187205Y347000D02*
X187091Y347313D01*
X187091D02*
X186864Y347625D01*
X186636Y347781*
X186182*
X185955Y347625*
X185727Y347313*
X185727D02*
X185614Y347000D01*
X185500Y346531*
Y345750*
X185614Y345281*
X185727Y344969*
X185955Y344656*
X186182Y344500*
X186636*
X186864Y344656*
X187091Y344969*
X187205Y345281*
X188455Y347781D02*
X189705D01*
X189023Y346531*
X189364*
X189591Y346375*
X189705Y346219*
X189818Y345750*
Y345438*
X189818D02*
X189705Y344969D01*
X189477Y344656*
X189136Y344500*
X188795*
X188455Y344656*
X188341Y344813*
X188341D02*
X188227Y345125D01*
X192205Y347313D02*
X192091Y347625D01*
X191750Y347781*
X191523*
X191182Y347625*
X190955Y347156*
X190841Y346375*
Y345594*
X190955Y344969*
X191182Y344656*
X191523Y344500*
X191636*
X191977Y344656*
X192205Y344969*
X192318Y345438*
X192318D02*
Y345594D01*
X192205Y346063*
X192205D02*
X191977Y346375D01*
X191636Y346531*
X191523*
X191182Y346375*
X190955Y346063*
X190955D02*
X190841Y345594D01*
X247705Y347500D02*
X247591Y347813D01*
X247591D02*
X247364Y348125D01*
X247136Y348281*
X246682*
X246455Y348125*
X246227Y347813*
X246227D02*
X246114Y347500D01*
X246000Y347031*
Y346250*
X246114Y345781*
X246227Y345469*
X246455Y345156*
X246682Y345000*
X247136*
X247364Y345156*
X247591Y345469*
X247705Y345781*
X248841Y347500D02*
Y347656D01*
X248955Y347969*
X249068Y348125*
X249295Y348281*
X249750*
X249977Y348125*
X250091Y347969*
X250205Y347656*
Y347344*
X250091Y347031*
X249864Y346563*
X249864D02*
X248727Y345000D01*
X250318*
X252477Y348281D02*
X251341Y346094D01*
X253045*
X252477Y348281D02*
Y345000D01*
X235705Y382000D02*
X235591Y382313D01*
X235591D02*
X235364Y382625D01*
X235136Y382781*
X234682*
X234455Y382625*
X234227Y382313*
X234227D02*
X234114Y382000D01*
X234000Y381531*
Y380750*
X234114Y380281*
X234227Y379969*
X234455Y379656*
X234682Y379500*
X235136*
X235364Y379656*
X235591Y379969*
X235705Y380281*
X238205Y382781D02*
X237068D01*
X236955Y381375*
X237068Y381531*
X237409Y381688*
X237409D02*
X237750D01*
X237750D02*
X238091Y381531D01*
X238318Y381219*
X238432Y380750*
X238318Y380438*
X238318D02*
X238205Y379969D01*
X237977Y379656*
X237636Y379500*
X237295*
X236955Y379656*
X236841Y379813*
X236841D02*
X236727Y380125D01*
X240932Y381688D02*
X240818Y381219D01*
X240591Y380906*
X240250Y380750*
X240136*
X239795Y380906*
X239568Y381219*
X239455Y381688*
X239455D02*
Y381844D01*
X239568Y382313*
X239568D02*
X239795Y382625D01*
X240136Y382781*
X240250*
X240591Y382625*
X240818Y382313*
X240818D02*
X240932Y381688D01*
X240932D02*
Y380906D01*
X240818Y380125*
X240591Y379656*
X240250Y379500*
X240023*
X239682Y379656*
X239568Y379969*
X171705Y357000D02*
X171591Y357312D01*
X171591D02*
X171364Y357625D01*
X171136Y357781*
X170682*
X170455Y357625*
X170227Y357312*
X170227D02*
X170114Y357000D01*
X170000Y356531*
Y355750*
X170114Y355281*
X170227Y354969*
X170455Y354656*
X170682Y354500*
X171136*
X171364Y354656*
X171591Y354969*
X171705Y355281*
X172955Y357781D02*
X174205D01*
X173523Y356531*
X173864*
X174091Y356375*
X174205Y356219*
X174318Y355750*
Y355437*
X174318D02*
X174205Y354969D01*
X173977Y354656*
X173636Y354500*
X173295*
X172955Y354656*
X172841Y354812*
X172841D02*
X172727Y355125D01*
X176818Y357781D02*
X175682D01*
X175568Y356375*
X175682Y356531*
X176023Y356687*
X176023D02*
X176364D01*
X176364D02*
X176705Y356531D01*
X176932Y356219*
X177045Y355750*
X176932Y355437*
X176932D02*
X176818Y354969D01*
X176591Y354656*
X176250Y354500*
X175909*
X175568Y354656*
X175455Y354812*
X175455D02*
X175341Y355125D01*
X427705Y233000D02*
X427591Y233312D01*
X427591D02*
X427364Y233625D01*
X427136Y233781*
X426682*
X426455Y233625*
X426227Y233312*
X426227D02*
X426114Y233000D01*
X426000Y232531*
Y231750*
X426114Y231281*
X426227Y230969*
X426455Y230656*
X426682Y230500*
X427136*
X427364Y230656*
X427591Y230969*
X427705Y231281*
X428955Y233781D02*
X430205D01*
X429523Y232531*
X429864*
X430091Y232375*
X430205Y232219*
X430318Y231750*
Y231437*
X430318D02*
X430205Y230969D01*
X429977Y230656*
X429636Y230500*
X429295*
X428955Y230656*
X428841Y230812*
X428841D02*
X428727Y231125D01*
X432818Y232687D02*
X432705Y232219D01*
X432477Y231906*
X432136Y231750*
X432023*
X431682Y231906*
X431455Y232219*
X431341Y232687*
X431341D02*
Y232844D01*
X431455Y233312*
X431455D02*
X431682Y233625D01*
X432023Y233781*
X432136*
X432477Y233625*
X432705Y233312*
X432705D02*
X432818Y232687D01*
X432818D02*
Y231906D01*
X432705Y231125*
X432477Y230656*
X432136Y230500*
X431909*
X431568Y230656*
X431455Y230969*
X427705Y148000D02*
X427591Y148313D01*
X427591D02*
X427364Y148625D01*
X427136Y148781*
X426682*
X426455Y148625*
X426227Y148313*
X426227D02*
X426114Y148000D01*
X426000Y147531*
Y146750*
X426114Y146281*
X426227Y145969*
X426455Y145656*
X426682Y145500*
X427136*
X427364Y145656*
X427591Y145969*
X427705Y146281*
X429864Y148781D02*
X428727Y146594D01*
X430432*
X429864Y148781D02*
Y145500D01*
X432932Y148781D02*
X431795D01*
X431682Y147375*
X431795Y147531*
X432136Y147688*
X432136D02*
X432477D01*
X432477D02*
X432818Y147531D01*
X433045Y147219*
X433159Y146750*
X433045Y146438*
X433045D02*
X432932Y145969D01*
X432705Y145656*
X432364Y145500*
X432023*
X431682Y145656*
X431568Y145813*
X431568D02*
X431455Y146125D01*
X320205Y276000D02*
X320091Y276312D01*
X320091D02*
X319864Y276625D01*
X319636Y276781*
X319182*
X318955Y276625*
X318727Y276312*
X318727D02*
X318614Y276000D01*
X318500Y275531*
Y274750*
X318614Y274281*
X318727Y273969*
X318955Y273656*
X319182Y273500*
X319636*
X319864Y273656*
X320091Y273969*
X320205Y274281*
X321455Y276781D02*
X322705D01*
X322023Y275531*
X322364*
X322591Y275375*
X322705Y275219*
X322818Y274750*
Y274437*
X322818D02*
X322705Y273969D01*
X322477Y273656*
X322136Y273500*
X321795*
X321455Y273656*
X321341Y273812*
X321341D02*
X321227Y274125D01*
X325432Y276781D02*
X324295Y273500D01*
X323841Y276781D02*
X325432D01*
X407705Y187000D02*
X407591Y187313D01*
X407591D02*
X407364Y187625D01*
X407136Y187781*
X406682*
X406455Y187625*
X406227Y187313*
X406227D02*
X406114Y187000D01*
X406000Y186531*
Y185750*
X406114Y185281*
X406227Y184969*
X406455Y184656*
X406682Y184500*
X407136*
X407364Y184656*
X407591Y184969*
X407705Y185281*
X409864Y187781D02*
X408727Y185594D01*
X410432*
X409864Y187781D02*
Y184500D01*
X411682Y187781D02*
X412932D01*
X412250Y186531*
X412591*
X412818Y186375*
X412932Y186219*
X413045Y185750*
Y185438*
X413045D02*
X412932Y184969D01*
X412705Y184656*
X412364Y184500*
X412023*
X411682Y184656*
X411568Y184813*
X411568D02*
X411455Y185125D01*
X369205Y276000D02*
X369091Y276312D01*
X369091D02*
X368864Y276625D01*
X368636Y276781*
X368182*
X367955Y276625*
X367727Y276312*
X367727D02*
X367614Y276000D01*
X367500Y275531*
Y274750*
X367614Y274281*
X367727Y273969*
X367955Y273656*
X368182Y273500*
X368636*
X368864Y273656*
X369091Y273969*
X369205Y274281*
X371364Y276781D02*
X370227Y274594D01*
X371932*
X371364Y276781D02*
Y273500D01*
X374091Y276781D02*
X372955Y274594D01*
X374659*
X374091Y276781D02*
Y273500D01*
X284205Y192000D02*
X284091Y192313D01*
X284091D02*
X283864Y192625D01*
X283636Y192781*
X283182*
X282955Y192625*
X282727Y192313*
X282727D02*
X282614Y192000D01*
X282500Y191531*
Y190750*
X282614Y190281*
X282727Y189969*
X282955Y189656*
X283182Y189500*
X283636*
X283864Y189656*
X284091Y189969*
X284205Y190281*
X286364Y192781D02*
X285227Y190594D01*
X286932*
X286364Y192781D02*
Y189500D01*
X289318Y192313D02*
X289205Y192625D01*
X288864Y192781*
X288636*
X288295Y192625*
X288068Y192156*
X287955Y191375*
Y190594*
X288068Y189969*
X288295Y189656*
X288636Y189500*
X288750*
X289091Y189656*
X289318Y189969*
X289432Y190438*
X289432D02*
Y190594D01*
X289318Y191063*
X289318D02*
X289091Y191375D01*
X288750Y191531*
X288636*
X288295Y191375*
X288068Y191063*
X288068D02*
X287955Y190594D01*
X365705Y166500D02*
X365591Y166812D01*
X365591D02*
X365364Y167125D01*
X365136Y167281*
X364682*
X364455Y167125*
X364227Y166812*
X364227D02*
X364114Y166500D01*
X364000Y166031*
Y165250*
X364114Y164781*
X364227Y164469*
X364455Y164156*
X364682Y164000*
X365136*
X365364Y164156*
X365591Y164469*
X365705Y164781*
X366955Y167281D02*
X368205D01*
X367523Y166031*
X367864*
X368091Y165875*
X368205Y165719*
X368318Y165250*
Y164937*
X368318D02*
X368205Y164469D01*
X367977Y164156*
X367636Y164000*
X367295*
X366955Y164156*
X366841Y164312*
X366841D02*
X366727Y164625D01*
X369909Y167281D02*
X369568Y167125D01*
X369455Y166812*
X369455D02*
Y166500D01*
X369568Y166187*
X369568D02*
X369795Y166031D01*
X370250Y165875*
X370591Y165719*
X370818Y165406*
X370932Y165094*
Y164625*
X370818Y164312*
X370818D02*
X370705Y164156D01*
X370364Y164000*
X369909*
X369568Y164156*
X369455Y164312*
X369455D02*
X369341Y164625D01*
Y165094*
X369455Y165406*
X369682Y165719*
X370023Y165875*
X370477Y166031*
X370705Y166187*
X370705D02*
X370818Y166500D01*
Y166812*
X370818D02*
X370705Y167125D01*
X370364Y167281*
X369909*
X184205Y164000D02*
X184091Y164313D01*
X184091D02*
X183864Y164625D01*
X183636Y164781*
X183182*
X182955Y164625*
X182727Y164313*
X182727D02*
X182614Y164000D01*
X182500Y163531*
Y162750*
X182614Y162281*
X182727Y161969*
X182955Y161656*
X183182Y161500*
X183636*
X183864Y161656*
X184091Y161969*
X184205Y162281*
X186364Y164781D02*
X185227Y162594D01*
X186932*
X186364Y164781D02*
Y161500D01*
X189545Y164781D02*
X188409Y161500D01*
X187955Y164781D02*
X189545D01*
X336205Y382500D02*
X336091Y382813D01*
X336091D02*
X335864Y383125D01*
X335636Y383281*
X335182*
X334955Y383125*
X334727Y382813*
X334727D02*
X334614Y382500D01*
X334500Y382031*
Y381250*
X334614Y380781*
X334727Y380469*
X334955Y380156*
X335182Y380000*
X335636*
X335864Y380156*
X336091Y380469*
X336205Y380781*
X338705Y383281D02*
X337568D01*
X337455Y381875*
X337568Y382031*
X337909Y382188*
X337909D02*
X338250D01*
X338250D02*
X338591Y382031D01*
X338818Y381719*
X338932Y381250*
X338818Y380938*
X338818D02*
X338705Y380469D01*
X338477Y380156*
X338136Y380000*
X337795*
X337455Y380156*
X337341Y380313*
X337341D02*
X337227Y380625D01*
X341432Y383281D02*
X340295D01*
X340182Y381875*
X340295Y382031*
X340636Y382188*
X340636D02*
X340977D01*
X340977D02*
X341318Y382031D01*
X341545Y381719*
X341659Y381250*
X341545Y380938*
X341545D02*
X341432Y380469D01*
X341205Y380156*
X340864Y380000*
X340523*
X340182Y380156*
X340068Y380313*
X340068D02*
X339955Y380625D01*
X246705Y382000D02*
X246591Y382313D01*
X246591D02*
X246364Y382625D01*
X246136Y382781*
X245682*
X245455Y382625*
X245227Y382313*
X245227D02*
X245114Y382000D01*
X245000Y381531*
Y380750*
X245114Y380281*
X245227Y379969*
X245455Y379656*
X245682Y379500*
X246136*
X246364Y379656*
X246591Y379969*
X246705Y380281*
X249205Y382781D02*
X248068D01*
X247955Y381375*
X248068Y381531*
X248409Y381688*
X248409D02*
X248750D01*
X248750D02*
X249091Y381531D01*
X249318Y381219*
X249432Y380750*
X249318Y380438*
X249318D02*
X249205Y379969D01*
X248977Y379656*
X248636Y379500*
X248295*
X247955Y379656*
X247841Y379813*
X247841D02*
X247727Y380125D01*
X252045Y382781D02*
X250909Y379500D01*
X250455Y382781D02*
X252045D01*
X324205Y382500D02*
X324091Y382813D01*
X324091D02*
X323864Y383125D01*
X323636Y383281*
X323182*
X322955Y383125*
X322727Y382813*
X322727D02*
X322614Y382500D01*
X322500Y382031*
Y381250*
X322614Y380781*
X322727Y380469*
X322955Y380156*
X323182Y380000*
X323636*
X323864Y380156*
X324091Y380469*
X324205Y380781*
X326705Y383281D02*
X325568D01*
X325455Y381875*
X325568Y382031*
X325909Y382188*
X325909D02*
X326250D01*
X326250D02*
X326591Y382031D01*
X326818Y381719*
X326932Y381250*
X326818Y380938*
X326818D02*
X326705Y380469D01*
X326477Y380156*
X326136Y380000*
X325795*
X325455Y380156*
X325341Y380313*
X325341D02*
X325227Y380625D01*
X328523Y383281D02*
X328182Y383125D01*
X328068Y382813*
X328068D02*
Y382500D01*
X328182Y382188*
X328182D02*
X328409Y382031D01*
X328864Y381875*
X329205Y381719*
X329432Y381406*
X329545Y381094*
Y380625*
X329432Y380313*
X329432D02*
X329318Y380156D01*
X328977Y380000*
X328523*
X328182Y380156*
X328068Y380313*
X328068D02*
X327955Y380625D01*
Y381094*
X328068Y381406*
X328295Y381719*
X328636Y381875*
X329091Y382031*
X329318Y382188*
X329318D02*
X329432Y382500D01*
Y382813*
X329432D02*
X329318Y383125D01*
X328977Y383281*
X328523*
X419182Y165281D02*
X418955Y165125D01*
X418727Y164813*
X418727D02*
X418614Y164500D01*
X418500Y164031*
Y163250*
X418614Y162781*
X418727Y162469*
X418955Y162156*
X419182Y162000*
X419636*
X419864Y162156*
X420091Y162469*
X420205Y162781*
X420318Y163250*
Y164031*
X420205Y164500*
X420091Y164813*
X420091D02*
X419864Y165125D01*
X419636Y165281*
X419182*
X422932Y164813D02*
X422705Y165125D01*
X422364Y165281*
X421909*
X421568Y165125*
X421341Y164813*
X421341D02*
Y164500D01*
X421455Y164188*
X421455D02*
X421568Y164031D01*
X421795Y163875*
X422477Y163563*
X422477D02*
X422705Y163406D01*
X422818Y163250*
X422932Y162938*
X422932D02*
Y162469D01*
X422705Y162156*
X422364Y162000*
X421909*
X421568Y162156*
X421341Y162469*
X425659Y164500D02*
X425545Y164813D01*
X425545D02*
X425318Y165125D01*
X425091Y165281*
X424636*
X424409Y165125*
X424182Y164813*
X424182D02*
X424068Y164500D01*
X423955Y164031*
Y163250*
X424068Y162781*
X424182Y162469*
X424409Y162156*
X424636Y162000*
X425091*
X425318Y162156*
X425545Y162469*
X425659Y162781*
X426682Y164656D02*
X426909Y164813D01*
X426909D02*
X427250Y165281D01*
Y162000*
X244500Y429281D02*
Y426000D01*
Y429281D02*
X245523D01*
X245864Y429125*
X245977Y428969*
X246091Y428656*
Y428344*
X245977Y428031*
X245864Y427875*
X245523Y427719*
X244500*
X245295D02*
X246091Y426000D01*
X247114Y428656D02*
X247341Y428813D01*
X247341D02*
X247682Y429281D01*
Y426000*
X248705Y428656D02*
X248932Y428813D01*
X248932D02*
X249273Y429281D01*
Y426000*
X250977Y429281D02*
X250636Y429125D01*
X250409Y428656*
X250295Y427875*
Y427406*
X250409Y426625*
X250636Y426156*
X250977Y426000*
X251205*
X251545Y426156*
X251773Y426625*
X251886Y427406*
Y427875*
X251773Y428656*
X251545Y429125*
X251205Y429281*
X250977*
X237500Y440781D02*
Y437500D01*
Y440781D02*
X238523D01*
X238864Y440625*
X238977Y440469*
X239091Y440156*
Y439844*
X238977Y439531*
X238864Y439375*
X238523Y439219*
X237500*
X238295D02*
X239091Y437500D01*
X240114Y440156D02*
X240341Y440313D01*
X240341D02*
X240682Y440781D01*
Y437500*
X241705Y440156D02*
X241932Y440313D01*
X241932D02*
X242273Y440781D01*
Y437500*
X243295Y440156D02*
X243523Y440313D01*
X243523D02*
X243864Y440781D01*
Y437500*
X224000Y429281D02*
Y426000D01*
Y429281D02*
X225023D01*
X225364Y429125*
X225477Y428969*
X225591Y428656*
Y428344*
X225477Y428031*
X225364Y427875*
X225023Y427719*
X224000*
X224795D02*
X225591Y426000D01*
X226614Y428656D02*
X226841Y428813D01*
X226841D02*
X227182Y429281D01*
Y426000*
X228205Y428656D02*
X228432Y428813D01*
X228432D02*
X228773Y429281D01*
Y426000*
X229909Y428500D02*
Y428656D01*
X230023Y428969*
X230136Y429125*
X230364Y429281*
X230818*
X231045Y429125*
X231159Y428969*
X231273Y428656*
Y428344*
X231159Y428031*
X230932Y427563*
X230932D02*
X229795Y426000D01*
X231386*
X215000Y413781D02*
Y410500D01*
Y413781D02*
X216023D01*
X216364Y413625*
X216477Y413469*
X216591Y413156*
Y412844*
X216477Y412531*
X216364Y412375*
X216023Y412219*
X215000*
X215795D02*
X216591Y410500D01*
X217614Y413156D02*
X217841Y413313D01*
X217841D02*
X218182Y413781D01*
Y410500*
X219886Y413781D02*
X219545Y413625D01*
X219318Y413156*
X219205Y412375*
Y411906*
X219318Y411125*
X219545Y410656*
X219886Y410500*
X220114*
X220455Y410656*
X220682Y411125*
X220795Y411906*
Y412375*
X220682Y413156*
X220455Y413625*
X220114Y413781*
X219886*
X223409D02*
X222273Y410500D01*
X221818Y413781D02*
X223409D01*
X358000Y383281D02*
Y380000D01*
Y383281D02*
X359023D01*
X359364Y383125*
X359477Y382969*
X359591Y382656*
Y382344*
X359477Y382031*
X359364Y381875*
X359023Y381719*
X358000*
X358795D02*
X359591Y380000D01*
X360614Y382656D02*
X360841Y382813D01*
X360841D02*
X361182Y383281D01*
Y380000*
X362886Y383281D02*
X362545Y383125D01*
X362318Y382656*
X362205Y381875*
Y381406*
X362318Y380625*
X362545Y380156*
X362886Y380000*
X363114*
X363455Y380156*
X363682Y380625*
X363795Y381406*
Y381875*
X363682Y382656*
X363455Y383125*
X363114Y383281*
X362886*
X364818Y382656D02*
X365045Y382813D01*
X365045D02*
X365386Y383281D01*
Y380000*
X400500Y445281D02*
Y442000D01*
Y445281D02*
X401523D01*
X401864Y445125*
X401977Y444969*
X402091Y444656*
Y444344*
X401977Y444031*
X401864Y443875*
X401523Y443719*
X400500*
X401295D02*
X402091Y442000D01*
X403114Y444656D02*
X403341Y444812D01*
X403341D02*
X403682Y445281D01*
Y442000*
X405386Y445281D02*
X405045Y445125D01*
X404818Y444656*
X404705Y443875*
Y443406*
X404818Y442625*
X405045Y442156*
X405386Y442000*
X405614*
X405955Y442156*
X406182Y442625*
X406295Y443406*
Y443875*
X406182Y444656*
X405955Y445125*
X405614Y445281*
X405386*
X407545D02*
X408795D01*
X408114Y444031*
X408455*
X408682Y443875*
X408795Y443719*
X408909Y443250*
Y442937*
X408909D02*
X408795Y442469D01*
X408568Y442156*
X408227Y442000*
X407886*
X407545Y442156*
X407432Y442312*
X407432D02*
X407318Y442625D01*
X254000Y382781D02*
Y379500D01*
Y382781D02*
X255023D01*
X255364Y382625*
X255477Y382469*
X255591Y382156*
Y381844*
X255477Y381531*
X255364Y381375*
X255023Y381219*
X254000*
X254795D02*
X255591Y379500D01*
X256614Y382156D02*
X256841Y382313D01*
X256841D02*
X257182Y382781D01*
Y379500*
X258886Y382781D02*
X258545Y382625D01*
X258318Y382156*
X258205Y381375*
Y380906*
X258318Y380125*
X258545Y379656*
X258886Y379500*
X259114*
X259455Y379656*
X259682Y380125*
X259795Y380906*
Y381375*
X259682Y382156*
X259455Y382625*
X259114Y382781*
X258886*
X261386D02*
X261045Y382625D01*
X260932Y382313*
X260932D02*
Y382000D01*
X261045Y381688*
X261045D02*
X261273Y381531D01*
X261727Y381375*
X262068Y381219*
X262295Y380906*
X262409Y380594*
Y380125*
X262295Y379813*
X262295D02*
X262182Y379656D01*
X261841Y379500*
X261386*
X261045Y379656*
X260932Y379813*
X260932D02*
X260818Y380125D01*
Y380594*
X260932Y380906*
X261159Y381219*
X261500Y381375*
X261955Y381531*
X262182Y381688*
X262182D02*
X262295Y382000D01*
Y382313*
X262295D02*
X262182Y382625D01*
X261841Y382781*
X261386*
X311000Y178281D02*
Y175938D01*
X311000D02*
X311114Y175469D01*
X311341Y175156*
X311682Y175000*
X311909*
X312250Y175156*
X312477Y175469*
X312591Y175938*
X312591D02*
Y178281D01*
X313614Y177656D02*
X313841Y177813D01*
X313841D02*
X314182Y178281D01*
Y175000*
X315773Y178281D02*
X315432Y178125D01*
X315318Y177813*
X315318D02*
Y177500D01*
X315432Y177188*
X315432D02*
X315659Y177031D01*
X316114Y176875*
X316455Y176719*
X316682Y176406*
X316795Y176094*
Y175625*
X316682Y175313*
X316682D02*
X316568Y175156D01*
X316227Y175000*
X315773*
X315432Y175156*
X315318Y175313*
X315318D02*
X315205Y175625D01*
Y176094*
X315318Y176406*
X315545Y176719*
X315886Y176875*
X316341Y177031*
X316568Y177188*
X316568D02*
X316682Y177500D01*
Y177813*
X316682D02*
X316568Y178125D01*
X316227Y178281*
X315773*
X102918Y539757D02*
X102691Y540070D01*
X102350Y540226*
X101895*
X101554Y540070*
X101327Y539757*
X101327D02*
Y539445D01*
X101441Y539132*
X101441D02*
X101554Y538976D01*
X101782Y538820*
X102463Y538507*
X102463D02*
X102691Y538351D01*
X102804Y538195*
X102918Y537882*
X102918D02*
Y537414D01*
X102691Y537101*
X102350Y536945*
X101895*
X101554Y537101*
X101327Y537414*
X103941Y540226D02*
X104509Y536945D01*
X105077Y540226D02*
X104509Y536945D01*
X105077Y540226D02*
X105645Y536945D01*
X106213Y540226D02*
X105645Y536945D01*
X107236Y539601D02*
X107463Y539757D01*
X107463D02*
X107804Y540226D01*
Y536945*
X121205Y500000D02*
X121091Y500313D01*
X120864Y500625*
X120636Y500781*
X120182*
X119955Y500625*
X119727Y500313*
X119614Y500000*
X119500Y499531*
Y498750*
X119614Y498281*
X119727Y497969*
X119955Y497656*
X120182Y497500*
X120636*
X120864Y497656*
X121091Y497969*
X121205Y498281*
X122795Y500781D02*
X122455Y500625D01*
X122341Y500313*
Y500000*
X122455Y499688*
X122682Y499531*
X123136Y499375*
X123477Y499219*
X123705Y498906*
X123818Y498594*
Y498125*
X123705Y497813*
X123591Y497656*
X123250Y497500*
X122795*
X122455Y497656*
X122341Y497813*
X122227Y498125*
Y498594*
X122341Y498906*
X122568Y499219*
X122909Y499375*
X123364Y499531*
X123591Y499688*
X123705Y500000*
Y500313*
X123591Y500625*
X123250Y500781*
X122795*
X264000Y444281D02*
Y441000D01*
Y444281D02*
X264795D01*
X265136Y444125*
X265364Y443813*
X265364D02*
X265477Y443500D01*
X265591Y443031*
Y442250*
X265477Y441781*
X265364Y441469*
X265136Y441156*
X264795Y441000*
X264000*
X267182Y444281D02*
X266841Y444125D01*
X266727Y443813*
X266727D02*
Y443500D01*
X266841Y443188*
X266841D02*
X267068Y443031D01*
X267523Y442875*
X267864Y442719*
X268091Y442406*
X268205Y442094*
Y441625*
X268091Y441313*
X268091D02*
X267977Y441156D01*
X267636Y441000*
X267182*
X266841Y441156*
X266727Y441313*
X266727D02*
X266614Y441625D01*
Y442094*
X266727Y442406*
X266955Y442719*
X267295Y442875*
X267750Y443031*
X267977Y443188*
X267977D02*
X268091Y443500D01*
Y443813*
X268091D02*
X267977Y444125D01*
X267636Y444281*
X267182*
X369500Y445781D02*
Y442500D01*
Y445781D02*
X370295D01*
X370636Y445625*
X370864Y445313*
X370864D02*
X370977Y445000D01*
X371091Y444531*
Y443750*
X370977Y443281*
X370864Y442969*
X370636Y442656*
X370295Y442500*
X369500*
X373705Y445781D02*
X372568Y442500D01*
X372114Y445781D02*
X373705D01*
X404705Y485500D02*
X404591Y485813D01*
X404591D02*
X404364Y486125D01*
X404136Y486281*
X403682*
X403455Y486125*
X403227Y485813*
X403227D02*
X403114Y485500D01*
X403000Y485031*
Y484250*
X403114Y483781*
X403227Y483469*
X403455Y483156*
X403682Y483000*
X404136*
X404364Y483156*
X404591Y483469*
X404705Y483781*
X405727Y485656D02*
X405955Y485813D01*
X405955D02*
X406295Y486281D01*
Y483000*
X407432Y485500D02*
Y485656D01*
X407545Y485969*
X407659Y486125*
X407886Y486281*
X408341*
X408568Y486125*
X408682Y485969*
X408795Y485656*
Y485344*
X408682Y485031*
X408455Y484563*
X408455D02*
X407318Y483000D01*
X408909*
X428705Y452500D02*
X428591Y452813D01*
X428591D02*
X428364Y453125D01*
X428136Y453281*
X427682*
X427455Y453125*
X427227Y452813*
X427227D02*
X427114Y452500D01*
X427000Y452031*
Y451250*
X427114Y450781*
X427227Y450469*
X427455Y450156*
X427682Y450000*
X428136*
X428364Y450156*
X428591Y450469*
X428705Y450781*
X429841Y452500D02*
Y452656D01*
X429955Y452969*
X430068Y453125*
X430295Y453281*
X430750*
X430977Y453125*
X431091Y452969*
X431205Y452656*
Y452344*
X431091Y452031*
X430864Y451563*
X430864D02*
X429727Y450000D01*
X431318*
X432455Y452500D02*
Y452656D01*
X432568Y452969*
X432682Y453125*
X432909Y453281*
X433364*
X433591Y453125*
X433705Y452969*
X433818Y452656*
Y452344*
X433705Y452031*
X433477Y451563*
X433477D02*
X432341Y450000D01*
X433932*
X362005Y499200D02*
X361891Y499513D01*
X361891D02*
X361664Y499825D01*
X361436Y499981*
X360982*
X360755Y499825*
X360527Y499513*
X360527D02*
X360414Y499200D01*
X360300Y498731*
Y497950*
X360414Y497481*
X360527Y497169*
X360755Y496856*
X360982Y496700*
X361436*
X361664Y496856*
X361891Y497169*
X362005Y497481*
X364505Y498888D02*
X364391Y498419D01*
X364164Y498106*
X363823Y497950*
X363709*
X363368Y498106*
X363141Y498419*
X363027Y498888*
X363027D02*
Y499044D01*
X363141Y499513*
X363141D02*
X363368Y499825D01*
X363709Y499981*
X363823*
X364164Y499825*
X364391Y499513*
X364391D02*
X364505Y498888D01*
X364505D02*
Y498106D01*
X364391Y497325*
X364164Y496856*
X363823Y496700*
X363595*
X363255Y496856*
X363141Y497169*
X293205Y450000D02*
X293091Y450313D01*
X293091D02*
X292864Y450625D01*
X292636Y450781*
X292182*
X291955Y450625*
X291727Y450313*
X291727D02*
X291614Y450000D01*
X291500Y449531*
Y448750*
X291614Y448281*
X291727Y447969*
X291955Y447656*
X292182Y447500*
X292636*
X292864Y447656*
X293091Y447969*
X293205Y448281*
X294341Y450000D02*
Y450156D01*
X294455Y450469*
X294568Y450625*
X294795Y450781*
X295250*
X295477Y450625*
X295591Y450469*
X295705Y450156*
Y449844*
X295591Y449531*
X295364Y449063*
X295364D02*
X294227Y447500D01*
X295818*
X297523Y450781D02*
X297182Y450625D01*
X296955Y450156*
X296841Y449375*
Y448906*
X296955Y448125*
X297182Y447656*
X297523Y447500*
X297750*
X298091Y447656*
X298318Y448125*
X298432Y448906*
Y449375*
X298318Y450156*
X298091Y450625*
X297750Y450781*
X297523*
X260205Y233500D02*
X260091Y233813D01*
X260091D02*
X259864Y234125D01*
X259636Y234281*
X259182*
X258955Y234125*
X258727Y233813*
X258727D02*
X258614Y233500D01*
X258500Y233031*
Y232250*
X258614Y231781*
X258727Y231469*
X258955Y231156*
X259182Y231000*
X259636*
X259864Y231156*
X260091Y231469*
X260205Y231781*
X262364Y234281D02*
X261227Y232094D01*
X262932*
X262364Y234281D02*
Y231000D01*
X264636Y234281D02*
X264295Y234125D01*
X264068Y233656*
X263955Y232875*
Y232406*
X264068Y231625*
X264295Y231156*
X264636Y231000*
X264864*
X265205Y231156*
X265432Y231625*
X265545Y232406*
Y232875*
X265432Y233656*
X265205Y234125*
X264864Y234281*
X264636*
X260705Y218000D02*
X260591Y218313D01*
X260591D02*
X260364Y218625D01*
X260136Y218781*
X259682*
X259455Y218625*
X259227Y218313*
X259227D02*
X259114Y218000D01*
X259000Y217531*
Y216750*
X259114Y216281*
X259227Y215969*
X259455Y215656*
X259682Y215500*
X260136*
X260364Y215656*
X260591Y215969*
X260705Y216281*
X262864Y218781D02*
X261727Y216594D01*
X263432*
X262864Y218781D02*
Y215500D01*
X264568Y218000D02*
Y218156D01*
X264682Y218469*
X264795Y218625*
X265023Y218781*
X265477*
X265705Y218625*
X265818Y218469*
X265932Y218156*
Y217844*
X265818Y217531*
X265591Y217063*
X265591D02*
X264455Y215500D01*
X266045*
X259000Y242281D02*
Y239000D01*
Y242281D02*
X260023D01*
X260364Y242125*
X260477Y241969*
X260591Y241656*
Y241344*
X260477Y241031*
X260364Y240875*
X260023Y240719*
X259000*
X259795D02*
X260591Y239000D01*
X262977Y241812D02*
X262864Y242125D01*
X262523Y242281*
X262295*
X261955Y242125*
X261727Y241656*
X261614Y240875*
Y240094*
X261727Y239469*
X261955Y239156*
X262295Y239000*
X262409*
X262750Y239156*
X262977Y239469*
X263091Y239937*
X263091D02*
Y240094D01*
X262977Y240562*
X262977D02*
X262750Y240875D01*
X262409Y241031*
X262295*
X261955Y240875*
X261727Y240562*
X261727D02*
X261614Y240094D01*
X265477Y241812D02*
X265364Y242125D01*
X265023Y242281*
X264795*
X264455Y242125*
X264227Y241656*
X264114Y240875*
Y240094*
X264227Y239469*
X264455Y239156*
X264795Y239000*
X264909*
X265250Y239156*
X265477Y239469*
X265591Y239937*
X265591D02*
Y240094D01*
X265477Y240562*
X265477D02*
X265250Y240875D01*
X264909Y241031*
X264795*
X264455Y240875*
X264227Y240562*
X264227D02*
X264114Y240094D01*
X259000Y226781D02*
Y223500D01*
Y226781D02*
X260023D01*
X260364Y226625*
X260477Y226469*
X260591Y226156*
Y225844*
X260477Y225531*
X260364Y225375*
X260023Y225219*
X259000*
X259795D02*
X260591Y223500D01*
X262977Y226313D02*
X262864Y226625D01*
X262523Y226781*
X262295*
X261955Y226625*
X261727Y226156*
X261614Y225375*
Y224594*
X261727Y223969*
X261955Y223656*
X262295Y223500*
X262409*
X262750Y223656*
X262977Y223969*
X263091Y224438*
X263091D02*
Y224594D01*
X262977Y225063*
X262977D02*
X262750Y225375D01*
X262409Y225531*
X262295*
X261955Y225375*
X261727Y225063*
X261727D02*
X261614Y224594D01*
X265705Y226781D02*
X264568Y223500D01*
X264114Y226781D02*
X265705D01*
X199921Y407494D02*
Y404213D01*
Y407494D02*
X200717D01*
X201058Y407338*
X201285Y407025*
X201399Y406713*
X201512Y406244*
Y405463*
X201399Y404994*
X201285Y404681*
X201058Y404369*
X200717Y404213*
X199921*
X203671Y407494D02*
X202535Y405306D01*
X204239*
X203671Y407494D02*
Y404213D01*
X369500Y383281D02*
Y380938D01*
X369500D02*
X369614Y380469D01*
X369841Y380156*
X370182Y380000*
X370409*
X370750Y380156*
X370977Y380469*
X371091Y380938*
X371091D02*
Y383281D01*
X372227Y382500D02*
Y382656D01*
X372341Y382969*
X372455Y383125*
X372682Y383281*
X373136*
X373364Y383125*
X373477Y382969*
X373591Y382656*
Y382344*
X373477Y382031*
X373250Y381563*
X373250D02*
X372114Y380000D01*
X373705*
X375409Y383281D02*
X375068Y383125D01*
X374841Y382656*
X374727Y381875*
Y381406*
X374841Y380625*
X375068Y380156*
X375409Y380000*
X375636*
X375977Y380156*
X376205Y380625*
X376318Y381406*
Y381875*
X376205Y382656*
X375977Y383125*
X375636Y383281*
X375409*
X171784Y406943D02*
X171557Y406786D01*
X171330Y406474*
X171216Y406161*
X171102Y405693*
Y404911*
X171216Y404443*
X171330Y404130*
X171557Y403818*
X171784Y403661*
X172239*
X172466Y403818*
X172693Y404130*
X172807Y404443*
X172921Y404911*
Y405693*
X172807Y406161*
X172693Y406474*
X172466Y406786*
X172239Y406943*
X171784*
X172125Y404286D02*
X172807Y403349D01*
X173943Y406318D02*
X174171Y406474D01*
X174511Y406943*
Y403661*
X176216Y406943D02*
X175875Y406786D01*
X175648Y406318*
X175534Y405536*
Y405068*
X175648Y404286*
X175875Y403818*
X176216Y403661*
X176443*
X176784Y403818*
X177011Y404286*
X177125Y405068*
Y405536*
X177011Y406318*
X176784Y406786*
X176443Y406943*
X176216*
X187887D02*
X187659Y406786D01*
X187432Y406474*
X187318Y406161*
X187205Y405693*
Y404911*
X187318Y404443*
X187432Y404130*
X187659Y403818*
X187887Y403661*
X188341*
X188568Y403818*
X188796Y404130*
X188909Y404443*
X189023Y404911*
Y405693*
X188909Y406161*
X188796Y406474*
X188568Y406786*
X188341Y406943*
X187887*
X188227Y404286D02*
X188909Y403349D01*
X190046Y406318D02*
X190273Y406474D01*
X190614Y406943*
Y403661*
X193114Y406943D02*
X191977D01*
X191864Y405536*
X191977Y405693*
X192318Y405849*
X192659*
X193000Y405693*
X193227Y405380*
X193341Y404911*
X193227Y404599*
X193114Y404130*
X192887Y403818*
X192546Y403661*
X192205*
X191864Y403818*
X191750Y403974*
X191637Y404286*
X203000Y121781D02*
Y118500D01*
Y121781D02*
X204023D01*
X204364Y121625*
X204477Y121469*
X204591Y121156*
Y120844*
X204477Y120531*
X204364Y120375*
X204023Y120219*
X203000*
X203795D02*
X204591Y118500D01*
X205841Y121781D02*
X207091D01*
X206409Y120531*
X206750*
X206977Y120375*
X207091Y120219*
X207205Y119750*
Y119437*
X207205D02*
X207091Y118969D01*
X206864Y118656*
X206523Y118500*
X206182*
X205841Y118656*
X205727Y118812*
X205727D02*
X205614Y119125D01*
X208227Y121156D02*
X208455Y121312D01*
X208455D02*
X208795Y121781D01*
Y118500*
X223500Y121781D02*
Y118500D01*
Y121781D02*
X224523D01*
X224864Y121625*
X224977Y121469*
X225091Y121156*
Y120844*
X224977Y120531*
X224864Y120375*
X224523Y120219*
X223500*
X224295D02*
X225091Y118500D01*
X226341Y121781D02*
X227591D01*
X226909Y120531*
X227250*
X227477Y120375*
X227591Y120219*
X227705Y119750*
Y119437*
X227705D02*
X227591Y118969D01*
X227364Y118656*
X227023Y118500*
X226682*
X226341Y118656*
X226227Y118812*
X226227D02*
X226114Y119125D01*
X228841Y121000D02*
Y121156D01*
X228955Y121469*
X229068Y121625*
X229295Y121781*
X229750*
X229977Y121625*
X230091Y121469*
X230205Y121156*
Y120844*
X230091Y120531*
X229864Y120062*
X229864D02*
X228727Y118500D01*
X230318*
X243500Y122281D02*
Y119000D01*
Y122281D02*
X244523D01*
X244864Y122125*
X244977Y121969*
X245091Y121656*
Y121344*
X244977Y121031*
X244864Y120875*
X244523Y120719*
X243500*
X244295D02*
X245091Y119000D01*
X246341Y122281D02*
X247591D01*
X246909Y121031*
X247250*
X247477Y120875*
X247591Y120719*
X247705Y120250*
Y119937*
X247705D02*
X247591Y119469D01*
X247364Y119156*
X247023Y119000*
X246682*
X246341Y119156*
X246227Y119312*
X246227D02*
X246114Y119625D01*
X248955Y122281D02*
X250205D01*
X249523Y121031*
X249864*
X250091Y120875*
X250205Y120719*
X250318Y120250*
Y119937*
X250318D02*
X250205Y119469D01*
X249977Y119156*
X249636Y119000*
X249295*
X248955Y119156*
X248841Y119312*
X248841D02*
X248727Y119625D01*
X266000Y121781D02*
Y118500D01*
Y121781D02*
X267023D01*
X267364Y121625*
X267477Y121469*
X267591Y121156*
Y120844*
X267477Y120531*
X267364Y120375*
X267023Y120219*
X266000*
X266795D02*
X267591Y118500D01*
X268841Y121781D02*
X270091D01*
X269409Y120531*
X269750*
X269977Y120375*
X270091Y120219*
X270205Y119750*
Y119437*
X270205D02*
X270091Y118969D01*
X269864Y118656*
X269523Y118500*
X269182*
X268841Y118656*
X268727Y118812*
X268727D02*
X268614Y119125D01*
X272364Y121781D02*
X271227Y119594D01*
X272932*
X272364Y121781D02*
Y118500D01*
X258000Y106281D02*
Y103000D01*
Y106281D02*
X259023D01*
X259364Y106125*
X259477Y105969*
X259591Y105656*
Y105344*
X259477Y105031*
X259364Y104875*
X259023Y104719*
X258000*
X258795D02*
X259591Y103000D01*
X260841Y106281D02*
X262091D01*
X261409Y105031*
X261750*
X261977Y104875*
X262091Y104719*
X262205Y104250*
Y103938*
X262205D02*
X262091Y103469D01*
X261864Y103156*
X261523Y103000*
X261182*
X260841Y103156*
X260727Y103313*
X260727D02*
X260614Y103625D01*
X264705Y106281D02*
X263568D01*
X263455Y104875*
X263568Y105031*
X263909Y105188*
X263909D02*
X264250D01*
X264250D02*
X264591Y105031D01*
X264818Y104719*
X264932Y104250*
X264818Y103938*
X264818D02*
X264705Y103469D01*
X264477Y103156*
X264136Y103000*
X263795*
X263455Y103156*
X263341Y103313*
X263341D02*
X263227Y103625D01*
X236500Y106281D02*
Y103000D01*
Y106281D02*
X237523D01*
X237864Y106125*
X237977Y105969*
X238091Y105656*
Y105344*
X237977Y105031*
X237864Y104875*
X237523Y104719*
X236500*
X237295D02*
X238091Y103000D01*
X239341Y106281D02*
X240591D01*
X239909Y105031*
X240250*
X240477Y104875*
X240591Y104719*
X240705Y104250*
Y103938*
X240705D02*
X240591Y103469D01*
X240364Y103156*
X240023Y103000*
X239682*
X239341Y103156*
X239227Y103313*
X239227D02*
X239114Y103625D01*
X243091Y105813D02*
X242977Y106125D01*
X242636Y106281*
X242409*
X242068Y106125*
X241841Y105656*
X241727Y104875*
Y104094*
X241841Y103469*
X242068Y103156*
X242409Y103000*
X242523*
X242864Y103156*
X243091Y103469*
X243205Y103938*
X243205D02*
Y104094D01*
X243091Y104563*
X243091D02*
X242864Y104875D01*
X242523Y105031*
X242409*
X242068Y104875*
X241841Y104563*
X241841D02*
X241727Y104094D01*
X216000Y106281D02*
Y103000D01*
Y106281D02*
X217023D01*
X217364Y106125*
X217477Y105969*
X217591Y105656*
Y105344*
X217477Y105031*
X217364Y104875*
X217023Y104719*
X216000*
X216795D02*
X217591Y103000D01*
X219750Y106281D02*
X218614Y104094D01*
X220318*
X219750Y106281D02*
Y103000D01*
X222023Y106281D02*
X221682Y106125D01*
X221455Y105656*
X221341Y104875*
Y104406*
X221455Y103625*
X221682Y103156*
X222023Y103000*
X222250*
X222591Y103156*
X222818Y103625*
X222932Y104406*
Y104875*
X222818Y105656*
X222591Y106125*
X222250Y106281*
X222023*
X196000D02*
Y103000D01*
Y106281D02*
X197023D01*
X197364Y106125*
X197477Y105969*
X197591Y105656*
Y105344*
X197477Y105031*
X197364Y104875*
X197023Y104719*
X196000*
X196795D02*
X197591Y103000D01*
X199750Y106281D02*
X198614Y104094D01*
X200318*
X199750Y106281D02*
Y103000D01*
X201341Y105656D02*
X201568Y105813D01*
X201568D02*
X201909Y106281D01*
Y103000*
X184016Y375525D02*
Y372244D01*
Y375525D02*
X185038D01*
X185379Y375369*
X185493Y375213*
X185607Y374900*
Y374588*
X185493Y374275*
X185379Y374119*
X185038Y373963*
X184016*
X184811D02*
X185607Y372244D01*
X187766Y375525D02*
X186629Y373338D01*
X188334*
X187766Y375525D02*
Y372244D01*
X190834Y375525D02*
X189698D01*
X189584Y374119*
X189698Y374275*
X190038Y374432*
X190379*
X190720Y374275*
X190948Y373963*
X191061Y373494*
X190948Y373182*
X190834Y372713*
X190607Y372400*
X190266Y372244*
X189925*
X189584Y372400*
X189470Y372557*
X189357Y372869*
X158268Y407061D02*
Y403780D01*
Y407061D02*
X159290D01*
X159631Y406905*
X159745Y406748*
X159859Y406436*
Y406123*
X159745Y405811*
X159631Y405655*
X159290Y405498*
X158268*
X159063D02*
X159859Y403780D01*
X162018Y407061D02*
X160881Y404873D01*
X162586*
X162018Y407061D02*
Y403780D01*
X164972Y406592D02*
X164859Y406905D01*
X164518Y407061*
X164290*
X163950Y406905*
X163722Y406436*
X163609Y405655*
Y404873*
X163722Y404248*
X163950Y403936*
X164290Y403780*
X164404*
X164745Y403936*
X164972Y404248*
X165086Y404717*
Y404873*
X164972Y405342*
X164745Y405655*
X164404Y405811*
X164290*
X163950Y405655*
X163722Y405342*
X163609Y404873*
X158150Y375762D02*
Y372480D01*
Y375762D02*
X159172D01*
X159513Y375605*
X159627Y375449*
X159741Y375137*
Y374824*
X159627Y374512*
X159513Y374355*
X159172Y374199*
X158150*
X158945D02*
X159741Y372480D01*
X162127Y375293D02*
X162013Y375605D01*
X161672Y375762*
X161445*
X161104Y375605*
X160877Y375137*
X160763Y374355*
Y373574*
X160877Y372949*
X161104Y372637*
X161445Y372480*
X161559*
X161900Y372637*
X162127Y372949*
X162241Y373418*
Y373574*
X162127Y374043*
X161900Y374355*
X161559Y374512*
X161445*
X161104Y374355*
X160877Y374043*
X160763Y373574*
X163831Y375762D02*
X163491Y375605D01*
X163377Y375293*
Y374980*
X163491Y374668*
X163718Y374512*
X164172Y374355*
X164513Y374199*
X164741Y373887*
X164854Y373574*
Y373105*
X164741Y372793*
X164627Y372637*
X164286Y372480*
X163831*
X163491Y372637*
X163377Y372793*
X163263Y373105*
Y373574*
X163377Y373887*
X163604Y374199*
X163945Y374355*
X164400Y374512*
X164627Y374668*
X164741Y374980*
Y375293*
X164627Y375605*
X164286Y375762*
X163831*
X347000Y375281D02*
Y372000D01*
Y375281D02*
X348023D01*
X348364Y375125*
X348477Y374969*
X348591Y374656*
Y374344*
X348477Y374031*
X348364Y373875*
X348023Y373719*
X347000*
X347795D02*
X348591Y372000D01*
X350182Y375281D02*
X349841Y375125D01*
X349727Y374812*
X349727D02*
Y374500D01*
X349841Y374187*
X349841D02*
X350068Y374031D01*
X350523Y373875*
X350864Y373719*
X351091Y373406*
X351205Y373094*
Y372625*
X351091Y372312*
X351091D02*
X350977Y372156D01*
X350636Y372000*
X350182*
X349841Y372156*
X349727Y372312*
X349727D02*
X349614Y372625D01*
Y373094*
X349727Y373406*
X349955Y373719*
X350295Y373875*
X350750Y374031*
X350977Y374187*
X350977D02*
X351091Y374500D01*
Y374812*
X351091D02*
X350977Y375125D01*
X350636Y375281*
X350182*
X353705Y374187D02*
X353591Y373719D01*
X353364Y373406*
X353023Y373250*
X352909*
X352568Y373406*
X352341Y373719*
X352227Y374187*
X352227D02*
Y374344D01*
X352341Y374812*
X352341D02*
X352568Y375125D01*
X352909Y375281*
X353023*
X353364Y375125*
X353591Y374812*
X353591D02*
X353705Y374187D01*
X353705D02*
Y373406D01*
X353591Y372625*
X353364Y372156*
X353023Y372000*
X352795*
X352455Y372156*
X352341Y372469*
X276500Y375281D02*
Y372000D01*
Y375281D02*
X277523D01*
X277864Y375125*
X277977Y374969*
X278091Y374656*
Y374344*
X277977Y374031*
X277864Y373875*
X277523Y373719*
X276500*
X277295D02*
X278091Y372000D01*
X280591Y374187D02*
X280477Y373719D01*
X280250Y373406*
X279909Y373250*
X279795*
X279455Y373406*
X279227Y373719*
X279114Y374187*
X279114D02*
Y374344D01*
X279227Y374812*
X279227D02*
X279455Y375125D01*
X279795Y375281*
X279909*
X280250Y375125*
X280477Y374812*
X280477D02*
X280591Y374187D01*
X280591D02*
Y373406D01*
X280477Y372625*
X280250Y372156*
X279909Y372000*
X279682*
X279341Y372156*
X279227Y372469*
X282295Y375281D02*
X281955Y375125D01*
X281727Y374656*
X281614Y373875*
Y373406*
X281727Y372625*
X281955Y372156*
X282295Y372000*
X282523*
X282864Y372156*
X283091Y372625*
X283205Y373406*
Y373875*
X283091Y374656*
X282864Y375125*
X282523Y375281*
X282295*
X167717Y375525D02*
Y372244D01*
Y375525D02*
X168739D01*
X169080Y375369*
X169194Y375213*
X169307Y374900*
Y374588*
X169194Y374275*
X169080Y374119*
X168739Y373963*
X167717*
X168512D02*
X169307Y372244D01*
X171807Y374432D02*
X171694Y373963D01*
X171467Y373650*
X171126Y373494*
X171012*
X170671Y373650*
X170444Y373963*
X170330Y374432*
Y374588*
X170444Y375057*
X170671Y375369*
X171012Y375525*
X171126*
X171467Y375369*
X171694Y375057*
X171807Y374432*
Y373650*
X171694Y372869*
X171467Y372400*
X171126Y372244*
X170898*
X170557Y372400*
X170444Y372713*
X172944Y374744D02*
Y374900D01*
X173057Y375213*
X173171Y375369*
X173398Y375525*
X173853*
X174080Y375369*
X174194Y375213*
X174307Y374900*
Y374588*
X174194Y374275*
X173967Y373807*
X172830Y372244*
X174421*
X224500Y382781D02*
Y379500D01*
Y382781D02*
X225523D01*
X225864Y382625*
X225977Y382469*
X226091Y382156*
Y381844*
X225977Y381531*
X225864Y381375*
X225523Y381219*
X224500*
X225295D02*
X226091Y379500D01*
X227114Y382156D02*
X227341Y382313D01*
X227341D02*
X227682Y382781D01*
Y379500*
X228818Y382000D02*
Y382156D01*
X228932Y382469*
X229045Y382625*
X229273Y382781*
X229727*
X229955Y382625*
X230068Y382469*
X230182Y382156*
Y381844*
X230068Y381531*
X229841Y381063*
X229841D02*
X228705Y379500D01*
X230295*
X232000Y382781D02*
X231659Y382625D01*
X231432Y382156*
X231318Y381375*
Y380906*
X231432Y380125*
X231659Y379656*
X232000Y379500*
X232227*
X232568Y379656*
X232795Y380125*
X232909Y380906*
Y381375*
X232795Y382156*
X232568Y382625*
X232227Y382781*
X232000*
X430500Y383281D02*
Y380000D01*
Y383281D02*
X431523D01*
X431864Y383125*
X431977Y382969*
X432091Y382656*
Y382344*
X431977Y382031*
X431864Y381875*
X431523Y381719*
X430500*
X431295D02*
X432091Y380000D01*
X433114Y382656D02*
X433341Y382813D01*
X433341D02*
X433682Y383281D01*
Y380000*
X435386Y383281D02*
X435045Y383125D01*
X434818Y382656*
X434705Y381875*
Y381406*
X434818Y380625*
X435045Y380156*
X435386Y380000*
X435614*
X435955Y380156*
X436182Y380625*
X436295Y381406*
Y381875*
X436182Y382656*
X435955Y383125*
X435614Y383281*
X435386*
X438795D02*
X437659D01*
X437545Y381875*
X437659Y382031*
X438000Y382188*
X438000D02*
X438341D01*
X438341D02*
X438682Y382031D01*
X438909Y381719*
X439023Y381250*
X438909Y380938*
X438909D02*
X438795Y380469D01*
X438568Y380156*
X438227Y380000*
X437886*
X437545Y380156*
X437432Y380313*
X437432D02*
X437318Y380625D01*
X407705Y262000D02*
X407591Y262313D01*
X407591D02*
X407364Y262625D01*
X407136Y262781*
X406682*
X406455Y262625*
X406227Y262313*
X406227D02*
X406114Y262000D01*
X406000Y261531*
Y260750*
X406114Y260281*
X406227Y259969*
X406455Y259656*
X406682Y259500*
X407136*
X407364Y259656*
X407591Y259969*
X407705Y260281*
X409864Y262781D02*
X408727Y260594D01*
X410432*
X409864Y262781D02*
Y259500D01*
X412023Y262781D02*
X411682Y262625D01*
X411568Y262313*
X411568D02*
Y262000D01*
X411682Y261688*
X411682D02*
X411909Y261531D01*
X412364Y261375*
X412705Y261219*
X412932Y260906*
X413045Y260594*
Y260125*
X412932Y259813*
X412932D02*
X412818Y259656D01*
X412477Y259500*
X412023*
X411682Y259656*
X411568Y259813*
X411568D02*
X411455Y260125D01*
Y260594*
X411568Y260906*
X411795Y261219*
X412136Y261375*
X412591Y261531*
X412818Y261688*
X412818D02*
X412932Y262000D01*
Y262313*
X412932D02*
X412818Y262625D01*
X412477Y262781*
X412023*
X400205Y356500D02*
X400091Y356813D01*
X400091D02*
X399864Y357125D01*
X399636Y357281*
X399182*
X398955Y357125*
X398727Y356813*
X398727D02*
X398614Y356500D01*
X398500Y356031*
Y355250*
X398614Y354781*
X398727Y354469*
X398955Y354156*
X399182Y354000*
X399636*
X399864Y354156*
X400091Y354469*
X400205Y354781*
X402705Y357281D02*
X401568D01*
X401455Y355875*
X401568Y356031*
X401909Y356188*
X401909D02*
X402250D01*
X402250D02*
X402591Y356031D01*
X402818Y355719*
X402932Y355250*
X402818Y354938*
X402818D02*
X402705Y354469D01*
X402477Y354156*
X402136Y354000*
X401795*
X401455Y354156*
X401341Y354313*
X401341D02*
X401227Y354625D01*
X404636Y357281D02*
X404295Y357125D01*
X404068Y356656*
X403955Y355875*
Y355406*
X404068Y354625*
X404295Y354156*
X404636Y354000*
X404864*
X405205Y354156*
X405432Y354625*
X405545Y355406*
Y355875*
X405432Y356656*
X405205Y357125*
X404864Y357281*
X404636*
X400205Y338000D02*
X400091Y338313D01*
X400091D02*
X399864Y338625D01*
X399636Y338781*
X399182*
X398955Y338625*
X398727Y338313*
X398727D02*
X398614Y338000D01*
X398500Y337531*
Y336750*
X398614Y336281*
X398727Y335969*
X398955Y335656*
X399182Y335500*
X399636*
X399864Y335656*
X400091Y335969*
X400205Y336281*
X402364Y338781D02*
X401227Y336594D01*
X402932*
X402364Y338781D02*
Y335500D01*
X405432Y337688D02*
X405318Y337219D01*
X405091Y336906*
X404750Y336750*
X404636*
X404295Y336906*
X404068Y337219*
X403955Y337688*
X403955D02*
Y337844D01*
X404068Y338313*
X404068D02*
X404295Y338625D01*
X404636Y338781*
X404750*
X405091Y338625*
X405318Y338313*
X405318D02*
X405432Y337688D01*
X405432D02*
Y336906D01*
X405318Y336125*
X405091Y335656*
X404750Y335500*
X404523*
X404182Y335656*
X404068Y335969*
X263147Y562055D02*
X263033Y562368D01*
X263033D02*
X262806Y562680D01*
X262578Y562836*
X262124*
X261897Y562680*
X261669Y562368*
X261669D02*
X261556Y562055D01*
X261442Y561586*
Y560805*
X261556Y560336*
X261669Y560024*
X261897Y559711*
X262124Y559555*
X262578*
X262806Y559711*
X263033Y560024*
X263147Y560336*
X264169Y562836D02*
Y559555D01*
X265760Y562836D02*
Y559555D01*
X264169Y561274D02*
X265760D01*
X266783Y562211D02*
X267010Y562368D01*
X267010D02*
X267351Y562836D01*
Y559555*
X154000Y483781D02*
Y481438D01*
X154000D02*
X154114Y480969D01*
X154341Y480656*
X154682Y480500*
X154909*
X155250Y480656*
X155477Y480969*
X155591Y481438*
X155591D02*
Y483781D01*
X156727Y483000D02*
Y483156D01*
X156841Y483469*
X156955Y483625*
X157182Y483781*
X157636*
X157864Y483625*
X157977Y483469*
X158091Y483156*
Y482844*
X157977Y482531*
X157750Y482063*
X157750D02*
X156614Y480500D01*
X158205*
X159455Y483781D02*
X160705D01*
X160023Y482531*
X160364*
X160591Y482375*
X160705Y482219*
X160818Y481750*
Y481438*
X160818D02*
X160705Y480969D01*
X160477Y480656*
X160136Y480500*
X159795*
X159455Y480656*
X159341Y480813*
X159341D02*
X159227Y481125D01*
X371182Y312781D02*
X370955Y312625D01*
X370727Y312313*
X370614Y312000*
X370500Y311531*
Y310750*
X370614Y310281*
X370727Y309969*
X370955Y309656*
X371182Y309500*
X371636*
X371864Y309656*
X372091Y309969*
X372205Y310281*
X372318Y310750*
Y311531*
X372205Y312000*
X372091Y312313*
X371864Y312625*
X371636Y312781*
X371182*
X371523Y310125D02*
X372205Y309188D01*
X373341Y312156D02*
X373568Y312313D01*
X373909Y312781*
Y309500*
X375159Y312781D02*
X376409D01*
X375727Y311531*
X376068*
X376295Y311375*
X376409Y311219*
X376523Y310750*
Y310438*
X376409Y309969*
X376182Y309656*
X375841Y309500*
X375500*
X375159Y309656*
X375045Y309813*
X374932Y310125*
X173000Y265281D02*
Y262000D01*
Y265281D02*
X174023D01*
X174364Y265125*
X174477Y264969*
X174591Y264656*
Y264344*
X174477Y264031*
X174364Y263875*
X174023Y263719*
X173000*
X173795D02*
X174591Y262000D01*
X175614Y264656D02*
X175841Y264813D01*
X175841D02*
X176182Y265281D01*
Y262000*
X177205Y264656D02*
X177432Y264813D01*
X177432D02*
X177773Y265281D01*
Y262000*
X179932Y265281D02*
X178795Y263094D01*
X180500*
X179932Y265281D02*
Y262000D01*
X398000Y209281D02*
Y206000D01*
Y209281D02*
X399023D01*
X399364Y209125*
X399477Y208969*
X399591Y208656*
Y208344*
X399477Y208031*
X399364Y207875*
X399023Y207719*
X398000*
X398795D02*
X399591Y206000D01*
X400614Y208656D02*
X400841Y208813D01*
X400841D02*
X401182Y209281D01*
Y206000*
X402205Y208656D02*
X402432Y208813D01*
X402432D02*
X402773Y209281D01*
Y206000*
X405273Y209281D02*
X404136D01*
X404023Y207875*
X404136Y208031*
X404477Y208188*
X404477D02*
X404818D01*
X404818D02*
X405159Y208031D01*
X405386Y207719*
X405500Y207250*
X405386Y206938*
X405386D02*
X405273Y206469D01*
X405045Y206156*
X404705Y206000*
X404364*
X404023Y206156*
X403909Y206313*
X403909D02*
X403795Y206625D01*
X398500Y241781D02*
Y238500D01*
Y241781D02*
X399523D01*
X399864Y241625*
X399977Y241469*
X400091Y241156*
Y240844*
X399977Y240531*
X399864Y240375*
X399523Y240219*
X398500*
X399295D02*
X400091Y238500D01*
X401114Y241156D02*
X401341Y241313D01*
X401341D02*
X401682Y241781D01*
Y238500*
X402705Y241156D02*
X402932Y241313D01*
X402932D02*
X403273Y241781D01*
Y238500*
X405659Y241313D02*
X405545Y241625D01*
X405205Y241781*
X404977*
X404636Y241625*
X404409Y241156*
X404295Y240375*
Y239594*
X404409Y238969*
X404636Y238656*
X404977Y238500*
X405091*
X405432Y238656*
X405659Y238969*
X405773Y239438*
X405773D02*
Y239594D01*
X405659Y240063*
X405659D02*
X405432Y240375D01*
X405091Y240531*
X404977*
X404636Y240375*
X404409Y240063*
X404409D02*
X404295Y239594D01*
X405500Y106781D02*
Y103500D01*
Y106781D02*
X406523D01*
X406864Y106625*
X406977Y106469*
X407091Y106156*
Y105844*
X406977Y105531*
X406864Y105375*
X406523Y105219*
X405500*
X406295D02*
X407091Y103500D01*
X408114Y106156D02*
X408341Y106313D01*
X408682Y106781*
Y103500*
X409705Y106156D02*
X409932Y106313D01*
X410273Y106781*
Y103500*
X412886Y106781D02*
X411750Y103500D01*
X411295Y106781D02*
X412886D01*
X217500Y236281D02*
Y233000D01*
Y236281D02*
X218523D01*
X218864Y236125*
X218977Y235969*
X219091Y235656*
Y235344*
X218977Y235031*
X218864Y234875*
X218523Y234719*
X217500*
X218295D02*
X219091Y233000D01*
X221250Y236281D02*
X220114Y234094D01*
X221818*
X221250Y236281D02*
Y233000D01*
X224432Y236281D02*
X223295Y233000D01*
X222841Y236281D02*
X224432D01*
X192000D02*
Y233000D01*
Y236281D02*
X193023D01*
X193364Y236125*
X193477Y235969*
X193591Y235656*
Y235344*
X193477Y235031*
X193364Y234875*
X193023Y234719*
X192000*
X192795D02*
X193591Y233000D01*
X195750Y236281D02*
X194614Y234094D01*
X196318*
X195750Y236281D02*
Y233000D01*
X197909Y236281D02*
X197568Y236125D01*
X197455Y235813*
X197455D02*
Y235500D01*
X197568Y235188*
X197568D02*
X197795Y235031D01*
X198250Y234875*
X198591Y234719*
X198818Y234406*
X198932Y234094*
Y233625*
X198818Y233313*
X198818D02*
X198705Y233156D01*
X198364Y233000*
X197909*
X197568Y233156*
X197455Y233313*
X197455D02*
X197341Y233625D01*
Y234094*
X197455Y234406*
X197682Y234719*
X198023Y234875*
X198477Y235031*
X198705Y235188*
X198705D02*
X198818Y235500D01*
Y235813*
X198818D02*
X198705Y236125D01*
X198364Y236281*
X197909*
X370500Y318781D02*
Y315500D01*
Y318781D02*
X371523D01*
X371864Y318625*
X371977Y318469*
X372091Y318156*
Y317844*
X371977Y317531*
X371864Y317375*
X371523Y317219*
X370500*
X371295D02*
X372091Y315500D01*
X374705Y318781D02*
X373568Y315500D01*
X373114Y318781D02*
X374705D01*
X376409D02*
X376068Y318625D01*
X375841Y318156*
X375727Y317375*
Y316906*
X375841Y316125*
X376068Y315656*
X376409Y315500*
X376636*
X376977Y315656*
X377205Y316125*
X377318Y316906*
Y317375*
X377205Y318156*
X376977Y318625*
X376636Y318781*
X376409*
X372000Y292781D02*
Y289500D01*
Y292781D02*
X373023D01*
X373364Y292625*
X373477Y292469*
X373591Y292156*
Y291844*
X373477Y291531*
X373364Y291375*
X373023Y291219*
X372000*
X372795D02*
X373591Y289500D01*
X376091Y291688D02*
X375977Y291219D01*
X375750Y290906*
X375409Y290750*
X375295*
X374955Y290906*
X374727Y291219*
X374614Y291688*
X374614D02*
Y291844D01*
X374727Y292313*
X374727D02*
X374955Y292625D01*
X375295Y292781*
X375409*
X375750Y292625*
X375977Y292313*
X375977D02*
X376091Y291688D01*
X376091D02*
Y290906D01*
X375977Y290125*
X375750Y289656*
X375409Y289500*
X375182*
X374841Y289656*
X374727Y289969*
X377114Y292156D02*
X377341Y292313D01*
X377341D02*
X377682Y292781D01*
Y289500*
X356000Y292781D02*
Y289500D01*
Y292781D02*
X357023D01*
X357364Y292625*
X357477Y292469*
X357591Y292156*
Y291844*
X357477Y291531*
X357364Y291375*
X357023Y291219*
X356000*
X356795D02*
X357591Y289500D01*
X360091Y291688D02*
X359977Y291219D01*
X359750Y290906*
X359409Y290750*
X359295*
X358955Y290906*
X358727Y291219*
X358614Y291688*
X358614D02*
Y291844D01*
X358727Y292313*
X358727D02*
X358955Y292625D01*
X359295Y292781*
X359409*
X359750Y292625*
X359977Y292313*
X359977D02*
X360091Y291688D01*
X360091D02*
Y290906D01*
X359977Y290125*
X359750Y289656*
X359409Y289500*
X359182*
X358841Y289656*
X358727Y289969*
X361341Y292781D02*
X362591D01*
X361909Y291531*
X362250*
X362477Y291375*
X362591Y291219*
X362705Y290750*
Y290438*
X362705D02*
X362591Y289969D01*
X362364Y289656*
X362023Y289500*
X361682*
X361341Y289656*
X361227Y289813*
X361227D02*
X361114Y290125D01*
X208500Y182281D02*
Y179000D01*
Y182281D02*
X209523D01*
X209864Y182125*
X209977Y181969*
X210091Y181656*
Y181344*
X209977Y181031*
X209864Y180875*
X209523Y180719*
X208500*
X209295D02*
X210091Y179000D01*
X212591Y181188D02*
X212477Y180719D01*
X212250Y180406*
X211909Y180250*
X211795*
X211455Y180406*
X211227Y180719*
X211114Y181188*
X211114D02*
Y181344D01*
X211227Y181813*
X211227D02*
X211455Y182125D01*
X211795Y182281*
X211909*
X212250Y182125*
X212477Y181813*
X212477D02*
X212591Y181188D01*
X212591D02*
Y180406D01*
X212477Y179625*
X212250Y179156*
X211909Y179000*
X211682*
X211341Y179156*
X211227Y179469*
X214750Y182281D02*
X213614Y180094D01*
X215318*
X214750Y182281D02*
Y179000D01*
X209000Y209281D02*
Y206000D01*
Y209281D02*
X210023D01*
X210364Y209125*
X210477Y208969*
X210591Y208656*
Y208344*
X210477Y208031*
X210364Y207875*
X210023Y207719*
X209000*
X209795D02*
X210591Y206000D01*
X213091Y208187D02*
X212977Y207719D01*
X212750Y207406*
X212409Y207250*
X212295*
X211955Y207406*
X211727Y207719*
X211614Y208187*
X211614D02*
Y208344D01*
X211727Y208812*
X211727D02*
X211955Y209125D01*
X212295Y209281*
X212409*
X212750Y209125*
X212977Y208812*
X212977D02*
X213091Y208187D01*
X213091D02*
Y207406D01*
X212977Y206625*
X212750Y206156*
X212409Y206000*
X212182*
X211841Y206156*
X211727Y206469*
X215591Y209281D02*
X214455D01*
X214341Y207875*
X214455Y208031*
X214795Y208187*
X214795D02*
X215136D01*
X215136D02*
X215477Y208031D01*
X215705Y207719*
X215818Y207250*
X215705Y206937*
X215705D02*
X215591Y206469D01*
X215364Y206156*
X215023Y206000*
X214682*
X214341Y206156*
X214227Y206312*
X214227D02*
X214114Y206625D01*
X174000Y209281D02*
Y206000D01*
Y209281D02*
X175023D01*
X175364Y209125*
X175477Y208969*
X175591Y208656*
Y208344*
X175477Y208031*
X175364Y207875*
X175023Y207719*
X174000*
X174795D02*
X175591Y206000D01*
X178091Y208187D02*
X177977Y207719D01*
X177750Y207406*
X177409Y207250*
X177295*
X176955Y207406*
X176727Y207719*
X176614Y208187*
X176614D02*
Y208344D01*
X176727Y208812*
X176727D02*
X176955Y209125D01*
X177295Y209281*
X177409*
X177750Y209125*
X177977Y208812*
X177977D02*
X178091Y208187D01*
X178091D02*
Y207406D01*
X177977Y206625*
X177750Y206156*
X177409Y206000*
X177182*
X176841Y206156*
X176727Y206469*
X180477Y208812D02*
X180364Y209125D01*
X180023Y209281*
X179795*
X179455Y209125*
X179227Y208656*
X179114Y207875*
Y207094*
X179227Y206469*
X179455Y206156*
X179795Y206000*
X179909*
X180250Y206156*
X180477Y206469*
X180591Y206937*
X180591D02*
Y207094D01*
X180477Y207562*
X180477D02*
X180250Y207875D01*
X179909Y208031*
X179795*
X179455Y207875*
X179227Y207562*
X179227D02*
X179114Y207094D01*
X173500Y182281D02*
Y179000D01*
Y182281D02*
X174523D01*
X174864Y182125*
X174977Y181969*
X175091Y181656*
Y181344*
X174977Y181031*
X174864Y180875*
X174523Y180719*
X173500*
X174295D02*
X175091Y179000D01*
X177591Y181188D02*
X177477Y180719D01*
X177250Y180406*
X176909Y180250*
X176795*
X176455Y180406*
X176227Y180719*
X176114Y181188*
X176114D02*
Y181344D01*
X176227Y181813*
X176227D02*
X176455Y182125D01*
X176795Y182281*
X176909*
X177250Y182125*
X177477Y181813*
X177477D02*
X177591Y181188D01*
X177591D02*
Y180406D01*
X177477Y179625*
X177250Y179156*
X176909Y179000*
X176682*
X176341Y179156*
X176227Y179469*
X180205Y182281D02*
X179068Y179000D01*
X178614Y182281D02*
X180205D01*
X218500Y264781D02*
Y261500D01*
Y264781D02*
X219523D01*
X219864Y264625*
X219977Y264469*
X220091Y264156*
Y263844*
X219977Y263531*
X219864Y263375*
X219523Y263219*
X218500*
X219295D02*
X220091Y261500D01*
X222591Y263688D02*
X222477Y263219D01*
X222250Y262906*
X221909Y262750*
X221795*
X221455Y262906*
X221227Y263219*
X221114Y263688*
X221114D02*
Y263844D01*
X221227Y264313*
X221227D02*
X221455Y264625D01*
X221795Y264781*
X221909*
X222250Y264625*
X222477Y264313*
X222477D02*
X222591Y263688D01*
X222591D02*
Y262906D01*
X222477Y262125*
X222250Y261656*
X221909Y261500*
X221682*
X221341Y261656*
X221227Y261969*
X224182Y264781D02*
X223841Y264625D01*
X223727Y264313*
X223727D02*
Y264000D01*
X223841Y263688*
X223841D02*
X224068Y263531D01*
X224523Y263375*
X224864Y263219*
X225091Y262906*
X225205Y262594*
Y262125*
X225091Y261813*
X225091D02*
X224977Y261656D01*
X224636Y261500*
X224182*
X223841Y261656*
X223727Y261813*
X223727D02*
X223614Y262125D01*
Y262594*
X223727Y262906*
X223955Y263219*
X224295Y263375*
X224750Y263531*
X224977Y263688*
X224977D02*
X225091Y264000D01*
Y264313*
X225091D02*
X224977Y264625D01*
X224636Y264781*
X224182*
X357000Y345281D02*
Y342938D01*
X357000D02*
X357114Y342469D01*
X357341Y342156*
X357682Y342000*
X357909*
X358250Y342156*
X358477Y342469*
X358591Y342938*
X358591D02*
Y345281D01*
X359727Y344500D02*
Y344656D01*
X359841Y344969*
X359955Y345125*
X360182Y345281*
X360636*
X360864Y345125*
X360977Y344969*
X361091Y344656*
Y344344*
X360977Y344031*
X360750Y343563*
X360750D02*
X359614Y342000D01*
X361205*
X362341Y344500D02*
Y344656D01*
X362455Y344969*
X362568Y345125*
X362795Y345281*
X363250*
X363477Y345125*
X363591Y344969*
X363705Y344656*
Y344344*
X363591Y344031*
X363364Y343563*
X363364D02*
X362227Y342000D01*
X363818*
X346705Y489500D02*
X346591Y489813D01*
X346591D02*
X346364Y490125D01*
X346136Y490281*
X345682*
X345455Y490125*
X345227Y489813*
X345227D02*
X345114Y489500D01*
X345000Y489031*
Y488250*
X345114Y487781*
X345227Y487469*
X345455Y487156*
X345682Y487000*
X346136*
X346364Y487156*
X346591Y487469*
X346705Y487781*
X347727Y489656D02*
X347955Y489813D01*
X347955D02*
X348295Y490281D01*
Y487000*
X350909Y490281D02*
X349773Y487000D01*
X349318Y490281D02*
X350909D01*
X372705Y516500D02*
X372591Y516813D01*
X372591D02*
X372364Y517125D01*
X372136Y517281*
X371682*
X371455Y517125*
X371227Y516813*
X371227D02*
X371114Y516500D01*
X371000Y516031*
Y515250*
X371114Y514781*
X371227Y514469*
X371455Y514156*
X371682Y514000*
X372136*
X372364Y514156*
X372591Y514469*
X372705Y514781*
X373727Y516656D02*
X373955Y516813D01*
X373955D02*
X374295Y517281D01*
Y514000*
X375318Y516656D02*
X375545Y516813D01*
X375545D02*
X375886Y517281D01*
Y514000*
X402795Y516995D02*
X402681Y517307D01*
X402681D02*
X402454Y517620D01*
X402226Y517776*
X401772*
X401545Y517620*
X401317Y517307*
X401317D02*
X401204Y516995D01*
X401090Y516526*
Y515745*
X401204Y515276*
X401317Y514964*
X401545Y514651*
X401772Y514495*
X402226*
X402454Y514651*
X402681Y514964*
X402795Y515276*
X403817Y517151D02*
X404045Y517307D01*
X404045D02*
X404385Y517776D01*
Y514495*
X406090Y517776D02*
X405749Y517620D01*
X405522Y517151*
X405408Y516370*
Y515901*
X405522Y515120*
X405749Y514651*
X406090Y514495*
X406317*
X406658Y514651*
X406885Y515120*
X406999Y515901*
Y516370*
X406885Y517151*
X406658Y517620*
X406317Y517776*
X406090*
X336205Y450000D02*
X336091Y450313D01*
X336091D02*
X335864Y450625D01*
X335636Y450781*
X335182*
X334955Y450625*
X334727Y450313*
X334727D02*
X334614Y450000D01*
X334500Y449531*
Y448750*
X334614Y448281*
X334727Y447969*
X334955Y447656*
X335182Y447500*
X335636*
X335864Y447656*
X336091Y447969*
X336205Y448281*
X337341Y450000D02*
Y450156D01*
X337455Y450469*
X337568Y450625*
X337795Y450781*
X338250*
X338477Y450625*
X338591Y450469*
X338705Y450156*
Y449844*
X338591Y449531*
X338364Y449063*
X338364D02*
X337227Y447500D01*
X338818*
X339841Y450156D02*
X340068Y450313D01*
X340068D02*
X340409Y450781D01*
Y447500*
X181500Y458281D02*
X182409Y455000D01*
X183318Y458281D02*
X182409Y455000D01*
X184341Y458281D02*
Y455000D01*
Y458281D02*
X185364D01*
X185705Y458125*
X185818Y457969*
X185932Y457656*
Y457344*
X185818Y457031*
X185705Y456875*
X185364Y456719*
X184341*
X185136D02*
X185932Y455000D01*
X188091Y458281D02*
X186955Y456094D01*
X188659*
X188091Y458281D02*
Y455000D01*
X372000Y134781D02*
X372909Y131500D01*
X373818Y134781D02*
X372909Y131500D01*
X374841Y134781D02*
Y131500D01*
Y134781D02*
X375864D01*
X376205Y134625*
X376318Y134469*
X376432Y134156*
Y133844*
X376318Y133531*
X376205Y133375*
X375864Y133219*
X374841*
X375636D02*
X376432Y131500D01*
X377568Y134000D02*
Y134156D01*
X377682Y134469*
X377795Y134625*
X378023Y134781*
X378477*
X378705Y134625*
X378818Y134469*
X378932Y134156*
Y133844*
X378818Y133531*
X378591Y133062*
X378591D02*
X377455Y131500D01*
X379045*
X112500Y437781D02*
X113409Y434500D01*
X114318Y437781D02*
X113409Y434500D01*
X115341Y437781D02*
Y434500D01*
Y437781D02*
X116364D01*
X116705Y437625*
X116818Y437469*
X116932Y437156*
Y436844*
X116818Y436531*
X116705Y436375*
X116364Y436219*
X115341*
X116136D02*
X116932Y434500D01*
X119432Y437781D02*
X118295D01*
X118182Y436375*
X118295Y436531*
X118636Y436688*
X118636D02*
X118977D01*
X118977D02*
X119318Y436531D01*
X119545Y436219*
X119659Y435750*
X119545Y435438*
X119545D02*
X119432Y434969D01*
X119205Y434656*
X118864Y434500*
X118523*
X118182Y434656*
X118068Y434813*
X118068D02*
X117955Y435125D01*
X298705Y444000D02*
X298591Y444313D01*
X298591D02*
X298364Y444625D01*
X298136Y444781*
X297682*
X297455Y444625*
X297227Y444313*
X297227D02*
X297114Y444000D01*
X297000Y443531*
Y442750*
X297114Y442281*
X297227Y441969*
X297455Y441656*
X297682Y441500*
X298136*
X298364Y441656*
X298591Y441969*
X298705Y442281*
X299841Y444000D02*
Y444156D01*
X299955Y444469*
X300068Y444625*
X300295Y444781*
X300750*
X300977Y444625*
X301091Y444469*
X301205Y444156*
Y443844*
X301091Y443531*
X300864Y443063*
X300864D02*
X299727Y441500D01*
X301318*
X302909Y444781D02*
X302568Y444625D01*
X302455Y444313*
X302455D02*
Y444000D01*
X302568Y443688*
X302568D02*
X302795Y443531D01*
X303250Y443375*
X303591Y443219*
X303818Y442906*
X303932Y442594*
Y442125*
X303818Y441813*
X303818D02*
X303705Y441656D01*
X303364Y441500*
X302909*
X302568Y441656*
X302455Y441813*
X302455D02*
X302341Y442125D01*
Y442594*
X302455Y442906*
X302682Y443219*
X303023Y443375*
X303477Y443531*
X303705Y443688*
X303705D02*
X303818Y444000D01*
Y444313*
X303818D02*
X303705Y444625D01*
X303364Y444781*
X302909*
X336205Y444500D02*
X336091Y444813D01*
X336091D02*
X335864Y445125D01*
X335636Y445281*
X335182*
X334955Y445125*
X334727Y444813*
X334727D02*
X334614Y444500D01*
X334500Y444031*
Y443250*
X334614Y442781*
X334727Y442469*
X334955Y442156*
X335182Y442000*
X335636*
X335864Y442156*
X336091Y442469*
X336205Y442781*
X337341Y444500D02*
Y444656D01*
X337455Y444969*
X337568Y445125*
X337795Y445281*
X338250*
X338477Y445125*
X338591Y444969*
X338705Y444656*
Y444344*
X338591Y444031*
X338364Y443563*
X338364D02*
X337227Y442000D01*
X338818*
X341318Y444188D02*
X341205Y443719D01*
X340977Y443406*
X340636Y443250*
X340523*
X340182Y443406*
X339955Y443719*
X339841Y444188*
X339841D02*
Y444344D01*
X339955Y444813*
X339955D02*
X340182Y445125D01*
X340523Y445281*
X340636*
X340977Y445125*
X341205Y444813*
X341205D02*
X341318Y444188D01*
X341318D02*
Y443406D01*
X341205Y442625*
X340977Y442156*
X340636Y442000*
X340409*
X340068Y442156*
X339955Y442469*
X227705Y264500D02*
X227591Y264813D01*
X227591D02*
X227364Y265125D01*
X227136Y265281*
X226682*
X226455Y265125*
X226227Y264813*
X226227D02*
X226114Y264500D01*
X226000Y264031*
Y263250*
X226114Y262781*
X226227Y262469*
X226455Y262156*
X226682Y262000*
X227136*
X227364Y262156*
X227591Y262469*
X227705Y262781*
X228841Y264500D02*
Y264656D01*
X228955Y264969*
X229068Y265125*
X229295Y265281*
X229750*
X229977Y265125*
X230091Y264969*
X230205Y264656*
Y264344*
X230091Y264031*
X229864Y263563*
X229864D02*
X228727Y262000D01*
X230318*
X232932Y265281D02*
X231795Y262000D01*
X231341Y265281D02*
X232932D01*
X168205Y197000D02*
X168091Y197312D01*
X168091D02*
X167864Y197625D01*
X167636Y197781*
X167182*
X166955Y197625*
X166727Y197312*
X166727D02*
X166614Y197000D01*
X166500Y196531*
Y195750*
X166614Y195281*
X166727Y194969*
X166955Y194656*
X167182Y194500*
X167636*
X167864Y194656*
X168091Y194969*
X168205Y195281*
X169341Y197000D02*
Y197156D01*
X169455Y197469*
X169568Y197625*
X169795Y197781*
X170250*
X170477Y197625*
X170591Y197469*
X170705Y197156*
Y196844*
X170591Y196531*
X170364Y196062*
X170364D02*
X169227Y194500D01*
X170818*
X173205Y197312D02*
X173091Y197625D01*
X172750Y197781*
X172523*
X172182Y197625*
X171955Y197156*
X171841Y196375*
Y195594*
X171955Y194969*
X172182Y194656*
X172523Y194500*
X172636*
X172977Y194656*
X173205Y194969*
X173318Y195437*
X173318D02*
Y195594D01*
X173205Y196062*
X173205D02*
X172977Y196375D01*
X172636Y196531*
X172523*
X172182Y196375*
X171955Y196062*
X171955D02*
X171841Y195594D01*
X224705Y195000D02*
X224591Y195313D01*
X224364Y195625*
X224136Y195781*
X223682*
X223455Y195625*
X223227Y195313*
X223114Y195000*
X223000Y194531*
Y193750*
X223114Y193281*
X223227Y192969*
X223455Y192656*
X223682Y192500*
X224136*
X224364Y192656*
X224591Y192969*
X224705Y193281*
X225841Y195000D02*
Y195156D01*
X225955Y195469*
X226068Y195625*
X226295Y195781*
X226750*
X226977Y195625*
X227091Y195469*
X227205Y195156*
Y194844*
X227091Y194531*
X226864Y194063*
X225727Y192500*
X227318*
X229818Y195781D02*
X228682D01*
X228568Y194375*
X228682Y194531*
X229023Y194688*
X229364*
X229705Y194531*
X229932Y194219*
X230045Y193750*
X229932Y193438*
X229818Y192969*
X229591Y192656*
X229250Y192500*
X228909*
X228568Y192656*
X228455Y192813*
X228341Y193125*
X335000Y336781D02*
Y334438D01*
X335000D02*
X335114Y333969D01*
X335341Y333656*
X335682Y333500*
X335909*
X336250Y333656*
X336477Y333969*
X336591Y334438*
X336591D02*
Y336781D01*
X338977Y336313D02*
X338864Y336625D01*
X338523Y336781*
X338295*
X337955Y336625*
X337727Y336156*
X337614Y335375*
Y334594*
X337727Y333969*
X337955Y333656*
X338295Y333500*
X338409*
X338750Y333656*
X338977Y333969*
X339091Y334438*
X339091D02*
Y334594D01*
X338977Y335063*
X338977D02*
X338750Y335375D01*
X338409Y335531*
X338295*
X337955Y335375*
X337727Y335063*
X337727D02*
X337614Y334594D01*
X408205Y241000D02*
X408091Y241313D01*
X408091D02*
X407864Y241625D01*
X407636Y241781*
X407182*
X406955Y241625*
X406727Y241313*
X406727D02*
X406614Y241000D01*
X406500Y240531*
Y239750*
X406614Y239281*
X406727Y238969*
X406955Y238656*
X407182Y238500*
X407636*
X407864Y238656*
X408091Y238969*
X408205Y239281*
X409455Y241781D02*
X410705D01*
X410023Y240531*
X410364*
X410591Y240375*
X410705Y240219*
X410818Y239750*
Y239438*
X410818D02*
X410705Y238969D01*
X410477Y238656*
X410136Y238500*
X409795*
X409455Y238656*
X409341Y238813*
X409341D02*
X409227Y239125D01*
X412977Y241781D02*
X411841Y239594D01*
X413545*
X412977Y241781D02*
Y238500D01*
X408205Y208500D02*
X408091Y208813D01*
X408091D02*
X407864Y209125D01*
X407636Y209281*
X407182*
X406955Y209125*
X406727Y208813*
X406727D02*
X406614Y208500D01*
X406500Y208031*
Y207250*
X406614Y206781*
X406727Y206469*
X406955Y206156*
X407182Y206000*
X407636*
X407864Y206156*
X408091Y206469*
X408205Y206781*
X409455Y209281D02*
X410705D01*
X410023Y208031*
X410364*
X410591Y207875*
X410705Y207719*
X410818Y207250*
Y206938*
X410818D02*
X410705Y206469D01*
X410477Y206156*
X410136Y206000*
X409795*
X409455Y206156*
X409341Y206313*
X409341D02*
X409227Y206625D01*
X412068Y209281D02*
X413318D01*
X412636Y208031*
X412977*
X413205Y207875*
X413318Y207719*
X413432Y207250*
Y206938*
X413432D02*
X413318Y206469D01*
X413091Y206156*
X412750Y206000*
X412409*
X412068Y206156*
X411955Y206313*
X411955D02*
X411841Y206625D01*
X166705Y264500D02*
X166591Y264813D01*
X166591D02*
X166364Y265125D01*
X166136Y265281*
X165682*
X165455Y265125*
X165227Y264813*
X165227D02*
X165114Y264500D01*
X165000Y264031*
Y263250*
X165114Y262781*
X165227Y262469*
X165455Y262156*
X165682Y262000*
X166136*
X166364Y262156*
X166591Y262469*
X166705Y262781*
X167955Y265281D02*
X169205D01*
X168523Y264031*
X168864*
X169091Y263875*
X169205Y263719*
X169318Y263250*
Y262938*
X169318D02*
X169205Y262469D01*
X168977Y262156*
X168636Y262000*
X168295*
X167955Y262156*
X167841Y262313*
X167841D02*
X167727Y262625D01*
X170455Y264500D02*
Y264656D01*
X170568Y264969*
X170682Y265125*
X170909Y265281*
X171364*
X171591Y265125*
X171705Y264969*
X171818Y264656*
Y264344*
X171705Y264031*
X171477Y263563*
X171477D02*
X170341Y262000D01*
X171932*
X304267Y529599D02*
Y526318D01*
Y529599D02*
X305290D01*
X305631Y529443*
X305744Y529287*
X305858Y528974*
Y528662*
X305744Y528349*
X305631Y528193*
X305290Y528037*
X304267*
X305062D02*
X305858Y526318D01*
X307108Y529599D02*
X308358D01*
X307676Y528349*
X308017*
X308244Y528193*
X308358Y528037*
X308472Y527568*
Y527256*
X308472D02*
X308358Y526787D01*
X308131Y526474*
X307790Y526318*
X307449*
X307108Y526474*
X306994Y526631*
X306994D02*
X306881Y526943D01*
X304685Y505604D02*
Y502323D01*
Y505604D02*
X305480D01*
X305821Y505448*
X306049Y505135*
X306162Y504823*
X306276Y504354*
Y503573*
X306162Y503104*
X306049Y502792*
X305821Y502479*
X305480Y502323*
X304685*
X309003Y504823D02*
X308890Y505135D01*
X308662Y505448*
X308435Y505604*
X307980*
X307753Y505448*
X307526Y505135*
X307412Y504823*
X307299Y504354*
Y503573*
X307412Y503104*
X307526Y502792*
X307753Y502479*
X307980Y502323*
X308435*
X308662Y502479*
X308890Y502792*
X309003Y503104*
Y503573*
X308435D02*
X309003D01*
X310026Y505604D02*
Y502323D01*
Y505604D02*
X311617Y502323D01*
Y505604D02*
Y502323D01*
X312640Y505604D02*
Y502323D01*
Y505604D02*
X313435D01*
X313776Y505448*
X314003Y505135*
X314117Y504823*
X314230Y504354*
Y503573*
X314117Y503104*
X314003Y502792*
X313776Y502479*
X313435Y502323*
X312640*
X323586Y505604D02*
X322677Y502323D01*
X323586Y505604D02*
X324495Y502323D01*
X323018Y503417D02*
X324154D01*
X327223Y504823D02*
X327109Y505135D01*
X326882Y505448*
X326654Y505604*
X326200*
X325973Y505448*
X325745Y505135*
X325632Y504823*
X325518Y504354*
Y503573*
X325632Y503104*
X325745Y502792*
X325973Y502479*
X326200Y502323*
X326654*
X326882Y502479*
X327109Y502792*
X327223Y503104*
Y503573*
X326654D02*
X327223D01*
X328245Y505604D02*
Y502323D01*
Y505604D02*
X329836Y502323D01*
Y505604D02*
Y502323D01*
X330859Y505604D02*
Y502323D01*
Y505604D02*
X331654D01*
X331995Y505448*
X332223Y505135*
X332336Y504823*
X332450Y504354*
Y503573*
X332336Y503104*
X332223Y502792*
X331995Y502479*
X331654Y502323*
X330859*
X358000Y493656D02*
X358227Y493813D01*
X358227D02*
X358568Y494281D01*
Y491000*
X360273Y494281D02*
X359932Y494125D01*
X359705Y493656*
X359591Y492875*
Y492406*
X359705Y491625*
X359932Y491156*
X360273Y491000*
X360500*
X360841Y491156*
X361068Y491625*
X361182Y492406*
Y492875*
X361068Y493656*
X360841Y494125*
X360500Y494281*
X360273*
X362205Y493188D02*
X362886Y491000D01*
X363568Y493188D02*
X362886Y491000D01*
X319091Y496781D02*
X317955Y493500D01*
X317500Y496781D02*
X319091D01*
X320114Y495688D02*
X320795Y493500D01*
X321477Y495688D02*
X320795Y493500D01*
X275477Y496781D02*
X274341D01*
X274227Y495375*
X274341Y495531*
X274682Y495688*
X274682D02*
X275023D01*
X275023D02*
X275364Y495531D01*
X275591Y495219*
X275705Y494750*
X275591Y494438*
X275591D02*
X275477Y493969D01*
X275250Y493656*
X274909Y493500*
X274568*
X274227Y493656*
X274114Y493813*
X274114D02*
X274000Y494125D01*
X276727Y495688D02*
X277409Y493500D01*
X278091Y495688D02*
X277409Y493500D01*
X240727Y505281D02*
X241977D01*
X241295Y504031*
X241636*
X241864Y503875*
X241977Y503719*
X242091Y503250*
Y502938*
X242091D02*
X241977Y502469D01*
X241750Y502156*
X241409Y502000*
X241068*
X240727Y502156*
X240614Y502313*
X240614D02*
X240500Y502625D01*
X243227Y502313D02*
X243114Y502156D01*
X243227Y502000*
X243341Y502156*
X243227Y502313*
X244591Y505281D02*
X245841D01*
X245159Y504031*
X245500*
X245727Y503875*
X245841Y503719*
X245955Y503250*
Y502938*
X245955D02*
X245841Y502469D01*
X245614Y502156*
X245273Y502000*
X244932*
X244591Y502156*
X244477Y502313*
X244477D02*
X244364Y502625D01*
X246977Y504188D02*
X247659Y502000D01*
X248341Y504188D02*
X247659Y502000D01*
X193500Y493188D02*
X194182Y491000D01*
X194864Y493188D02*
X194182Y491000D01*
X195886Y493188D02*
Y491000D01*
Y492250D02*
X196000Y492719D01*
X196227Y493031*
X196455Y493188*
X196455D02*
X196795D01*
X197818Y492250D02*
X199182D01*
Y492563*
X199182D02*
X199068Y492875D01*
X198955Y493031*
X198727Y493188*
X198727D02*
X198386D01*
X198386D02*
X198159Y493031D01*
X197932Y492719*
X197818Y492250*
Y491938*
X197818D02*
X197932Y491469D01*
X198159Y491156*
X198386Y491000*
X198727*
X198955Y491156*
X199182Y491469*
X201114Y494281D02*
X200886D01*
X200659Y494125*
X200545Y493656*
Y491000*
X200205Y493188D02*
X201000D01*
X202364Y494281D02*
X203614D01*
X202932Y493031*
X203273*
X203500Y492875*
X203614Y492719*
X203727Y492250*
Y491938*
X203727D02*
X203614Y491469D01*
X203386Y491156*
X203045Y491000*
X202705*
X202364Y491156*
X202250Y491313*
X202250D02*
X202136Y491625D01*
X204864Y491313D02*
X204750Y491156D01*
X204864Y491000*
X204977Y491156*
X204864Y491313*
X206227Y494281D02*
X207477D01*
X206795Y493031*
X207136*
X207364Y492875*
X207477Y492719*
X207591Y492250*
Y491938*
X207591D02*
X207477Y491469D01*
X207250Y491156*
X206909Y491000*
X206568*
X206227Y491156*
X206114Y491313*
X206114D02*
X206000Y491625D01*
X208614Y493188D02*
X209295Y491000D01*
X209977Y493188D02*
X209295Y491000D01*
X139500Y492781D02*
X140409Y489500D01*
X141318Y492781D02*
X140409Y489500D01*
X142341Y492781D02*
Y489500D01*
Y492781D02*
X143136D01*
X143477Y492625*
X143705Y492313*
X143705D02*
X143818Y492000D01*
X143932Y491531*
Y490750*
X143818Y490281*
X143705Y489969*
X143477Y489656*
X143136Y489500*
X142341*
X144955Y492781D02*
Y489500D01*
Y492781D02*
X145750D01*
X146091Y492625*
X146318Y492313*
X146318D02*
X146432Y492000D01*
X146545Y491531*
Y490750*
X146432Y490281*
X146318Y489969*
X146091Y489656*
X145750Y489500*
X144955*
X148477Y492781D02*
X147568Y489500D01*
X148477Y492781D02*
X149386Y489500D01*
X147909Y490594D02*
X149045D01*
X150636Y492781D02*
X151886D01*
X151205Y491531*
X151545*
X151773Y491375*
X151886Y491219*
X152000Y490750*
Y490438*
X152000D02*
X151886Y489969D01*
X151659Y489656*
X151318Y489500*
X150977*
X150636Y489656*
X150523Y489813*
X150523D02*
X150409Y490125D01*
X153136Y489813D02*
X153023Y489656D01*
X153136Y489500*
X153250Y489656*
X153136Y489813*
X154500Y492781D02*
X155750D01*
X155068Y491531*
X155409*
X155636Y491375*
X155750Y491219*
X155864Y490750*
Y490438*
X155864D02*
X155750Y489969D01*
X155523Y489656*
X155182Y489500*
X154841*
X154500Y489656*
X154386Y489813*
X154386D02*
X154273Y490125D01*
X156886Y491688D02*
X157568Y489500D01*
X158250Y491688D02*
X157568Y489500D01*
X318000Y445864D02*
X318909Y442583D01*
X319818Y445864D02*
X318909Y442583D01*
X320841Y444770D02*
Y441489D01*
Y444301D02*
X321068Y444614D01*
X321295Y444770*
X321636*
X321864Y444614*
X322091Y444301*
X322205Y443833*
Y443520*
X322091Y443051*
X321864Y442739*
X321636Y442583*
X321295*
X321068Y442739*
X320841Y443051*
X323227Y444770D02*
Y441489D01*
Y444301D02*
X323455Y444614D01*
X323682Y444770*
X324023*
X324250Y444614*
X324477Y444301*
X324591Y443833*
Y443520*
X324477Y443051*
X324250Y442739*
X324023Y442583*
X323682*
X323455Y442739*
X323227Y443051*
X325614Y441958D02*
X328000D01*
X328682Y444770D02*
Y441489D01*
Y444301D02*
X328909Y444614D01*
X329136Y444770*
X329477*
X329705Y444614*
X329932Y444301*
X330045Y443833*
Y443520*
X329932Y443051*
X329705Y442739*
X329477Y442583*
X329136*
X328909Y442739*
X328682Y443051*
X355000Y445781D02*
X355909Y442500D01*
X356818Y445781D02*
X355909Y442500D01*
X359205Y445781D02*
Y442500D01*
Y444219D02*
X358977Y444531D01*
X358750Y444688*
X358750D02*
X358409D01*
X358409D02*
X358182Y444531D01*
X357955Y444219*
X357841Y443750*
Y443438*
X357841D02*
X357955Y442969D01*
X358182Y442656*
X358409Y442500*
X358750*
X358977Y442656*
X359205Y442969*
X361591Y445781D02*
Y442500D01*
Y444219D02*
X361364Y444531D01*
X361136Y444688*
X361136D02*
X360795D01*
X360795D02*
X360568Y444531D01*
X360341Y444219*
X360227Y443750*
Y443438*
X360227D02*
X360341Y442969D01*
X360568Y442656*
X360795Y442500*
X361136*
X361364Y442656*
X361591Y442969*
X362614Y441875D02*
X365000D01*
X365682Y444688D02*
Y441406D01*
Y444219D02*
X365909Y444531D01*
X366136Y444688*
X366136D02*
X366477D01*
X366477D02*
X366705Y444531D01*
X366932Y444219*
X367045Y443750*
Y443438*
X367045D02*
X366932Y442969D01*
X366705Y442656*
X366477Y442500*
X366136*
X365909Y442656*
X365682Y442969*
X271000Y367281D02*
X271909Y364000D01*
X272818Y367281D02*
X271909Y364000D01*
X275205Y367281D02*
Y364000D01*
Y365719D02*
X274977Y366031D01*
X274750Y366188*
X274750D02*
X274409D01*
X274409D02*
X274182Y366031D01*
X273955Y365719*
X273841Y365250*
Y364938*
X273841D02*
X273955Y364469D01*
X274182Y364156*
X274409Y364000*
X274750*
X274977Y364156*
X275205Y364469*
X277591Y367281D02*
Y364000D01*
Y365719D02*
X277364Y366031D01*
X277136Y366188*
X277136D02*
X276795D01*
X276795D02*
X276568Y366031D01*
X276341Y365719*
X276227Y365250*
Y364938*
X276227D02*
X276341Y364469D01*
X276568Y364156*
X276795Y364000*
X277136*
X277364Y364156*
X277591Y364469*
X278614Y363375D02*
X281000D01*
X282477Y367281D02*
Y364000D01*
X281682Y367281D02*
X283273D01*
X341500Y366281D02*
X342409Y363000D01*
X343318Y366281D02*
X342409Y363000D01*
X344341Y365188D02*
Y361906D01*
Y364719D02*
X344568Y365031D01*
X344795Y365188*
X344795D02*
X345136D01*
X345136D02*
X345364Y365031D01*
X345591Y364719*
X345705Y364250*
Y363938*
X345705D02*
X345591Y363469D01*
X345364Y363156*
X345136Y363000*
X344795*
X344568Y363156*
X344341Y363469*
X346727Y365188D02*
Y361906D01*
Y364719D02*
X346955Y365031D01*
X347182Y365188*
X347182D02*
X347523D01*
X347523D02*
X347750Y365031D01*
X347977Y364719*
X348091Y364250*
Y363938*
X348091D02*
X347977Y363469D01*
X347750Y363156*
X347523Y363000*
X347182*
X346955Y363156*
X346727Y363469*
X349114Y362375D02*
X351500D01*
X352977Y366281D02*
Y363000D01*
X352182Y366281D02*
X353773D01*
X182000Y246781D02*
Y243500D01*
Y246781D02*
X183023D01*
X183364Y246625*
X183477Y246469*
X183591Y246156*
Y245844*
X183477Y245531*
X183364Y245375*
X183023Y245219*
X182000*
X182795D02*
X183591Y243500D01*
X184614Y246781D02*
Y243500D01*
Y246781D02*
X185523Y243500D01*
X186432Y246781D02*
X185523Y243500D01*
X186432Y246781D02*
Y243500D01*
X189159Y246000D02*
X189045Y246313D01*
X189045D02*
X188818Y246625D01*
X188591Y246781*
X188136*
X187909Y246625*
X187682Y246313*
X187682D02*
X187568Y246000D01*
X187455Y245531*
Y244750*
X187568Y244281*
X187682Y243969*
X187909Y243656*
X188136Y243500*
X188591*
X188818Y243656*
X189045Y243969*
X189159Y244281*
X190182Y246781D02*
Y244438D01*
X190182D02*
X190295Y243969D01*
X190523Y243656*
X190864Y243500*
X191091*
X191432Y243656*
X191659Y243969*
X191773Y244438*
X191773D02*
Y246781D01*
X201705Y246000D02*
X201591Y246313D01*
X201591D02*
X201364Y246625D01*
X201136Y246781*
X200682*
X200455Y246625*
X200227Y246313*
X200227D02*
X200114Y246000D01*
X200000Y245531*
Y244750*
X200114Y244281*
X200227Y243969*
X200455Y243656*
X200682Y243500*
X201136*
X201364Y243656*
X201591Y243969*
X201705Y244281*
X202727Y246781D02*
Y243500D01*
X204091*
X205114Y246781D02*
Y243500D01*
X206705Y246781D02*
X205114Y244594D01*
X205682Y245375D02*
X206705Y243500D01*
X174295Y217864D02*
Y214583D01*
X173500Y217864D02*
X175091D01*
X176114D02*
Y214583D01*
Y217864D02*
X177136D01*
X177477Y217708*
X177591Y217551*
X177705Y217239*
Y216770*
X177591Y216458*
X177477Y216301*
X177136Y216145*
X176114*
X178841Y217083D02*
Y217239D01*
X178955Y217551*
X179068Y217708*
X179295Y217864*
X179750*
X179977Y217708*
X180091Y217551*
X180205Y217239*
Y216926*
X180091Y216614*
X179864Y216145*
X178727Y214583*
X180318*
X200795Y217781D02*
Y214500D01*
X200000Y217781D02*
X201591D01*
X202614D02*
Y214500D01*
Y217781D02*
X203636D01*
X203977Y217625*
X204091Y217469*
X204205Y217156*
Y216688*
X204205D02*
X204091Y216375D01*
X203977Y216219*
X203636Y216063*
X203636D02*
X202614D01*
X205227Y217156D02*
X205455Y217313D01*
X205455D02*
X205795Y217781D01*
Y214500*
X189500Y184864D02*
Y181583D01*
Y184864D02*
X190295D01*
X190636Y184708*
X190864Y184395*
X190977Y184083*
X191091Y183614*
Y182833*
X190977Y182364*
X190864Y182051*
X190636Y181739*
X190295Y181583*
X189500*
X193477Y183770D02*
Y181583D01*
Y183301D02*
X193250Y183614D01*
X193023Y183770*
X192682*
X192455Y183614*
X192227Y183301*
X192114Y182833*
Y182520*
X192227Y182051*
X192455Y181739*
X192682Y181583*
X193023*
X193250Y181739*
X193477Y182051*
X194841Y184864D02*
Y182208D01*
X194955Y181739*
X195182Y181583*
X195409*
X194500Y183770D02*
X195295D01*
X197795D02*
Y181583D01*
Y183301D02*
X197568Y183614D01*
X197341Y183770*
X197000*
X196773Y183614*
X196545Y183301*
X196432Y182833*
Y182520*
X196545Y182051*
X196773Y181739*
X197000Y181583*
X197341*
X197568Y181739*
X197795Y182051*
X112000Y196864D02*
Y193583D01*
Y196864D02*
X112795D01*
X113136Y196708*
X113364Y196395*
X113477Y196083*
X113591Y195614*
Y194833*
X113477Y194364*
X113364Y194051*
X113136Y193739*
X112795Y193583*
X112000*
X116318Y196083D02*
X116205Y196395D01*
X115977Y196708*
X115750Y196864*
X115295*
X115068Y196708*
X114841Y196395*
X114727Y196083*
X114614Y195614*
Y194833*
X114727Y194364*
X114841Y194051*
X115068Y193739*
X115295Y193583*
X115750*
X115977Y193739*
X116205Y194051*
X116318Y194364*
Y194833*
X115750D02*
X116318D01*
X117341Y196864D02*
Y193583D01*
Y196864D02*
X118932Y193583D01*
Y196864D02*
Y193583D01*
X119955Y196864D02*
Y193583D01*
Y196864D02*
X120750D01*
X121091Y196708*
X121318Y196395*
X121432Y196083*
X121545Y195614*
Y194833*
X121432Y194364*
X121318Y194051*
X121091Y193739*
X120750Y193583*
X119955*
X121727Y185864D02*
X122977D01*
X122295Y184614*
X122636*
X122864Y184458*
X122977Y184301*
X123091Y183833*
Y183520*
X122977Y183051*
X122750Y182739*
X122409Y182583*
X122068*
X121727Y182739*
X121614Y182895*
X121500Y183208*
X124227Y182895D02*
X124114Y182739D01*
X124227Y182583*
X124341Y182739*
X124227Y182895*
X125591Y185864D02*
X126841D01*
X126159Y184614*
X126500*
X126727Y184458*
X126841Y184301*
X126955Y183833*
Y183520*
X126841Y183051*
X126614Y182739*
X126273Y182583*
X125932*
X125591Y182739*
X125477Y182895*
X125364Y183208*
X127977Y185864D02*
X128886Y182583D01*
X129795Y185864D02*
X128886Y182583D01*
X121500Y176364D02*
Y173083D01*
Y176364D02*
X122295D01*
X122636Y176208*
X122864Y175895*
X122977Y175583*
X123091Y175114*
Y174333*
X122977Y173864*
X122864Y173551*
X122636Y173239*
X122295Y173083*
X121500*
X125818Y175583D02*
X125705Y175895D01*
X125477Y176208*
X125250Y176364*
X124795*
X124568Y176208*
X124341Y175895*
X124227Y175583*
X124114Y175114*
Y174333*
X124227Y173864*
X124341Y173551*
X124568Y173239*
X124795Y173083*
X125250*
X125477Y173239*
X125705Y173551*
X125818Y173864*
Y174333*
X125250D02*
X125818D01*
X126841Y176364D02*
Y173083D01*
Y176364D02*
X128432Y173083D01*
Y176364D02*
Y173083D01*
X129455Y176364D02*
Y173083D01*
Y176364D02*
X130250D01*
X130591Y176208*
X130818Y175895*
X130932Y175583*
X131045Y175114*
Y174333*
X130932Y173864*
X130818Y173551*
X130591Y173239*
X130250Y173083*
X129455*
X121500Y166364D02*
Y163083D01*
Y166364D02*
X122295D01*
X122636Y166208*
X122864Y165895*
X122977Y165583*
X123091Y165114*
Y164333*
X122977Y163864*
X122864Y163551*
X122636Y163239*
X122295Y163083*
X121500*
X124114Y166364D02*
Y163083D01*
X125818Y166364D02*
X125591Y166208D01*
X125364Y165895*
X125250Y165583*
X125136Y165114*
Y164333*
X125250Y163864*
X125364Y163551*
X125591Y163239*
X125818Y163083*
X126273*
X126500Y163239*
X126727Y163551*
X126841Y163864*
X126955Y164333*
Y165114*
X126841Y165583*
X126727Y165895*
X126500Y166208*
X126273Y166364*
X125818*
X123205Y155583D02*
X123091Y155895D01*
X122864Y156208*
X122636Y156364*
X122182*
X121955Y156208*
X121727Y155895*
X121614Y155583*
X121500Y155114*
Y154333*
X121614Y153864*
X121727Y153551*
X121955Y153239*
X122182Y153083*
X122636*
X122864Y153239*
X123091Y153551*
X123205Y153864*
X124227Y156364D02*
Y153083D01*
X125591*
X126614Y156364D02*
Y153083D01*
X128205Y156364D02*
X126614Y154176D01*
X127182Y154958D02*
X128205Y153083D01*
X121500Y145864D02*
Y142583D01*
Y145864D02*
X122523D01*
X122864Y145708*
X122977Y145551*
X123091Y145239*
Y144926*
X122977Y144614*
X122864Y144458*
X122523Y144301*
X121500*
X122295D02*
X123091Y142583D01*
X124114Y145864D02*
Y142583D01*
Y145864D02*
X125591D01*
X124114Y144301D02*
X125023D01*
X124114Y142583D02*
X125591D01*
X127409Y145864D02*
Y142583D01*
X126614Y145864D02*
X128205D01*
X123091Y135395D02*
X122864Y135708D01*
X122523Y135864*
X122068*
X121727Y135708*
X121500Y135395*
Y135083*
X121614Y134770*
X121727Y134614*
X121955Y134458*
X122636Y134145*
X122864Y133989*
X122977Y133833*
X123091Y133520*
Y133051*
X122864Y132739*
X122523Y132583*
X122068*
X121727Y132739*
X121500Y133051*
X124114Y135864D02*
X124682Y132583D01*
X125250Y135864D02*
X124682Y132583D01*
X125250Y135864D02*
X125818Y132583D01*
X126386Y135864D02*
X125818Y132583D01*
X128091Y135864D02*
X127864Y135708D01*
X127636Y135395*
X127523Y135083*
X127409Y134614*
Y133833*
X127523Y133364*
X127636Y133051*
X127864Y132739*
X128091Y132583*
X128545*
X128773Y132739*
X129000Y133051*
X129114Y133364*
X129227Y133833*
Y134614*
X129114Y135083*
X129000Y135395*
X128773Y135708*
X128545Y135864*
X128091*
X129705Y113000D02*
X129591Y113313D01*
X129591D02*
X129364Y113625D01*
X129136Y113781*
X128682*
X128455Y113625*
X128227Y113313*
X128227D02*
X128114Y113000D01*
X128000Y112531*
Y111750*
X128114Y111281*
X128227Y110969*
X128455Y110656*
X128682Y110500*
X129136*
X129364Y110656*
X129591Y110969*
X129705Y111281*
X132318Y113313D02*
X132091Y113625D01*
X131750Y113781*
X131295*
X130955Y113625*
X130727Y113313*
X130727D02*
Y113000D01*
X130841Y112688*
X130841D02*
X130955Y112531D01*
X131182Y112375*
X131864Y112063*
X131864D02*
X132091Y111906D01*
X132205Y111750*
X132318Y111438*
X132318D02*
Y110969D01*
X132091Y110656*
X131750Y110500*
X131295*
X130955Y110656*
X130727Y110969*
X136000Y113781D02*
Y110500D01*
Y113781D02*
X136909Y110500D01*
X137818Y113781D02*
X136909Y110500D01*
X137818Y113781D02*
Y110500D01*
X138841Y113781D02*
Y110500D01*
X141455Y113313D02*
X141227Y113625D01*
X140886Y113781*
X140432*
X140091Y113625*
X139864Y113313*
X139864D02*
Y113000D01*
X139977Y112688*
X139977D02*
X140091Y112531D01*
X140318Y112375*
X141000Y112063*
X141000D02*
X141227Y111906D01*
X141341Y111750*
X141455Y111438*
X141455D02*
Y110969D01*
X141227Y110656*
X140886Y110500*
X140432*
X140091Y110656*
X139864Y110969*
X143159Y113781D02*
X142932Y113625D01*
X142705Y113313*
X142705D02*
X142591Y113000D01*
X142477Y112531*
Y111750*
X142591Y111281*
X142705Y110969*
X142932Y110656*
X143159Y110500*
X143614*
X143841Y110656*
X144068Y110969*
X144182Y111281*
X144295Y111750*
Y112531*
X144182Y113000*
X144068Y113313*
X144068D02*
X143841Y113625D01*
X143614Y113781*
X143159*
X148000D02*
X148568Y110500D01*
X149136Y113781D02*
X148568Y110500D01*
X149136Y113781D02*
X149705Y110500D01*
X150273Y113781D02*
X149705Y110500D01*
X151295Y113781D02*
Y110500D01*
Y113781D02*
X152318D01*
X152659Y113625*
X152773Y113469*
X152886Y113156*
Y112688*
X152886D02*
X152773Y112375D01*
X152659Y112219*
X152318Y112063*
X152318D02*
X151295D01*
X155500Y113781D02*
Y110500D01*
X157091Y113781D02*
Y110500D01*
X155500Y112219D02*
X157091D01*
X158795Y113781D02*
X158568Y113625D01*
X158341Y113313*
X158341D02*
X158227Y113000D01*
X158114Y112531*
Y111750*
X158227Y111281*
X158341Y110969*
X158568Y110656*
X158795Y110500*
X159250*
X159477Y110656*
X159705Y110969*
X159818Y111281*
X159932Y111750*
Y112531*
X159818Y113000*
X159705Y113313*
X159705D02*
X159477Y113625D01*
X159250Y113781*
X158795*
X160955D02*
Y110500D01*
X162318*
X163341Y113781D02*
Y110500D01*
Y113781D02*
X164136D01*
X164477Y113625*
X164705Y113313*
X164705D02*
X164818Y113000D01*
X164932Y112531*
Y111750*
X164818Y111281*
X164705Y110969*
X164477Y110656*
X164136Y110500*
X163341*
X168705Y113000D02*
X168591Y113313D01*
X168591D02*
X168364Y113625D01*
X168136Y113781*
X167682*
X167455Y113625*
X167227Y113313*
X167227D02*
X167114Y113000D01*
X167000Y112531*
Y111750*
X167114Y111281*
X167227Y110969*
X167455Y110656*
X167682Y110500*
X168136*
X168364Y110656*
X168591Y110969*
X168705Y111281*
X169727Y113781D02*
Y110500D01*
X171091*
X172114Y113781D02*
Y110500D01*
X173705Y113781D02*
X172114Y111594D01*
X172682Y112375D02*
X173705Y110500D01*
X176500Y113864D02*
Y110583D01*
Y113864D02*
X177409Y110583D01*
X178318Y113864D02*
X177409Y110583D01*
X178318Y113864D02*
Y110583D01*
X180023Y113864D02*
X179795Y113708D01*
X179568Y113395*
X179455Y113083*
X179341Y112614*
Y111833*
X179455Y111364*
X179568Y111051*
X179795Y110739*
X180023Y110583*
X180477*
X180705Y110739*
X180932Y111051*
X181045Y111364*
X181159Y111833*
Y112614*
X181045Y113083*
X180932Y113395*
X180705Y113708*
X180477Y113864*
X180023*
X183773Y113395D02*
X183545Y113708D01*
X183205Y113864*
X182750*
X182409Y113708*
X182182Y113395*
Y113083*
X182295Y112770*
X182409Y112614*
X182636Y112458*
X183318Y112145*
X183545Y111989*
X183659Y111833*
X183773Y111520*
Y111051*
X183545Y110739*
X183205Y110583*
X182750*
X182409Y110739*
X182182Y111051*
X184795Y113864D02*
Y110583D01*
X284500Y109281D02*
Y106000D01*
Y109281D02*
X285295D01*
X285636Y109125*
X285864Y108813*
X285864D02*
X285977Y108500D01*
X286091Y108031*
Y107250*
X285977Y106781*
X285864Y106469*
X285636Y106156*
X285295Y106000*
X284500*
X287114Y109281D02*
Y106000D01*
Y109281D02*
X288136D01*
X288477Y109125*
X288591Y108969*
X288705Y108656*
Y108344*
X288591Y108031*
X288477Y107875*
X288136Y107719*
X287114D02*
X288136D01*
X288477Y107563*
X288477D02*
X288591Y107406D01*
X288705Y107094*
Y106625*
X288591Y106313*
X288591D02*
X288477Y106156D01*
X288136Y106000*
X287114*
X291091Y108813D02*
X290977Y109125D01*
X290636Y109281*
X290409*
X290068Y109125*
X289841Y108656*
X289727Y107875*
Y107094*
X289841Y106469*
X290068Y106156*
X290409Y106000*
X290523*
X290864Y106156*
X291091Y106469*
X291205Y106938*
X291205D02*
Y107094D01*
X291091Y107563*
X291091D02*
X290864Y107875D01*
X290523Y108031*
X290409*
X290068Y107875*
X289841Y107563*
X289841D02*
X289727Y107094D01*
X297500Y109281D02*
Y106000D01*
Y109281D02*
X298295D01*
X298636Y109125*
X298864Y108813*
X298864D02*
X298977Y108500D01*
X299091Y108031*
Y107250*
X298977Y106781*
X298864Y106469*
X298636Y106156*
X298295Y106000*
X297500*
X300114Y109281D02*
Y106000D01*
Y109281D02*
X301136D01*
X301477Y109125*
X301591Y108969*
X301705Y108656*
Y108344*
X301591Y108031*
X301477Y107875*
X301136Y107719*
X300114D02*
X301136D01*
X301477Y107563*
X301477D02*
X301591Y107406D01*
X301705Y107094*
Y106625*
X301591Y106313*
X301591D02*
X301477Y106156D01*
X301136Y106000*
X300114*
X303864Y109281D02*
X302727Y107094D01*
X304432*
X303864Y109281D02*
Y106000D01*
X309000Y109281D02*
Y106000D01*
Y109281D02*
X309795D01*
X310136Y109125*
X310364Y108813*
X310364D02*
X310477Y108500D01*
X310591Y108031*
Y107250*
X310477Y106781*
X310364Y106469*
X310136Y106156*
X309795Y106000*
X309000*
X311614Y109281D02*
Y106000D01*
Y109281D02*
X312636D01*
X312977Y109125*
X313091Y108969*
X313205Y108656*
Y108344*
X313091Y108031*
X312977Y107875*
X312636Y107719*
X311614D02*
X312636D01*
X312977Y107563*
X312977D02*
X313091Y107406D01*
X313205Y107094*
Y106625*
X313091Y106313*
X313091D02*
X312977Y106156D01*
X312636Y106000*
X311614*
X314341Y108500D02*
Y108656D01*
X314455Y108969*
X314568Y109125*
X314795Y109281*
X315250*
X315477Y109125*
X315591Y108969*
X315705Y108656*
Y108344*
X315591Y108031*
X315364Y107563*
X315364D02*
X314227Y106000D01*
X315818*
X319500Y109281D02*
Y106000D01*
Y109281D02*
X320295D01*
X320636Y109125*
X320864Y108813*
X320864D02*
X320977Y108500D01*
X321091Y108031*
Y107250*
X320977Y106781*
X320864Y106469*
X320636Y106156*
X320295Y106000*
X319500*
X322114Y109281D02*
Y106000D01*
Y109281D02*
X323136D01*
X323477Y109125*
X323591Y108969*
X323705Y108656*
Y108344*
X323591Y108031*
X323477Y107875*
X323136Y107719*
X322114D02*
X323136D01*
X323477Y107563*
X323477D02*
X323591Y107406D01*
X323705Y107094*
Y106625*
X323591Y106313*
X323591D02*
X323477Y106156D01*
X323136Y106000*
X322114*
X325409Y109281D02*
X325068Y109125D01*
X324841Y108656*
X324727Y107875*
Y107406*
X324841Y106625*
X325068Y106156*
X325409Y106000*
X325636*
X325977Y106156*
X326205Y106625*
X326318Y107406*
Y107875*
X326205Y108656*
X325977Y109125*
X325636Y109281*
X325409*
X284727Y115281D02*
X285977D01*
X285295Y114031*
X285636*
X285864Y113875*
X285977Y113719*
X286091Y113250*
Y112938*
X286091D02*
X285977Y112469D01*
X285750Y112156*
X285409Y112000*
X285068*
X284727Y112156*
X284614Y112313*
X284614D02*
X284500Y112625D01*
X287227Y112313D02*
X287114Y112156D01*
X287227Y112000*
X287341Y112156*
X287227Y112313*
X288591Y115281D02*
X289841D01*
X289159Y114031*
X289500*
X289727Y113875*
X289841Y113719*
X289955Y113250*
Y112938*
X289955D02*
X289841Y112469D01*
X289614Y112156*
X289273Y112000*
X288932*
X288591Y112156*
X288477Y112313*
X288477D02*
X288364Y112625D01*
X290977Y114188D02*
X291659Y112000D01*
X292341Y114188D02*
X291659Y112000D01*
X296000Y115281D02*
Y112000D01*
Y115281D02*
X296795D01*
X297136Y115125*
X297364Y114813*
X297364D02*
X297477Y114500D01*
X297591Y114031*
Y113250*
X297477Y112781*
X297364Y112469*
X297136Y112156*
X296795Y112000*
X296000*
X300318Y114500D02*
X300205Y114813D01*
X300205D02*
X299977Y115125D01*
X299750Y115281*
X299295*
X299068Y115125*
X298841Y114813*
X298841D02*
X298727Y114500D01*
X298614Y114031*
Y113250*
X298727Y112781*
X298841Y112469*
X299068Y112156*
X299295Y112000*
X299750*
X299977Y112156*
X300205Y112469*
X300318Y112781*
Y113250*
X299750D02*
X300318D01*
X301341Y115281D02*
Y112000D01*
Y115281D02*
X302932Y112000D01*
Y115281D02*
Y112000D01*
X303955Y115281D02*
Y112000D01*
Y115281D02*
X304750D01*
X305091Y115125*
X305318Y114813*
X305318D02*
X305432Y114500D01*
X305545Y114031*
Y113250*
X305432Y112781*
X305318Y112469*
X305091Y112156*
X304750Y112000*
X303955*
X310591Y114813D02*
X310364Y115125D01*
X310023Y115281*
X309568*
X309227Y115125*
X309000Y114813*
X309000D02*
Y114500D01*
X309114Y114188*
X309114D02*
X309227Y114031D01*
X309455Y113875*
X310136Y113563*
X310136D02*
X310364Y113406D01*
X310477Y113250*
X310591Y112938*
X310591D02*
Y112469D01*
X310364Y112156*
X310023Y112000*
X309568*
X309227Y112156*
X309000Y112469*
X311614Y115281D02*
Y112000D01*
Y115281D02*
X312409D01*
X312750Y115125*
X312977Y114813*
X312977D02*
X313091Y114500D01*
X313205Y114031*
Y113250*
X313091Y112781*
X312977Y112469*
X312750Y112156*
X312409Y112000*
X311614*
X315136Y115281D02*
X314227Y112000D01*
X315136Y115281D02*
X316045Y112000D01*
X314568Y113094D02*
X315705D01*
X321091Y114813D02*
X320864Y115125D01*
X320523Y115281*
X320068*
X319727Y115125*
X319500Y114813*
X319500D02*
Y114500D01*
X319614Y114188*
X319614D02*
X319727Y114031D01*
X319955Y113875*
X320636Y113563*
X320636D02*
X320864Y113406D01*
X320977Y113250*
X321091Y112938*
X321091D02*
Y112469D01*
X320864Y112156*
X320523Y112000*
X320068*
X319727Y112156*
X319500Y112469*
X323818Y114500D02*
X323705Y114813D01*
X323705D02*
X323477Y115125D01*
X323250Y115281*
X322795*
X322568Y115125*
X322341Y114813*
X322341D02*
X322227Y114500D01*
X322114Y114031*
Y113250*
X322227Y112781*
X322341Y112469*
X322568Y112156*
X322795Y112000*
X323250*
X323477Y112156*
X323705Y112469*
X323818Y112781*
X324841Y115281D02*
Y112000D01*
X326432Y115281D02*
X324841Y113094D01*
X325409Y113875D02*
X326432Y112000D01*
X394500Y118364D02*
Y115083D01*
Y118364D02*
X395295D01*
X395636Y118208*
X395864Y117895*
X395977Y117583*
X396091Y117114*
Y116333*
X395977Y115864*
X395864Y115551*
X395636Y115239*
X395295Y115083*
X394500*
X398023Y118364D02*
X397114Y115083D01*
X398023Y118364D02*
X398932Y115083D01*
X397455Y116176D02*
X398591D01*
X401659Y117583D02*
X401545Y117895D01*
X401318Y118208*
X401091Y118364*
X400636*
X400409Y118208*
X400182Y117895*
X400068Y117583*
X399955Y117114*
Y116333*
X400068Y115864*
X400182Y115551*
X400409Y115239*
X400636Y115083*
X401091*
X401318Y115239*
X401545Y115551*
X401659Y115864*
X402795Y117583D02*
Y117739D01*
X402909Y118051*
X403023Y118208*
X403250Y118364*
X403705*
X403932Y118208*
X404045Y118051*
X404159Y117739*
Y117426*
X404045Y117114*
X403818Y116645*
X402682Y115083*
X404273*
X328000Y125281D02*
Y122000D01*
Y125281D02*
X328795D01*
X329136Y125125*
X329364Y124813*
X329364D02*
X329477Y124500D01*
X329591Y124031*
Y123250*
X329477Y122781*
X329364Y122469*
X329136Y122156*
X328795Y122000*
X328000*
X331523Y125281D02*
X330614Y122000D01*
X331523Y125281D02*
X332432Y122000D01*
X330955Y123094D02*
X332091D01*
X335159Y124500D02*
X335045Y124813D01*
X335045D02*
X334818Y125125D01*
X334591Y125281*
X334136*
X333909Y125125*
X333682Y124813*
X333682D02*
X333568Y124500D01*
X333455Y124031*
Y123250*
X333568Y122781*
X333682Y122469*
X333909Y122156*
X334136Y122000*
X334591*
X334818Y122156*
X335045Y122469*
X335159Y122781*
X336182Y124656D02*
X336409Y124813D01*
X336409D02*
X336750Y125281D01*
Y122000*
X433000Y540281D02*
Y537000D01*
Y540281D02*
X433795D01*
X434136Y540125*
X434364Y539813*
X434364D02*
X434477Y539500D01*
X434591Y539031*
Y538250*
X434477Y537781*
X434364Y537469*
X434136Y537156*
X433795Y537000*
X433000*
X436636Y539813D02*
Y537000D01*
X435614Y538406D02*
X437659D01*
X433000Y530781D02*
Y527500D01*
Y530781D02*
X433795D01*
X434136Y530625*
X434364Y530313*
X434364D02*
X434477Y530000D01*
X434591Y529531*
Y528750*
X434477Y528281*
X434364Y527969*
X434136Y527656*
X433795Y527500*
X433000*
X435614Y528906D02*
X437659D01*
X115748Y100000D02*
X430709D01*
G75*
G03X446457Y115748I-0J15748D01*
G01Y556693*
G03X430709Y572441I-15748J-0*
G01X115748*
G03X100000Y556693I0J-15748*
G01Y115748*
G03X115748Y100000I15748J0*
G01X123622Y556693D02*
G03X123622I-7874J0D01*
G01X438583D02*
G03X438583I-7874J0D01*
G01X123622Y115748D02*
G03X123622I-7874J0D01*
G01X438583D02*
G03X438583I-7874J0D01*
G01X415945D02*
G03X415945I-4921J0D01*
G01Y560000D02*
G03X415945I-4921J0D01*
G01X282000Y117000D02*
X328000D01*
Y104000*
X282000*
Y117000*
X294000D02*
Y104000D01*
X307000Y117000D02*
Y104000D01*
X318000Y117000D02*
Y104000D01*
X157402Y503307D02*
Y498189D01*
X154843Y500748D02*
X159961D01*
X206378Y530236D02*
Y525118D01*
X203819Y527677D02*
X208937D01*
X242087Y569331D02*
Y564213D01*
X239528Y566772D02*
X244646D01*
X314567Y532244D02*
Y527126D01*
X312008Y529685D02*
X317126D01*
X367362Y492559D02*
Y487441D01*
X364803Y490000D02*
X369921D01*
X393661Y518701D02*
Y513583D01*
X391102Y516142D02*
X396220D01*
X307165Y447638D02*
Y442520D01*
X304606Y445079D02*
X309724D01*
X344016Y447520D02*
Y442402D01*
X341457Y444961D02*
X346575D01*
X207953Y408740D02*
Y403622D01*
X205394Y406181D02*
X210512D01*
X372878Y193780D02*
G03X372878I-1736J0D01*
G54D39*
G01X162049Y506500D02*
Y530800D01*
X183832*
Y506500*
X162049*
X252044Y563635D02*
Y530565D01*
X232556*
Y563635*
X252044*
X242300Y549069D02*
Y547100D01*
X244269*
X240331D02*
X242300D01*
Y545131*
X309971Y294764D02*
X304287D01*
Y297264*
X302663*
Y294764*
X296979*
Y334764*
X309971*
Y294764*
X323475Y292264D02*
X283475D01*
Y337264*
X323475*
Y292264*
X316861Y297264D02*
X314892D01*
Y295295*
Y299233D02*
Y297264D01*
X312923*
X391318Y479917D02*
X392696D01*
Y478490*
X393090*
Y479917*
X394468*
Y457083*
X391318*
Y479917*
X378621Y482331D02*
X406759D01*
Y454260*
X378621*
Y482331*
X384231Y468500D02*
X386200D01*
Y470469*
Y466531D02*
Y468500D01*
X388169*
X376461Y365195D02*
X377163D01*
Y372947*
X372644*
Y375518*
X367696*
Y372957*
X363155*
Y365247*
X363969*
Y362140*
X376392*
Y365207*
X376605*
X305858Y365558D02*
X306560D01*
Y373310*
X302041*
Y375881*
X297093*
Y373320*
X292552*
Y365610*
X293366*
Y362503*
X305789*
Y365570*
X306002*
X278742Y139140D02*
X279444D01*
Y146892*
X274925*
Y149463*
X269977*
Y146902*
X265436*
Y139192*
X266250*
Y136085*
X278673*
Y139152*
X278886*
X264342Y139140D02*
X265044D01*
Y146892*
X260525*
Y149463*
X255577*
Y146902*
X251036*
Y139192*
X251850*
Y136085*
X264273*
Y139152*
X264486*
X249842Y139140D02*
X250544D01*
Y146892*
X246025*
Y149463*
X241077*
Y146902*
X236536*
Y139192*
X237350*
Y136085*
X249773*
Y139152*
X249986*
X235442Y139140D02*
X236144D01*
Y146892*
X231625*
Y149463*
X226677*
Y146902*
X222136*
Y139192*
X222950*
Y136085*
X235373*
Y139152*
X235586*
X412434Y528714D02*
Y528012D01*
X420186*
Y532531*
X422757*
Y537479*
X420196*
Y542020*
X412486*
Y541206*
X409379*
Y528783*
X412446*
Y528570*
X169410Y305033D02*
X170112D01*
Y312785*
X165593*
Y315356*
X160645*
Y312795*
X156104*
Y305085*
X156918*
Y301978*
X169341*
Y305045*
X169554*
X189810Y305033D02*
X190512D01*
Y312785*
X185993*
Y315356*
X181045*
Y312795*
X176504*
Y305085*
X177318*
Y301978*
X189741*
Y305045*
X189954*
X209710Y305033D02*
X210412D01*
Y312785*
X205893*
Y315356*
X200945*
Y312795*
X196404*
Y305085*
X197218*
Y301978*
X209641*
Y305045*
X209854*
X230077Y305263D02*
X230779D01*
Y313015*
X226260*
Y315586*
X221312*
Y313025*
X216771*
Y305315*
X217585*
Y302208*
X230008*
Y305275*
X230221*
X250477Y305263D02*
X251179D01*
Y313015*
X246660*
Y315586*
X241712*
Y313025*
X237171*
Y305315*
X237985*
Y302208*
X250408*
Y305275*
X250621*
X270377Y305263D02*
X271079D01*
Y313015*
X266560*
Y315586*
X261612*
Y313025*
X257071*
Y305315*
X257885*
Y302208*
X270308*
Y305275*
X270521*
X173058Y331313D02*
Y330611D01*
X180810*
Y335130*
X183381*
Y340078*
X180820*
Y344619*
X173110*
Y343805*
X170003*
Y331382*
X173070*
Y331169*
X233725Y330943D02*
Y330241D01*
X241477*
Y334760*
X244048*
Y339708*
X241487*
Y344249*
X233777*
Y343435*
X230670*
Y331012*
X233737*
Y330799*
X205940Y232190D02*
X207663D01*
Y231489*
X208155*
Y232190*
X209878*
Y220970*
X205940*
Y232190*
X199051Y234454D02*
X216767D01*
Y218706*
X199051*
Y234454*
X205940Y226580D02*
X207909D01*
Y228549*
Y224611D02*
Y226580D01*
X209878*
X180540Y232190D02*
X182263D01*
Y231489*
X182755*
Y232190*
X184478*
Y220970*
X180540*
Y232190*
X173651Y234454D02*
X191367D01*
Y218706*
X173651*
Y234454*
X180540Y226580D02*
X182509D01*
Y228549*
Y224611D02*
Y226580D01*
X184478*
X206762Y261220D02*
X208485D01*
Y260519*
X208977*
Y261220*
X210700*
Y250000*
X206762*
Y261220*
X199873Y263484D02*
X217589D01*
Y247736*
X199873*
Y263484*
X206762Y255610D02*
X208731D01*
Y257579*
Y253641D02*
Y255610D01*
X210700*
X196031Y199636D02*
X197754D01*
Y198935*
X198246*
Y199636*
X199969*
Y188416*
X196031*
Y199636*
X189142Y201900D02*
X206858D01*
Y186152*
X189142*
Y201900*
X196031Y194026D02*
X198000D01*
Y195995*
Y192057D02*
Y194026D01*
X199969*
X188262Y261220D02*
X189985D01*
Y260519*
X190477*
Y261220*
X192200*
Y250000*
X188262*
Y261220*
X181373Y263484D02*
X199089D01*
Y247736*
X181373*
Y263484*
X188262Y255610D02*
X190231D01*
Y257579*
Y253641D02*
Y255610D01*
X192200*
X144515Y156657D02*
X150371D01*
Y155407*
X152045*
Y156657*
X157901*
Y136657*
X144515*
Y156657*
X130539Y160830D02*
X171877D01*
Y132484*
X130539*
Y160830*
X149239Y146657D02*
X151208D01*
Y148626*
Y144688D02*
Y146657D01*
X153177*
X422551Y166200D02*
X441449D01*
Y216200*
X422551*
Y166200*
X321535Y244094D02*
Y190550D01*
X375079*
Y193109*
X373898Y193700*
X375079Y194291*
Y244094*
X321535*
X385458Y255006D02*
X310424D01*
Y178655*
X385458*
Y255006*
X180621Y392837D02*
X181323D01*
Y400589*
X176804*
Y403160*
X171856*
Y400599*
X167315*
Y392889*
X168129*
Y389782*
X180552*
Y392849*
X180765*
X196621Y392837D02*
X197323D01*
Y400589*
X192804*
Y403160*
X187856*
Y400599*
X183315*
Y392889*
X184129*
Y389782*
X196552*
Y392849*
X196765*
X369534Y304656D02*
X370236D01*
Y312408*
X365717*
Y314979*
X360769*
Y312418*
X356228*
Y304708*
X357042*
Y301601*
X369465*
Y304668*
X369678*
X363816Y338656D02*
X365539D01*
Y337955*
X366031*
Y338656*
X367754*
Y327436*
X363816*
Y338656*
X356927Y340920D02*
X374643D01*
Y325172*
X356927*
Y340920*
X363816Y333046D02*
X365785D01*
Y335015*
Y331077D02*
Y333046D01*
X367754*
G54D40*
X137700Y519700D02*
Y511700D01*
X146700*
Y519700*
X137700Y522700D02*
Y530700D01*
X146700*
Y522700*
X337239Y565639D02*
Y532961D01*
X304561*
Y565639*
X337239*
X320900Y551269D02*
Y549300D01*
X322869*
X318931D02*
X320900D01*
Y547331*
X326658Y530703D02*
X325535D01*
Y531713*
X324523Y530721D02*
X325646D01*
Y529711*
X186101Y506989D02*
Y530611D01*
X198699*
Y506989*
X186101*
X249660Y450807D02*
Y464193D01*
X257140*
Y450807*
X249660*
X258501Y468689D02*
Y492311D01*
X271099*
Y468689*
X258501*
X217201Y468489D02*
Y492111D01*
X229799*
Y468489*
X217201*
X322748Y514365D02*
Y506365D01*
X331748*
Y514365*
X322748Y517365D02*
Y525365D01*
X331748*
Y517365*
X408900Y425500D02*
X400900D01*
Y416500*
X408900*
X411900Y425500D02*
X419900D01*
Y416500*
X411900*
X400900Y391700D02*
Y383700D01*
X409900*
Y391700*
X400900Y394700D02*
Y402700D01*
X409900*
Y394700*
X418900D02*
Y402700D01*
X409900*
Y394700*
X418900Y391700D02*
Y383700D01*
X409900*
Y391700*
X429700Y394800D02*
Y402800D01*
X420700*
Y394800*
X429700Y391800D02*
Y383800D01*
X420700*
Y391800*
X427700Y425500D02*
X419700D01*
Y416500*
X427700*
X430700Y425500D02*
X438700D01*
Y416500*
X430700*
X427700Y413800D02*
X419700D01*
Y404800*
X427700*
X430700Y413800D02*
X438700D01*
Y404800*
X430700*
X133111Y475701D02*
X109489D01*
Y488299*
X133111*
Y475701*
X136307Y445940D02*
X149693D01*
Y438460*
X136307*
Y445940*
Y453540D02*
X149693D01*
Y446060*
X136307*
Y453540*
X153160Y438507D02*
Y451893D01*
X160640*
Y438507*
X153160*
X190307Y447340D02*
X203693D01*
Y439860*
X190307*
Y447340*
X267072Y526747D02*
X290694D01*
Y514148*
X267072*
Y526747*
X412200Y478299D02*
Y483725D01*
X413450*
Y485275*
X412200*
Y490701*
X432200*
Y478299*
X412200*
X410389Y469736D02*
Y499264D01*
X434011*
Y469736*
X410389*
X422200Y482531D02*
Y484500D01*
X420231*
X424169D02*
X422200D01*
Y486469*
X297500Y391800D02*
Y383800D01*
X306500*
Y391800*
X297500Y394800D02*
Y402800D01*
X306500*
Y394800*
X274107Y458440D02*
X287493D01*
Y450960*
X274107*
Y458440*
X349307Y526240D02*
X362693D01*
Y518760*
X349307*
Y526240*
X275083Y513348D02*
X267083D01*
Y504348*
X275083*
X278083Y513348D02*
X286083D01*
Y504348*
X278083*
X400760Y528307D02*
Y541693D01*
X408240*
Y528307*
X400760*
X228939Y563639D02*
Y530961D01*
X196261*
Y563639*
X228939*
X212600Y549269D02*
Y547300D01*
X214569*
X210631D02*
X212600D01*
Y545331*
X218358Y528703D02*
X217235D01*
Y529713*
X216223Y528721D02*
X217346D01*
Y527711*
X118693Y489160D02*
X105307D01*
Y496640*
X118693*
Y489160*
X207160Y439907D02*
Y453293D01*
X214640*
Y439907*
X207160*
X232807Y465840D02*
X246193D01*
Y458360*
X232807*
Y465840*
X301601Y468889D02*
Y492511D01*
X314199*
Y468889*
X301601*
X187111Y477101D02*
X163489D01*
Y489699*
X187111*
Y477101*
X110000Y430000D02*
X150000D01*
Y210000*
X110000*
Y430000*
X128031Y320000D02*
X130000D01*
Y321969*
Y318031D02*
Y320000D01*
X131969*
X110000Y189467D02*
X120429D01*
Y129646*
X110000*
Y189467*
X114823Y186473D02*
Y184504D01*
X116792*
X112854D02*
X114823D01*
Y182535*
X273273Y407600D02*
X278372D01*
Y406350*
X279828*
Y407600*
X284927*
Y387600*
X273273*
Y407600*
X277131Y397600D02*
X279100D01*
Y399569*
Y395631D02*
Y397600D01*
X281069*
X264100Y411380D02*
Y383820D01*
X294100*
Y411380*
X264100*
X347090Y126452D02*
X352189D01*
Y125202*
X353645*
Y126452*
X358744*
Y106452*
X347090*
Y126452*
X350948Y116452D02*
X352917D01*
Y118421*
Y114483D02*
Y116452D01*
X354886*
X337917Y130232D02*
Y102672D01*
X367917*
Y130232*
X337917*
X176531Y325339D02*
X189917D01*
Y317859*
X176531*
Y325339*
X196431D02*
X209817D01*
Y317859*
X196431*
Y325339*
X168634Y425593D02*
Y412207D01*
X161154*
Y425593*
X168634*
X176233D02*
Y412207D01*
X168753*
Y425593*
X176233*
X209664Y343992D02*
Y330606D01*
X202184*
Y343992*
X209664*
X160740Y425593D02*
Y412207D01*
X153260*
Y425593*
X160740*
X156131Y293039D02*
X169517D01*
Y285559*
X156131*
Y293039*
X418240Y467493D02*
Y454107D01*
X410760*
Y467493*
X418240*
X418960Y454107D02*
Y467493D01*
X426440*
Y454107*
X418960*
X383307Y526240D02*
X396693D01*
Y518760*
X383307*
Y526240*
X439893Y506360D02*
X426507D01*
Y513840*
X439893*
Y506360*
X442540Y467493D02*
Y454107D01*
X435060*
Y467493*
X442540*
X435660Y485907D02*
Y499293D01*
X443140*
Y485907*
X435660*
X443140Y482893D02*
Y469507D01*
X435660*
Y482893*
X443140*
X317207Y458640D02*
X330593D01*
Y451160*
X317207*
Y458640*
Y466240D02*
X330593D01*
Y458760*
X317207*
Y466240*
X232807Y458240D02*
X246193D01*
Y450760*
X232807*
Y458240*
X190307Y454940D02*
X203693D01*
Y447460*
X190307*
Y454940*
X413793Y518760D02*
X400407D01*
Y526240*
X413793*
Y518760*
X292679Y355764D02*
X306065D01*
Y348284*
X292679*
Y355764*
X363282Y355401D02*
X376668D01*
Y347921*
X363282*
Y355401*
X265763Y134946D02*
X279149D01*
Y127466*
X265763*
Y134946*
X251363D02*
X264749D01*
Y127466*
X251363*
Y134946*
X236863D02*
X250249D01*
Y127466*
X236863*
Y134946*
X222463D02*
X235849D01*
Y127466*
X222463*
Y134946*
X361815Y361354D02*
Y347968D01*
X354335*
Y361354*
X361815*
X428693Y518760D02*
X415307D01*
Y526240*
X428693*
Y518760*
X291212Y361717D02*
Y348331D01*
X283732*
Y361717*
X291212*
X349807Y163640D02*
X363193D01*
Y156160*
X349807*
Y163640*
X224231Y344222D02*
Y330836D01*
X216751*
Y344222*
X224231*
X216798Y325569D02*
X230184D01*
Y318089*
X216798*
Y325569*
X250584Y318089D02*
X237198D01*
Y325569*
X250584*
Y318089*
X270484D02*
X257098D01*
Y325569*
X270484*
Y318089*
X270331Y344222D02*
Y330836D01*
X262851*
Y344222*
X270331*
X198048Y160850D02*
Y147464D01*
X190568*
Y160850*
X198048*
X181348D02*
Y147464D01*
X173868*
Y160850*
X181348*
X230184Y285789D02*
X216798D01*
Y293269*
X230184*
Y285789*
X237198Y293269D02*
X250584D01*
Y285789*
X237198*
Y293269*
X163564Y343992D02*
Y330606D01*
X156084*
Y343992*
X163564*
X257098Y293269D02*
X270484D01*
Y285789*
X257098*
Y293269*
X230184Y293889D02*
X216798D01*
Y301369*
X230184*
Y293889*
X250584D02*
X237198D01*
Y301369*
X250584*
Y293889*
X270484D02*
X257098D01*
Y301369*
X270484*
Y293889*
X201164Y343992D02*
Y330606D01*
X193684*
Y343992*
X201164*
X261831Y344222D02*
Y330836D01*
X254351*
Y344222*
X261831*
X384110Y102712D02*
X370724D01*
Y110192*
X384110*
Y102712*
X274107Y466040D02*
X287493D01*
Y458560*
X274107*
Y466040*
X414044Y340311D02*
Y353697D01*
X421524*
Y340311*
X414044*
X413724Y353697D02*
Y340311D01*
X406244*
Y353697*
X413724*
X176531Y293039D02*
X189917D01*
Y285559*
X176531*
Y293039*
X406244Y321511D02*
Y334897D01*
X413724*
Y321511*
X406244*
X421524Y334897D02*
Y321511D01*
X414044*
Y334897*
X421524*
X156131Y325339D02*
X169517D01*
Y317859*
X156131*
Y325339*
X196431Y293039D02*
X209817D01*
Y285559*
X196431*
Y293039*
X169517Y293659D02*
X156131D01*
Y301139*
X169517*
Y293659*
X189917D02*
X176531D01*
Y301139*
X189917*
Y293659*
X209817D02*
X196431D01*
Y301139*
X209817*
Y293659*
X396700Y593700D02*
Y530314D01*
X349298*
Y593700*
X396700*
X243884Y346289D02*
X230498D01*
Y353769*
X243884*
Y346289*
X192464Y343992D02*
Y330606D01*
X184984*
Y343992*
X192464*
X253131Y344222D02*
Y330836D01*
X245651*
Y344222*
X253131*
X242200Y394600D02*
Y402600D01*
X233200*
Y394600*
X242200Y391600D02*
Y383600D01*
X233200*
Y391600*
X183217Y346059D02*
X169831D01*
Y353539*
X183217*
Y346059*
X426107Y229940D02*
X439493D01*
Y222460*
X426107*
Y229940*
Y157240D02*
X439493D01*
Y149760*
X426107*
Y157240*
X331793Y265260D02*
X318407D01*
Y272740*
X331793*
Y265260*
X405660Y170707D02*
Y184093D01*
X413140*
Y170707*
X405660*
X380793Y265260D02*
X367407D01*
Y272740*
X380793*
Y265260*
X298140Y202793D02*
Y189407D01*
X290660*
Y202793*
X298140*
X364107Y163640D02*
X377493D01*
Y156160*
X364107*
Y163640*
X182268Y147464D02*
Y160850D01*
X189748*
Y147464*
X182268*
X342400Y394900D02*
Y402900D01*
X333400*
Y394900*
X342400Y391900D02*
Y383900D01*
X333400*
Y391900*
X253500Y394600D02*
Y402600D01*
X244500*
Y394600*
X253500Y391600D02*
Y383600D01*
X244500*
Y391600*
X321100Y391800D02*
Y383800D01*
X330100*
Y391800*
X321100Y394800D02*
Y402800D01*
X330100*
Y394800*
X252500Y425400D02*
X244500D01*
Y416400*
X252500*
X255500Y425400D02*
X263500D01*
Y416400*
X255500*
X252500Y440800D02*
X244500D01*
Y431800*
X252500*
X255500Y440800D02*
X263500D01*
Y431800*
X255500*
X232300Y425400D02*
X224300D01*
Y416400*
X232300*
X235300Y425400D02*
X243300D01*
Y416400*
X235300*
X232300Y413700D02*
X224300D01*
Y404700*
X232300*
X235300Y413700D02*
X243300D01*
Y404700*
X235300*
X366000Y394900D02*
Y402900D01*
X357000*
Y394900*
X366000Y391900D02*
Y383900D01*
X357000*
Y391900*
X411900Y432400D02*
X419900D01*
Y441400*
X411900*
X408900Y432400D02*
X400900D01*
Y441400*
X408900*
X253600Y391600D02*
Y383600D01*
X262600*
Y391600*
X253600Y394600D02*
Y402600D01*
X262600*
Y394600*
X118693Y496560D02*
X105307D01*
Y504040*
X118693*
Y496560*
X273273Y436900D02*
X278372D01*
Y435650*
X279828*
Y436900*
X284927*
Y416900*
X273273*
Y436900*
X277131Y426900D02*
X279100D01*
Y428869*
Y424931D02*
Y426900D01*
X281069*
X264100Y440680D02*
Y413120D01*
X294100*
Y440680*
X264100*
X378173Y437600D02*
X383272D01*
Y436350*
X384728*
Y437600*
X389827*
Y417600*
X378173*
Y437600*
X382031Y427600D02*
X384000D01*
Y429569*
Y425631D02*
Y427600D01*
X385969*
X369000Y441380D02*
Y413820D01*
X399000*
Y441380*
X369000*
X408940Y499193D02*
Y485807D01*
X401460*
Y499193*
X408940*
X426960Y454107D02*
Y467493D01*
X434440*
Y454107*
X426960*
X368040Y513793D02*
Y500407D01*
X360560*
Y513793*
X368040*
X290960Y451007D02*
Y464393D01*
X298440*
Y451007*
X290960*
X279793Y227460D02*
X266407D01*
Y234940*
X279793*
Y227460*
Y211960D02*
X266407D01*
Y219440*
X279793*
Y211960*
Y235060D02*
X266407D01*
Y242540*
X279793*
Y235060*
Y219960D02*
X266407D01*
Y227440*
X279793*
Y219960*
X378673Y407700D02*
X383772D01*
Y406450*
X385228*
Y407700*
X390327*
Y387700*
X378673*
Y407700*
X382531Y397700D02*
X384500D01*
Y399669*
Y395731D02*
Y397700D01*
X386469*
X369500Y411480D02*
Y383920D01*
X399500*
Y411480*
X369500*
X216193Y110460D02*
X202807D01*
Y117940*
X216193*
Y110460*
X236793D02*
X223407D01*
Y117940*
X236793*
Y110460*
X256693D02*
X243307D01*
Y117940*
X256693*
Y110460*
X278893Y110560D02*
X265507D01*
Y118040*
X278893*
Y110560*
Y102960D02*
X265507D01*
Y110440*
X278893*
Y102960*
X256693Y102860D02*
X243307D01*
Y110340*
X256693*
Y102860*
X236793D02*
X223407D01*
Y110340*
X236793*
Y102860*
X216193D02*
X202807D01*
Y110340*
X216193*
Y102860*
X184042Y383643D02*
X197428D01*
Y376163*
X184042*
Y383643*
X165575Y403196D02*
Y389810D01*
X158095*
Y403196*
X165575*
X158095Y376210D02*
Y389596D01*
X165575*
Y376210*
X158095*
X361815Y375554D02*
Y362168D01*
X354335*
Y375554*
X361815*
X291212Y375917D02*
Y362531D01*
X283732*
Y375917*
X291212*
X181428Y376163D02*
X168042D01*
Y383643*
X181428*
Y376163*
X224300Y391600D02*
Y383600D01*
X233300*
Y391600*
X224300Y394600D02*
Y402600D01*
X233300*
Y394600*
X429700Y391800D02*
Y383800D01*
X438700*
Y391800*
X429700Y394800D02*
Y402800D01*
X438700*
Y394800*
X405760Y245907D02*
Y259293D01*
X413240*
Y245907*
X405760*
X406024Y353697D02*
Y340311D01*
X398544*
Y353697*
X406024*
Y334897D02*
Y321511D01*
X398544*
Y334897*
X406024*
X172991Y247717D02*
Y261103D01*
X180471*
Y247717*
X172991*
X398260Y210107D02*
Y223493D01*
X405740*
Y210107*
X398260*
Y224607D02*
Y237993D01*
X405740*
Y224607*
X398260*
X397510Y102712D02*
X384124D01*
Y110192*
X397510*
Y102712*
X216869Y218687D02*
Y232073D01*
X224349*
Y218687*
X216869*
X198949Y232073D02*
Y218687D01*
X191469*
Y232073*
X198949*
X356555Y322562D02*
X369941D01*
Y315082*
X356555*
Y322562*
X371108Y293229D02*
Y306615D01*
X378588*
Y293229*
X371108*
X356555Y300662D02*
X369941D01*
Y293182*
X356555*
Y300662*
X208707Y190366D02*
X222093D01*
Y182886*
X208707*
Y190366*
X222093Y197786D02*
X208707D01*
Y205266*
X222093*
Y197786*
X187293D02*
X173907D01*
Y205266*
X187293*
Y197786*
X173907Y190366D02*
X187293D01*
Y182886*
X173907*
Y190366*
X217591Y247717D02*
Y261103D01*
X225071*
Y247717*
X217591*
X344861Y454161D02*
Y486839D01*
X377539*
Y454161*
X344861*
X361200Y468531D02*
Y470500D01*
X359231*
X363169D02*
X361200D01*
Y472469*
X355442Y489097D02*
X356565D01*
Y488087*
X357577Y489079D02*
X356454D01*
Y490089*
X370501Y490189D02*
Y513811D01*
X383099*
Y490189*
X370501*
X425011Y501201D02*
X401389D01*
Y513799*
X425011*
Y501201*
X333860Y451207D02*
Y464593D01*
X341340*
Y451207*
X333860*
X297461Y408361D02*
Y441039D01*
X330139*
Y408361*
X297461*
X313800Y422731D02*
Y424700D01*
X311831*
X315769D02*
X313800D01*
Y426669*
X308042Y443297D02*
X309165D01*
Y442287*
X310177Y443279D02*
X309054D01*
Y444289*
X334261Y408461D02*
Y441139D01*
X366939*
Y408461*
X334261*
X350600Y422831D02*
Y424800D01*
X348631*
X352569D02*
X350600D01*
Y426769*
X344842Y443397D02*
X345965D01*
Y442387*
X346977Y443379D02*
X345854D01*
Y444389*
X225791Y247717D02*
Y261103D01*
X233271*
Y247717*
X225791*
X187293Y190286D02*
X173907D01*
Y197766*
X187293*
Y190286*
X208707Y197766D02*
X222093D01*
Y190286*
X208707*
Y197766*
X405760Y224607D02*
Y237993D01*
X413240*
Y224607*
X405760*
X405660Y210107D02*
Y223493D01*
X413140*
Y210107*
X405660*
X164691Y247717D02*
Y261103D01*
X172171*
Y247717*
X164691*
X304548Y514365D02*
Y506365D01*
X313548*
Y514365*
X304548Y517365D02*
Y525365D01*
X313548*
Y517365*
G54D95*
X180835Y453586D02*
Y439020D01*
X165874*
Y453586*
X180835*
X127319Y452837D02*
Y438271D01*
X112358*
Y452837*
X127319*
G54D126*
X338279Y329451D02*
G03X338279I-787J0D01*
G54D127*
G01X329421Y333191D02*
G03X329421I-590J0D01*
G74*
G01X0Y0D02*
M02*
